<svg width="800" height="800" viewBox="0 0 800 800" fill="none" xmlns="http://www.w3.org/2000/svg">
<rect width="800" height="800" fill="white"/>
<rect x="40" y="218" width="720" height="337" rx="20" fill="black"/>
<path d="M97.9623 269H101.178V263.24H104.97C108.354 263.24 110.73 261.056 110.73 257.672C110.73 254.36 108.762 251.912 104.754 251.912H97.9623V269ZM101.178 254.6H104.25C106.098 254.6 107.37 255.296 107.37 257.672C107.37 259.352 106.386 260.552 104.37 260.552H101.178V254.6ZM112.634 269H115.85V262.712H118.922L122.234 269H125.954L122.138 262.112C122.954 261.8 125.522 260.912 125.522 257.072C125.522 254.072 123.386 251.912 119.762 251.912H112.634V269ZM115.85 254.744H118.874C121.106 254.744 122.162 255.752 122.162 257.312C122.162 258.92 120.986 259.88 119.354 259.88H115.85V254.744ZM135.311 254.456C138.719 254.456 140.135 257.48 140.135 260.456C140.135 263.432 138.719 266.456 135.311 266.456C131.903 266.456 130.487 263.432 130.487 260.456C130.487 257.48 131.903 254.456 135.311 254.456ZM135.311 251.48C130.199 251.48 127.127 255.632 127.127 260.456C127.127 265.28 130.199 269.432 135.311 269.432C140.423 269.432 143.495 265.28 143.495 260.456C143.495 255.632 140.423 251.48 135.311 251.48ZM145.986 269H149.202V261.8H156.21V258.968H149.202V254.888H157.218V251.912H145.986V269ZM158.876 269H171.596V266.024H162.092V261.608H170.252V258.776H162.092V254.888H170.972V251.912H158.876V269ZM171.988 265.832C173.62 268.208 176.548 269.432 179.38 269.432C182.932 269.432 186.868 267.992 186.868 263.816C186.868 260.576 184.468 259.544 181.924 258.992L179.836 258.536C177.916 258.104 176.308 257.768 176.308 256.352C176.308 255.152 177.7 254.456 179.548 254.456C181.636 254.456 183.22 255.368 184.036 256.928L186.7 254.912C184.924 252.56 182.5 251.48 179.572 251.48C176.38 251.48 172.948 253.208 172.948 256.808C172.948 259.952 175.348 260.96 178.084 261.584L179.98 262.016C182.26 262.544 183.508 262.928 183.508 264.272C183.508 265.928 181.444 266.456 179.884 266.456C177.796 266.456 175.924 265.64 174.724 263.864L171.988 265.832ZM187.551 265.832C189.183 268.208 192.111 269.432 194.943 269.432C198.495 269.432 202.431 267.992 202.431 263.816C202.431 260.576 200.031 259.544 197.487 258.992L195.399 258.536C193.479 258.104 191.871 257.768 191.871 256.352C191.871 255.152 193.263 254.456 195.111 254.456C197.199 254.456 198.783 255.368 199.599 256.928L202.263 254.912C200.487 252.56 198.063 251.48 195.135 251.48C191.943 251.48 188.511 253.208 188.511 256.808C188.511 259.952 190.911 260.96 193.647 261.584L195.543 262.016C197.823 262.544 199.071 262.928 199.071 264.272C199.071 265.928 197.007 266.456 195.447 266.456C193.359 266.456 191.487 265.64 190.287 263.864L187.551 265.832ZM204.841 269H208.057V251.912H204.841V269ZM218.913 254.456C222.321 254.456 223.737 257.48 223.737 260.456C223.737 263.432 222.321 266.456 218.913 266.456C215.505 266.456 214.089 263.432 214.089 260.456C214.089 257.48 215.505 254.456 218.913 254.456ZM218.913 251.48C213.801 251.48 210.729 255.632 210.729 260.456C210.729 265.28 213.801 269.432 218.913 269.432C224.025 269.432 227.097 265.28 227.097 260.456C227.097 255.632 224.025 251.48 218.913 251.48ZM229.707 269H232.635V256.832H232.683L239.859 269H242.811V251.912H239.883V264.08H239.835L232.659 251.912H229.707V269ZM254.416 262.856H249.664L252.016 255.032H252.064L254.416 262.856ZM244.456 269H247.816L248.8 265.688H255.28L256.264 269H259.624L253.912 251.912H250.168L244.456 269ZM261.158 269H271.31V266.024H264.374V251.912H261.158V269ZM135.309 291.832C136.941 294.208 139.869 295.432 142.701 295.432C146.253 295.432 150.189 293.992 150.189 289.816C150.189 286.576 147.789 285.544 145.245 284.992L143.157 284.536C141.237 284.104 139.629 283.768 139.629 282.352C139.629 281.152 141.021 280.456 142.869 280.456C144.957 280.456 146.541 281.368 147.357 282.928L150.021 280.912C148.245 278.56 145.821 277.48 142.893 277.48C139.701 277.48 136.269 279.208 136.269 282.808C136.269 285.952 138.669 286.96 141.405 287.584L143.301 288.016C145.581 288.544 146.829 288.928 146.829 290.272C146.829 291.928 144.765 292.456 143.205 292.456C141.117 292.456 139.245 291.64 138.045 289.864L135.309 291.832ZM152.431 295H165.151V292.024H155.647V287.608H163.807V284.776H155.647V280.888H164.527V277.912H152.431V295ZM167.103 295H170.319V288.712H173.391L176.703 295H180.423L176.607 288.112C177.423 287.8 179.991 286.912 179.991 283.072C179.991 280.072 177.855 277.912 174.231 277.912H167.103V295ZM170.319 280.744H173.343C175.575 280.744 176.631 281.752 176.631 283.312C176.631 284.92 175.455 285.88 173.823 285.88H170.319V280.744ZM185.628 295H189.948L194.94 277.912H191.58L187.812 291.544H187.764L183.996 277.912H180.636L185.628 295ZM196.638 295H199.854V277.912H196.638V295ZM217.574 282.856C216.758 279.28 214.142 277.48 210.71 277.48C205.598 277.48 202.526 281.632 202.526 286.456C202.526 291.28 205.238 295.432 210.71 295.432C214.118 295.432 216.398 293.776 217.766 290.344L214.838 289C214.214 290.992 212.942 292.456 210.71 292.456C207.302 292.456 205.886 289.432 205.886 286.456C205.886 283.48 207.302 280.456 210.71 280.456C212.654 280.456 214.214 281.752 214.478 283.648L217.574 282.856ZM219.58 295H232.3V292.024H222.796V287.608H230.956V284.776H222.796V280.888H231.676V277.912H219.58V295Z" fill="white"/>
<path d="M74.624 459.52H77.84V453.76H81.632C85.016 453.76 87.392 451.576 87.392 448.192C87.392 444.88 85.424 442.432 81.416 442.432H74.624V459.52ZM77.84 445.12H80.912C82.76 445.12 84.032 445.816 84.032 448.192C84.032 449.872 83.048 451.072 81.032 451.072H77.84V445.12Z" fill="white"/>
<path d="M89.2959 459.52H92.5119V453.232H95.5839L98.8959 459.52H102.616L98.7999 452.632C99.6159 452.32 102.184 451.432 102.184 447.592C102.184 444.592 100.048 442.432 96.4239 442.432H89.2959V459.52ZM92.5119 445.264H95.5359C97.7679 445.264 98.8239 446.272 98.8239 447.832C98.8239 449.44 97.6479 450.4 96.0159 450.4H92.5119V445.264Z" fill="white"/>
<path d="M111.973 444.976C115.381 444.976 116.797 448 116.797 450.976C116.797 453.952 115.381 456.976 111.973 456.976C108.565 456.976 107.149 453.952 107.149 450.976C107.149 448 108.565 444.976 111.973 444.976ZM111.973 442C106.861 442 103.789 446.152 103.789 450.976C103.789 455.8 106.861 459.952 111.973 459.952C117.085 459.952 120.157 455.8 120.157 450.976C120.157 446.152 117.085 442 111.973 442Z" fill="white"/>
<path d="M122.647 459.52H129.247C134.335 459.52 137.047 456.544 137.047 450.976C137.047 446.08 134.551 442.432 128.647 442.432H122.647V459.52ZM125.863 445.408H128.719C132.223 445.408 133.687 447.616 133.687 450.976C133.687 455.392 131.959 456.544 128.791 456.544H125.863V445.408Z" fill="white"/>
<path d="M153.322 442.432H150.106V453.424C150.106 455.512 149.218 456.832 146.434 456.832C143.65 456.832 142.762 455.512 142.762 453.424V442.432H139.546V454.264C139.546 457.744 142.306 459.952 146.434 459.952C150.562 459.952 153.322 457.744 153.322 454.264V442.432Z" fill="white"/>
<path d="M170.868 447.376C170.052 443.8 167.436 442 164.004 442C158.892 442 155.82 446.152 155.82 450.976C155.82 455.8 158.532 459.952 164.004 459.952C167.412 459.952 169.692 458.296 171.06 454.864L168.132 453.52C167.508 455.512 166.236 456.976 164.004 456.976C160.596 456.976 159.18 453.952 159.18 450.976C159.18 448 160.596 444.976 164.004 444.976C165.948 444.976 167.508 446.272 167.772 448.168L170.868 447.376Z" fill="white"/>
<path d="M176.162 459.52H179.378V445.408H184.058V442.432H171.482V445.408H176.162V459.52Z" fill="white"/>
<path d="M82.184 470.976C85.592 470.976 87.008 474 87.008 476.976C87.008 479.952 85.592 482.976 82.184 482.976C78.776 482.976 77.36 479.952 77.36 476.976C77.36 474 78.776 470.976 82.184 470.976ZM82.184 468C77.072 468 74 472.152 74 476.976C74 481.8 77.072 485.952 82.184 485.952C87.296 485.952 90.368 481.8 90.368 476.976C90.368 472.152 87.296 468 82.184 468Z" fill="white"/>
<path d="M92.8584 485.52H96.0744V478.32H103.082V475.488H96.0744V471.408H104.09V468.432H92.8584V485.52Z" fill="white"/>
<path d="M126.205 468.432H122.989V479.424C122.989 481.512 122.101 482.832 119.317 482.832C116.533 482.832 115.645 481.512 115.645 479.424V468.432H112.429V480.264C112.429 483.744 115.189 485.952 119.317 485.952C123.445 485.952 126.205 483.744 126.205 480.264V468.432Z" fill="white"/>
<path d="M127.767 482.352C129.399 484.728 132.327 485.952 135.159 485.952C138.711 485.952 142.647 484.512 142.647 480.336C142.647 477.096 140.247 476.064 137.703 475.512L135.615 475.056C133.695 474.624 132.087 474.288 132.087 472.872C132.087 471.672 133.479 470.976 135.327 470.976C137.415 470.976 138.999 471.888 139.815 473.448L142.479 471.432C140.703 469.08 138.279 468 135.351 468C132.159 468 128.727 469.728 128.727 473.328C128.727 476.472 131.127 477.48 133.863 478.104L135.759 478.536C138.039 479.064 139.287 479.448 139.287 480.792C139.287 482.448 137.223 482.976 135.663 482.976C133.575 482.976 131.703 482.16 130.503 480.384L127.767 482.352Z" fill="white"/>
<path d="M153.266 479.376H148.514L150.866 471.552H150.914L153.266 479.376ZM143.306 485.52H146.666L147.65 482.208H154.13L155.114 485.52H158.474L152.762 468.432H149.018L143.306 485.52Z" fill="white"/>
<path d="M379.402 313H395.722L371.65 241.6H349.516L325.546 313H341.356L346.558 297.19H374.302L379.402 313ZM351.046 283.216L360.43 254.554L369.712 283.216H351.046ZM405.102 313H443.148L454.062 301.474C461.304 293.62 468.546 284.95 468.546 272.914C468.546 255.472 453.858 241.6 434.172 241.6L405.102 241.6V313ZM420.402 298.516V256.084H431.928C444.372 256.288 452.736 264.958 452.736 276.994C452.736 289.336 444.372 298.516 432.846 298.516H420.402ZM507.937 314.02C512.221 314.02 515.791 312.898 517.219 312.286L529.051 300.25C535.069 294.028 536.803 289.336 536.803 281.38V241.6H521.503V285.46C521.503 294.334 515.281 299.536 508.447 299.536C501.613 299.536 495.391 294.334 495.391 285.46V241.6H480.091V286.684C480.091 304.636 492.331 314.02 507.937 314.02ZM571.909 314.02C575.071 314.02 578.131 313.51 579.763 312.796L586.087 306.472C592.309 300.352 596.083 294.844 596.083 288.01C596.083 279.34 590.473 274.036 579.865 270.466L571.909 267.814C566.809 266.08 565.075 263.836 565.075 260.674C565.075 257.308 567.625 254.656 572.011 254.656C576.703 254.656 579.865 257.104 579.967 263.122H595.062C595.369 246.904 582.925 240.58 572.929 240.58C569.053 240.58 566.503 241.294 565.075 241.804L556.201 250.882C551.815 255.268 549.775 260.062 549.775 265.06C549.775 272.506 554.161 278.32 564.973 281.992L573.337 284.848C578.947 286.786 580.783 289.54 580.783 292.804C580.783 296.17 578.335 299.944 572.521 299.944C566.605 299.944 563.953 295.864 563.953 289.948H548.653C548.245 305.962 558.853 314.02 571.909 314.02ZM694.179 313L678.573 295.456L688.569 280.87L677.451 273.322L669.393 285.154L663.477 278.524L665.109 277.504C672.453 273.118 676.533 266.692 676.533 259.246C676.533 248.944 668.985 240.58 656.337 240.58C653.175 240.58 650.931 241.09 648.891 241.804L640.935 249.964C636.141 254.962 634.815 258.532 634.815 262.204C634.815 266.488 636.753 269.956 639.711 273.22L641.853 275.566C635.223 280.156 629.919 286.174 629.919 295.15C629.919 305.962 638.181 314.02 651.237 314.02C658.581 314.02 664.803 311.47 670.005 306.574L675.819 313L694.179 313ZM655.725 253.738C659.397 253.738 661.947 255.88 661.947 259.246C661.947 262 660.213 264.448 656.439 266.692L654.195 268.018L652.869 266.59C650.727 264.244 649.299 261.898 649.299 259.246C649.299 255.982 651.951 253.738 655.725 253.738ZM651.951 300.964C647.463 300.964 644.403 298.312 644.403 294.538C644.403 291.07 647.157 288.52 651.237 285.97L661.233 296.884C658.581 299.536 655.317 300.964 651.951 300.964ZM409.073 345.6H377.759V417H393.059V393.234H412.949L422.231 383.748C427.841 377.832 431.513 372.528 431.513 364.98C431.513 354.576 422.843 345.6 409.073 345.6ZM405.809 379.566H393.059V359.37H405.809C412.337 359.37 416.417 363.858 416.417 369.162C416.417 374.466 412.337 379.566 405.809 379.566ZM472.508 418.02C478.526 418.02 484.136 417.102 487.604 415.47L496.478 406.596C506.27 396.702 509.534 387.726 509.534 378.138C509.534 357.228 491.684 344.58 473.732 344.58C466.286 344.58 461.696 346.11 459.248 347.436L450.68 356.106C441.806 365.082 437.624 374.262 437.624 383.85C437.624 405.474 455.984 418.02 472.508 418.02ZM474.752 403.536C462.92 403.536 452.72 394.356 452.72 379.974C452.72 366.816 461.084 359.064 471.794 359.064C483.524 359.064 494.54 368.04 494.54 382.524C494.54 395.682 485.768 403.536 474.752 403.536ZM552.494 418.02C558.512 418.02 564.122 417.102 567.59 415.47L576.464 406.596C586.256 396.702 589.52 387.726 589.52 378.138C589.52 357.228 571.67 344.58 553.718 344.58C546.272 344.58 541.682 346.11 539.234 347.436L530.666 356.106C521.792 365.082 517.61 374.262 517.61 383.85C517.61 405.474 535.97 418.02 552.494 418.02ZM554.738 403.536C542.906 403.536 532.706 394.356 532.706 379.974C532.706 366.816 541.07 359.064 551.78 359.064C563.51 359.064 574.526 368.04 574.526 382.524C574.526 395.682 565.754 403.536 554.738 403.536ZM601.88 417H649.82V402.516H617.18V345.6H601.88V417ZM314.208 521H329.508V491.828H361.128V521H376.428V449.6H361.128V477.242H329.508V449.6H314.208V521ZM423.599 522.02C429.617 522.02 435.227 521.102 438.695 519.47L447.569 510.596C457.361 500.702 460.625 491.726 460.625 482.138C460.625 461.228 442.775 448.58 424.823 448.58C417.377 448.58 412.787 450.11 410.339 451.436L401.771 460.106C392.897 469.082 388.715 478.262 388.715 487.85C388.715 509.474 407.075 522.02 423.599 522.02ZM425.843 507.536C414.011 507.536 403.811 498.356 403.811 483.974C403.811 470.816 412.175 463.064 422.885 463.064C434.615 463.064 445.631 472.04 445.631 486.524C445.631 499.682 436.859 507.536 425.843 507.536ZM500.118 522.02C504.402 522.02 507.972 520.898 509.4 520.286L521.232 508.25C527.25 502.028 528.984 497.336 528.984 489.38V449.6H513.684V493.46C513.684 502.334 507.462 507.536 500.628 507.536C493.794 507.536 487.572 502.334 487.572 493.46V449.6H472.272V494.684C472.272 512.636 484.512 522.02 500.118 522.02ZM564.089 522.02C567.251 522.02 570.311 521.51 571.943 520.796L578.267 514.472C584.489 508.352 588.263 502.844 588.263 496.01C588.263 487.34 582.653 482.036 572.045 478.466L564.089 475.814C558.989 474.08 557.255 471.836 557.255 468.674C557.255 465.308 559.805 462.656 564.191 462.656C568.883 462.656 572.045 465.104 572.147 471.122H587.243C587.549 454.904 575.105 448.58 565.109 448.58C561.233 448.58 558.683 449.294 557.255 449.804L548.381 458.882C543.995 463.268 541.955 468.062 541.955 473.06C541.955 480.506 546.341 486.32 557.153 489.992L565.517 492.848C571.127 494.786 572.963 497.54 572.963 500.804C572.963 504.17 570.515 507.944 564.701 507.944C558.785 507.944 556.133 503.864 556.133 497.948H540.833C540.425 513.962 551.033 522.02 564.089 522.02ZM601.183 521H650.143V506.516H616.483V492.032H646.573V478.364H616.483V464.084H650.143V449.6H601.183V521ZM683.222 522.02C686.384 522.02 689.444 521.51 691.076 520.796L697.4 514.472C703.622 508.352 707.396 502.844 707.396 496.01C707.396 487.34 701.786 482.036 691.178 478.466L683.222 475.814C678.122 474.08 676.388 471.836 676.388 468.674C676.388 465.308 678.938 462.656 683.324 462.656C688.016 462.656 691.178 465.104 691.28 471.122H706.376C706.682 454.904 694.238 448.58 684.242 448.58C680.366 448.58 677.816 449.294 676.388 449.804L667.514 458.882C663.128 463.268 661.088 468.062 661.088 473.06C661.088 480.506 665.474 486.32 676.286 489.992L684.65 492.848C690.26 494.786 692.096 497.54 692.096 500.804C692.096 504.17 689.648 507.944 683.834 507.944C677.918 507.944 675.266 503.864 675.266 497.948H659.966C659.558 513.962 670.166 522.02 683.222 522.02Z" fill="white"/>
</svg>
