<svg width="720" height="338" viewBox="0 0 720 338" fill="none" xmlns="http://www.w3.org/2000/svg">
<rect x="1" width="720" height="338" rx="20" fill="black"/>
<path d="M57.9623 44H61.1783V38.24H64.9703C68.3543 38.24 70.7303 36.056 70.7303 32.672C70.7303 29.36 68.7623 26.912 64.7543 26.912H57.9623V44ZM61.1783 29.6H64.2503C66.0983 29.6 67.3703 30.296 67.3703 32.672C67.3703 34.352 66.3863 35.552 64.3703 35.552H61.1783V29.6ZM72.6342 44H75.8502V37.712H78.9222L82.2342 44H85.9542L82.1382 37.112C82.9542 36.8 85.5222 35.912 85.5222 32.072C85.5222 29.072 83.3862 26.912 79.7622 26.912H72.6342V44ZM75.8502 29.744H78.8742C81.1062 29.744 82.1622 30.752 82.1622 32.312C82.1622 33.92 80.9862 34.88 79.3542 34.88H75.8502V29.744ZM95.3114 29.456C98.7194 29.456 100.135 32.48 100.135 35.456C100.135 38.432 98.7194 41.456 95.3114 41.456C91.9034 41.456 90.4874 38.432 90.4874 35.456C90.4874 32.48 91.9034 29.456 95.3114 29.456ZM95.3114 26.48C90.1994 26.48 87.1274 30.632 87.1274 35.456C87.1274 40.28 90.1994 44.432 95.3114 44.432C100.423 44.432 103.495 40.28 103.495 35.456C103.495 30.632 100.423 26.48 95.3114 26.48ZM105.986 44H109.202V36.8H116.21V33.968H109.202V29.888H117.218V26.912H105.986V44ZM118.876 44H131.596V41.024H122.092V36.608H130.252V33.776H122.092V29.888H130.972V26.912H118.876V44ZM131.988 40.832C133.62 43.208 136.548 44.432 139.38 44.432C142.932 44.432 146.868 42.992 146.868 38.816C146.868 35.576 144.468 34.544 141.924 33.992L139.836 33.536C137.916 33.104 136.308 32.768 136.308 31.352C136.308 30.152 137.7 29.456 139.548 29.456C141.636 29.456 143.22 30.368 144.036 31.928L146.7 29.912C144.924 27.56 142.5 26.48 139.572 26.48C136.38 26.48 132.948 28.208 132.948 31.808C132.948 34.952 135.348 35.96 138.084 36.584L139.98 37.016C142.26 37.544 143.508 37.928 143.508 39.272C143.508 40.928 141.444 41.456 139.884 41.456C137.796 41.456 135.924 40.64 134.724 38.864L131.988 40.832ZM147.551 40.832C149.183 43.208 152.111 44.432 154.943 44.432C158.495 44.432 162.431 42.992 162.431 38.816C162.431 35.576 160.031 34.544 157.487 33.992L155.399 33.536C153.479 33.104 151.871 32.768 151.871 31.352C151.871 30.152 153.263 29.456 155.111 29.456C157.199 29.456 158.783 30.368 159.599 31.928L162.263 29.912C160.487 27.56 158.063 26.48 155.135 26.48C151.943 26.48 148.511 28.208 148.511 31.808C148.511 34.952 150.911 35.96 153.647 36.584L155.543 37.016C157.823 37.544 159.071 37.928 159.071 39.272C159.071 40.928 157.007 41.456 155.447 41.456C153.359 41.456 151.487 40.64 150.287 38.864L147.551 40.832ZM164.841 44H168.057V26.912H164.841V44ZM178.913 29.456C182.321 29.456 183.737 32.48 183.737 35.456C183.737 38.432 182.321 41.456 178.913 41.456C175.505 41.456 174.089 38.432 174.089 35.456C174.089 32.48 175.505 29.456 178.913 29.456ZM178.913 26.48C173.801 26.48 170.729 30.632 170.729 35.456C170.729 40.28 173.801 44.432 178.913 44.432C184.025 44.432 187.097 40.28 187.097 35.456C187.097 30.632 184.025 26.48 178.913 26.48ZM189.707 44H192.635V31.832H192.683L199.859 44H202.811V26.912H199.883V39.08H199.835L192.659 26.912H189.707V44ZM214.416 37.856H209.664L212.016 30.032H212.064L214.416 37.856ZM204.456 44H207.816L208.8 40.688H215.28L216.264 44H219.624L213.912 26.912H210.168L204.456 44ZM221.158 44H231.31V41.024H224.374V26.912H221.158V44ZM95.3086 66.832C96.9406 69.208 99.8686 70.432 102.701 70.432C106.253 70.432 110.189 68.992 110.189 64.816C110.189 61.576 107.789 60.544 105.245 59.992L103.157 59.536C101.237 59.104 99.6286 58.768 99.6286 57.352C99.6286 56.152 101.021 55.456 102.869 55.456C104.957 55.456 106.541 56.368 107.357 57.928L110.021 55.912C108.245 53.56 105.821 52.48 102.893 52.48C99.7006 52.48 96.2686 54.208 96.2686 57.808C96.2686 60.952 98.6686 61.96 101.405 62.584L103.301 63.016C105.581 63.544 106.829 63.928 106.829 65.272C106.829 66.928 104.765 67.456 103.205 67.456C101.117 67.456 99.2446 66.64 98.0446 64.864L95.3086 66.832ZM112.431 70H125.151V67.024H115.647V62.608H123.807V59.776H115.647V55.888H124.527V52.912H112.431V70ZM127.103 70H130.319V63.712H133.391L136.703 70H140.423L136.607 63.112C137.423 62.8 139.991 61.912 139.991 58.072C139.991 55.072 137.855 52.912 134.231 52.912H127.103V70ZM130.319 55.744H133.343C135.575 55.744 136.631 56.752 136.631 58.312C136.631 59.92 135.455 60.88 133.823 60.88H130.319V55.744ZM145.628 70H149.948L154.94 52.912H151.58L147.812 66.544H147.764L143.996 52.912H140.636L145.628 70ZM156.638 70H159.854V52.912H156.638V70ZM177.574 57.856C176.758 54.28 174.142 52.48 170.71 52.48C165.598 52.48 162.526 56.632 162.526 61.456C162.526 66.28 165.238 70.432 170.71 70.432C174.118 70.432 176.398 68.776 177.766 65.344L174.838 64C174.214 65.992 172.942 67.456 170.71 67.456C167.302 67.456 165.886 64.432 165.886 61.456C165.886 58.48 167.302 55.456 170.71 55.456C172.654 55.456 174.214 56.752 174.478 58.648L177.574 57.856ZM179.58 70H192.3V67.024H182.796V62.608H190.956V59.776H182.796V55.888H191.676V52.912H179.58V70Z" fill="white"/>
<path d="M34.624 233.52H37.84V227.76H41.632C45.016 227.76 47.392 225.576 47.392 222.192C47.392 218.88 45.424 216.432 41.416 216.432H34.624V233.52ZM37.84 219.12H40.912C42.76 219.12 44.032 219.816 44.032 222.192C44.032 223.872 43.048 225.072 41.032 225.072H37.84V219.12Z" fill="white"/>
<path d="M49.2959 233.52H52.5119V227.232H55.5839L58.8959 233.52H62.6159L58.7999 226.632C59.6159 226.32 62.1839 225.432 62.1839 221.592C62.1839 218.592 60.0479 216.432 56.4239 216.432H49.2959V233.52ZM52.5119 219.264H55.5359C57.7679 219.264 58.8239 220.272 58.8239 221.832C58.8239 223.44 57.6479 224.4 56.0159 224.4H52.5119V219.264Z" fill="white"/>
<path d="M71.9731 218.976C75.3811 218.976 76.7971 222 76.7971 224.976C76.7971 227.952 75.3811 230.976 71.9731 230.976C68.5651 230.976 67.1491 227.952 67.1491 224.976C67.1491 222 68.5651 218.976 71.9731 218.976ZM71.9731 216C66.8611 216 63.7891 220.152 63.7891 224.976C63.7891 229.8 66.8611 233.952 71.9731 233.952C77.0851 233.952 80.1571 229.8 80.1571 224.976C80.1571 220.152 77.0851 216 71.9731 216Z" fill="white"/>
<path d="M82.6474 233.52H89.2474C94.3354 233.52 97.0474 230.544 97.0474 224.976C97.0474 220.08 94.5514 216.432 88.6474 216.432H82.6474V233.52ZM85.8634 219.408H88.7194C92.2234 219.408 93.6874 221.616 93.6874 224.976C93.6874 229.392 91.9594 230.544 88.7914 230.544H85.8634V219.408Z" fill="white"/>
<path d="M113.322 216.432H110.106V227.424C110.106 229.512 109.218 230.832 106.434 230.832C103.65 230.832 102.762 229.512 102.762 227.424V216.432H99.5459V228.264C99.5459 231.744 102.306 233.952 106.434 233.952C110.562 233.952 113.322 231.744 113.322 228.264V216.432Z" fill="white"/>
<path d="M130.868 221.376C130.052 217.8 127.436 216 124.004 216C118.892 216 115.82 220.152 115.82 224.976C115.82 229.8 118.532 233.952 124.004 233.952C127.412 233.952 129.692 232.296 131.06 228.864L128.132 227.52C127.508 229.512 126.236 230.976 124.004 230.976C120.596 230.976 119.18 227.952 119.18 224.976C119.18 222 120.596 218.976 124.004 218.976C125.948 218.976 127.508 220.272 127.772 222.168L130.868 221.376Z" fill="white"/>
<path d="M136.162 233.52H139.378V219.408H144.058V216.432H131.482V219.408H136.162V233.52Z" fill="white"/>
<path d="M42.184 244.976C45.592 244.976 47.008 248 47.008 250.976C47.008 253.952 45.592 256.976 42.184 256.976C38.776 256.976 37.36 253.952 37.36 250.976C37.36 248 38.776 244.976 42.184 244.976ZM42.184 242C37.072 242 34 246.152 34 250.976C34 255.8 37.072 259.952 42.184 259.952C47.296 259.952 50.368 255.8 50.368 250.976C50.368 246.152 47.296 242 42.184 242Z" fill="white"/>
<path d="M52.8584 259.52H56.0744V252.32H63.0824V249.488H56.0744V245.408H64.0904V242.432H52.8584V259.52Z" fill="white"/>
<path d="M86.2047 242.432H82.9887V253.424C82.9887 255.512 82.1007 256.832 79.3167 256.832C76.5327 256.832 75.6447 255.512 75.6447 253.424V242.432H72.4287V254.264C72.4287 257.744 75.1887 259.952 79.3167 259.952C83.4447 259.952 86.2047 257.744 86.2047 254.264V242.432Z" fill="white"/>
<path d="M87.7671 256.352C89.3991 258.728 92.3271 259.952 95.1591 259.952C98.7111 259.952 102.647 258.512 102.647 254.336C102.647 251.096 100.247 250.064 97.7031 249.512L95.6151 249.056C93.6951 248.624 92.0871 248.288 92.0871 246.872C92.0871 245.672 93.4791 244.976 95.3271 244.976C97.4151 244.976 98.9991 245.888 99.8151 247.448L102.479 245.432C100.703 243.08 98.2791 242 95.3511 242C92.1591 242 88.7271 243.728 88.7271 247.328C88.7271 250.472 91.1271 251.48 93.8631 252.104L95.7591 252.536C98.0391 253.064 99.2871 253.448 99.2871 254.792C99.2871 256.448 97.2231 256.976 95.6631 256.976C93.5751 256.976 91.7031 256.16 90.5031 254.384L87.7671 256.352Z" fill="white"/>
<path d="M113.266 253.376H108.514L110.866 245.552H110.914L113.266 253.376ZM103.306 259.52H106.666L107.65 256.208H114.13L115.114 259.52H118.474L112.762 242.432H109.018L103.306 259.52Z" fill="white"/>
<path d="M345.528 100.42L361.848 100.42L337.776 29.02L315.642 29.02L291.672 100.42H307.482L312.684 84.61H340.428L345.528 100.42ZM317.172 70.636L326.556 41.974L335.838 70.636H317.172Z" fill="white"/>
<path d="M371.228 100.42H409.274L420.188 88.894C427.43 81.04 434.672 72.37 434.672 60.334C434.672 42.892 419.984 29.02 400.298 29.02L371.228 29.02V100.42ZM386.528 85.936V43.504L398.054 43.504C410.498 43.708 418.862 52.378 418.862 64.414C418.862 76.756 410.498 85.936 398.972 85.936H386.528Z" fill="white"/>
<path d="M474.063 101.44C478.347 101.44 481.917 100.318 483.345 99.706L495.177 87.67C501.195 81.448 502.929 76.756 502.929 68.8V29.02H487.629V72.88C487.629 81.754 481.407 86.956 474.573 86.956C467.739 86.956 461.517 81.754 461.517 72.88V29.02H446.217V74.104C446.217 92.056 458.457 101.44 474.063 101.44Z" fill="white"/>
<path d="M531.035 101.44C534.503 101.44 537.869 100.726 539.501 100.012L544.499 94.708C548.171 90.73 550.415 86.752 550.415 82.264C550.415 77.368 547.661 71.554 537.869 69.004L531.239 67.27C527.873 66.454 526.547 65.128 526.547 62.68C526.547 60.538 528.383 58.804 531.137 58.804C534.503 58.804 536.033 61.048 536.237 63.904H550.211C550.109 54.418 543.581 47.482 531.749 47.482C528.383 47.482 525.221 48.4 523.589 49.318L518.489 54.826C514.817 58.804 512.981 62.578 512.981 66.454C512.981 71.86 515.735 76.858 525.017 79.408L531.953 81.346C534.911 82.06 536.747 83.59 536.747 85.936C536.747 88.282 534.809 90.118 531.647 90.118C528.995 90.118 526.955 88.792 526.547 85.324H512.573C512.675 95.218 519.917 101.44 531.035 101.44Z" fill="white"/>
<path d="M648.054 100.42L632.448 82.876L642.444 68.29L631.326 60.742L623.268 72.574L617.352 65.944L618.984 64.924C626.328 60.538 630.408 54.112 630.408 46.666C630.408 36.364 622.86 28 610.212 28C607.05 28 604.806 28.51 602.766 29.224L594.81 37.384C590.016 42.382 588.69 45.952 588.69 49.624C588.69 53.908 590.628 57.376 593.586 60.64L595.728 62.986C589.098 67.576 583.794 73.594 583.794 82.57C583.794 93.382 592.056 101.44 605.112 101.44C612.456 101.44 618.678 98.89 623.88 93.994L629.694 100.42H648.054ZM609.6 41.158C613.272 41.158 615.822 43.3 615.822 46.666C615.822 49.42 614.088 51.868 610.314 54.112L608.07 55.438L606.744 54.01C604.602 51.664 603.174 49.318 603.174 46.666C603.174 43.402 605.826 41.158 609.6 41.158ZM605.826 88.384C601.338 88.384 598.278 85.732 598.278 81.958C598.278 78.49 601.032 75.94 605.112 73.39L615.108 84.304C612.456 86.956 609.192 88.384 605.826 88.384Z" fill="white"/>
<path d="M369.073 133.02H337.759V204.42H353.059V180.654H372.949L382.231 171.168C387.841 165.252 391.513 159.948 391.513 152.4C391.513 141.996 382.843 133.02 369.073 133.02ZM365.809 166.986H353.059V146.79H365.809C372.337 146.79 376.417 151.278 376.417 156.582C376.417 161.886 372.337 166.986 365.809 166.986Z" fill="white"/>
<path d="M432.508 205.44C438.526 205.44 444.136 204.522 447.604 202.89L456.478 194.016C466.27 184.122 469.534 175.146 469.534 165.558C469.534 144.648 451.684 132 433.732 132C426.286 132 421.696 133.53 419.248 134.856L410.68 143.526C401.806 152.502 397.624 161.682 397.624 171.27C397.624 192.894 415.984 205.44 432.508 205.44ZM434.752 190.956C422.92 190.956 412.72 181.776 412.72 167.394C412.72 154.236 421.084 146.484 431.794 146.484C443.524 146.484 454.54 155.46 454.54 169.944C454.54 183.102 445.768 190.956 434.752 190.956Z" fill="white"/>
<path d="M512.494 205.44C518.512 205.44 524.122 204.522 527.59 202.89L536.464 194.016C546.256 184.122 549.52 175.146 549.52 165.558C549.52 144.648 531.67 132 513.718 132C506.272 132 501.682 133.53 499.234 134.856L490.666 143.526C481.792 152.502 477.61 161.682 477.61 171.27C477.61 192.894 495.97 205.44 512.494 205.44ZM514.738 190.956C502.906 190.956 492.706 181.776 492.706 167.394C492.706 154.236 501.07 146.484 511.78 146.484C523.51 146.484 534.526 155.46 534.526 169.944C534.526 183.102 525.754 190.956 514.738 190.956Z" fill="white"/>
<path d="M561.88 204.42H609.82V189.936H577.18V133.02H561.88V204.42Z" fill="white"/>
<path d="M274.208 308.42H289.508V279.248H321.128V308.42H336.428V237.02H321.128V264.662H289.508V237.02H274.208V308.42Z" fill="white"/>
<path d="M383.6 309.44C389.618 309.44 395.228 308.522 398.696 306.89L407.57 298.016C417.362 288.122 420.626 279.146 420.626 269.558C420.626 248.648 402.776 236 384.824 236C377.378 236 372.788 237.53 370.34 238.856L361.772 247.526C352.898 256.502 348.716 265.682 348.716 275.27C348.716 296.894 367.076 309.44 383.6 309.44ZM385.844 294.956C374.012 294.956 363.812 285.776 363.812 271.394C363.812 258.236 372.176 250.484 382.886 250.484C394.616 250.484 405.632 259.46 405.632 273.944C405.632 287.102 396.86 294.956 385.844 294.956Z" fill="white"/>
<path d="M460.118 309.44C464.402 309.44 467.972 308.318 469.4 307.706L481.232 295.67C487.25 289.448 488.984 284.756 488.984 276.8V237.02H473.684V280.88C473.684 289.754 467.462 294.956 460.628 294.956C453.794 294.956 447.572 289.754 447.572 280.88V237.02L432.272 237.02V282.104C432.272 300.056 444.512 309.44 460.118 309.44Z" fill="white"/>
<path d="M524.089 309.44C527.251 309.44 530.311 308.93 531.943 308.216L538.267 301.892C544.489 295.772 548.263 290.264 548.263 283.43C548.263 274.76 542.653 269.456 532.045 265.886L524.089 263.234C518.989 261.5 517.255 259.256 517.255 256.094C517.255 252.728 519.805 250.076 524.191 250.076C528.883 250.076 532.045 252.524 532.147 258.542H547.243C547.549 242.324 535.105 236 525.109 236C521.233 236 518.683 236.714 517.255 237.224L508.381 246.302C503.995 250.688 501.955 255.482 501.955 260.48C501.955 267.926 506.341 273.74 517.153 277.412L525.517 280.268C531.127 282.206 532.963 284.96 532.963 288.224C532.963 291.59 530.515 295.364 524.701 295.364C518.785 295.364 516.133 291.284 516.133 285.368H500.833C500.425 301.382 511.033 309.44 524.089 309.44Z" fill="white"/>
<path d="M561.183 308.42H610.143V293.936H576.483V279.452H606.573V265.784H576.483V251.504H610.143V237.02H561.183V308.42Z" fill="white"/>
<path d="M643.222 309.44C646.384 309.44 649.444 308.93 651.076 308.216L657.4 301.892C663.622 295.772 667.396 290.264 667.396 283.43C667.396 274.76 661.786 269.456 651.178 265.886L643.222 263.234C638.122 261.5 636.388 259.256 636.388 256.094C636.388 252.728 638.938 250.076 643.324 250.076C648.016 250.076 651.178 252.524 651.28 258.542H666.376C666.682 242.324 654.238 236 644.242 236C640.366 236 637.816 236.714 636.388 237.224L627.514 246.302C623.128 250.688 621.088 255.482 621.088 260.48C621.088 267.926 625.474 273.74 636.286 277.412L644.65 280.268C650.26 282.206 652.096 284.96 652.096 288.224C652.096 291.59 649.648 295.364 643.834 295.364C637.918 295.364 635.266 291.284 635.266 285.368H619.966C619.558 301.382 630.166 309.44 643.222 309.44Z" fill="white"/>
</svg>
