<svg width="720" height="337" viewBox="0 0 720 337" fill="none" xmlns="http://www.w3.org/2000/svg">
<rect width="720" height="337" rx="20" fill="black"/>
<path d="M57.9623 51H61.1783V45.24H64.9703C68.3543 45.24 70.7303 43.056 70.7303 39.672C70.7303 36.36 68.7623 33.912 64.7543 33.912H57.9623V51ZM61.1783 36.6H64.2503C66.0983 36.6 67.3703 37.296 67.3703 39.672C67.3703 41.352 66.3863 42.552 64.3703 42.552H61.1783V36.6ZM72.6342 51H75.8502V44.712H78.9222L82.2342 51H85.9542L82.1382 44.112C82.9542 43.8 85.5222 42.912 85.5222 39.072C85.5222 36.072 83.3862 33.912 79.7622 33.912H72.6342V51ZM75.8502 36.744H78.8742C81.1062 36.744 82.1622 37.752 82.1622 39.312C82.1622 40.92 80.9862 41.88 79.3542 41.88H75.8502V36.744ZM95.3114 36.456C98.7194 36.456 100.135 39.48 100.135 42.456C100.135 45.432 98.7194 48.456 95.3114 48.456C91.9034 48.456 90.4874 45.432 90.4874 42.456C90.4874 39.48 91.9034 36.456 95.3114 36.456ZM95.3114 33.48C90.1994 33.48 87.1274 37.632 87.1274 42.456C87.1274 47.28 90.1994 51.432 95.3114 51.432C100.423 51.432 103.495 47.28 103.495 42.456C103.495 37.632 100.423 33.48 95.3114 33.48ZM105.986 51H109.202V43.8H116.21V40.968H109.202V36.888H117.218V33.912H105.986V51ZM118.876 51H131.596V48.024H122.092V43.608H130.252V40.776H122.092V36.888H130.972V33.912H118.876V51ZM131.988 47.832C133.62 50.208 136.548 51.432 139.38 51.432C142.932 51.432 146.868 49.992 146.868 45.816C146.868 42.576 144.468 41.544 141.924 40.992L139.836 40.536C137.916 40.104 136.308 39.768 136.308 38.352C136.308 37.152 137.7 36.456 139.548 36.456C141.636 36.456 143.22 37.368 144.036 38.928L146.7 36.912C144.924 34.56 142.5 33.48 139.572 33.48C136.38 33.48 132.948 35.208 132.948 38.808C132.948 41.952 135.348 42.96 138.084 43.584L139.98 44.016C142.26 44.544 143.508 44.928 143.508 46.272C143.508 47.928 141.444 48.456 139.884 48.456C137.796 48.456 135.924 47.64 134.724 45.864L131.988 47.832ZM147.551 47.832C149.183 50.208 152.111 51.432 154.943 51.432C158.495 51.432 162.431 49.992 162.431 45.816C162.431 42.576 160.031 41.544 157.487 40.992L155.399 40.536C153.479 40.104 151.871 39.768 151.871 38.352C151.871 37.152 153.263 36.456 155.111 36.456C157.199 36.456 158.783 37.368 159.599 38.928L162.263 36.912C160.487 34.56 158.063 33.48 155.135 33.48C151.943 33.48 148.511 35.208 148.511 38.808C148.511 41.952 150.911 42.96 153.647 43.584L155.543 44.016C157.823 44.544 159.071 44.928 159.071 46.272C159.071 47.928 157.007 48.456 155.447 48.456C153.359 48.456 151.487 47.64 150.287 45.864L147.551 47.832ZM164.841 51H168.057V33.912H164.841V51ZM178.913 36.456C182.321 36.456 183.737 39.48 183.737 42.456C183.737 45.432 182.321 48.456 178.913 48.456C175.505 48.456 174.089 45.432 174.089 42.456C174.089 39.48 175.505 36.456 178.913 36.456ZM178.913 33.48C173.801 33.48 170.729 37.632 170.729 42.456C170.729 47.28 173.801 51.432 178.913 51.432C184.025 51.432 187.097 47.28 187.097 42.456C187.097 37.632 184.025 33.48 178.913 33.48ZM189.707 51H192.635V38.832H192.683L199.859 51H202.811V33.912H199.883V46.08H199.835L192.659 33.912H189.707V51ZM214.416 44.856H209.664L212.016 37.032H212.064L214.416 44.856ZM204.456 51H207.816L208.8 47.688H215.28L216.264 51H219.624L213.912 33.912H210.168L204.456 51ZM221.158 51H231.31V48.024H224.374V33.912H221.158V51ZM95.3086 73.832C96.9406 76.208 99.8686 77.432 102.701 77.432C106.253 77.432 110.189 75.992 110.189 71.816C110.189 68.576 107.789 67.544 105.245 66.992L103.157 66.536C101.237 66.104 99.6286 65.768 99.6286 64.352C99.6286 63.152 101.021 62.456 102.869 62.456C104.957 62.456 106.541 63.368 107.357 64.928L110.021 62.912C108.245 60.56 105.821 59.48 102.893 59.48C99.7006 59.48 96.2686 61.208 96.2686 64.808C96.2686 67.952 98.6686 68.96 101.405 69.584L103.301 70.016C105.581 70.544 106.829 70.928 106.829 72.272C106.829 73.928 104.765 74.456 103.205 74.456C101.117 74.456 99.2446 73.64 98.0446 71.864L95.3086 73.832ZM112.431 77H125.151V74.024H115.647V69.608H123.807V66.776H115.647V62.888H124.527V59.912H112.431V77ZM127.103 77H130.319V70.712H133.391L136.703 77H140.423L136.607 70.112C137.423 69.8 139.991 68.912 139.991 65.072C139.991 62.072 137.855 59.912 134.231 59.912H127.103V77ZM130.319 62.744H133.343C135.575 62.744 136.631 63.752 136.631 65.312C136.631 66.92 135.455 67.88 133.823 67.88H130.319V62.744ZM145.628 77H149.948L154.94 59.912H151.58L147.812 73.544H147.764L143.996 59.912H140.636L145.628 77ZM156.638 77H159.854V59.912H156.638V77ZM177.574 64.856C176.758 61.28 174.142 59.48 170.71 59.48C165.598 59.48 162.526 63.632 162.526 68.456C162.526 73.28 165.238 77.432 170.71 77.432C174.118 77.432 176.398 75.776 177.766 72.344L174.838 71C174.214 72.992 172.942 74.456 170.71 74.456C167.302 74.456 165.886 71.432 165.886 68.456C165.886 65.48 167.302 62.456 170.71 62.456C172.654 62.456 174.214 63.752 174.478 65.648L177.574 64.856ZM179.58 77H192.3V74.024H182.796V69.608H190.956V66.776H182.796V62.888H191.676V59.912H179.58V77Z" fill="white"/>
<path d="M34.624 241.52H37.84V235.76H41.632C45.016 235.76 47.392 233.576 47.392 230.192C47.392 226.88 45.424 224.432 41.416 224.432H34.624V241.52ZM37.84 227.12H40.912C42.76 227.12 44.032 227.816 44.032 230.192C44.032 231.872 43.048 233.072 41.032 233.072H37.84V227.12Z" fill="white"/>
<path d="M49.2959 241.52H52.5119V235.232H55.5839L58.8959 241.52H62.6159L58.7999 234.632C59.6159 234.32 62.1839 233.432 62.1839 229.592C62.1839 226.592 60.0479 224.432 56.4239 224.432H49.2959V241.52ZM52.5119 227.264H55.5359C57.7679 227.264 58.8239 228.272 58.8239 229.832C58.8239 231.44 57.6479 232.4 56.0159 232.4H52.5119V227.264Z" fill="white"/>
<path d="M71.9731 226.976C75.3811 226.976 76.7971 230 76.7971 232.976C76.7971 235.952 75.3811 238.976 71.9731 238.976C68.5651 238.976 67.1491 235.952 67.1491 232.976C67.1491 230 68.5651 226.976 71.9731 226.976ZM71.9731 224C66.8611 224 63.7891 228.152 63.7891 232.976C63.7891 237.8 66.8611 241.952 71.9731 241.952C77.0851 241.952 80.1571 237.8 80.1571 232.976C80.1571 228.152 77.0851 224 71.9731 224Z" fill="white"/>
<path d="M82.6474 241.52H89.2474C94.3354 241.52 97.0474 238.544 97.0474 232.976C97.0474 228.08 94.5514 224.432 88.6474 224.432H82.6474V241.52ZM85.8634 227.408H88.7194C92.2234 227.408 93.6874 229.616 93.6874 232.976C93.6874 237.392 91.9594 238.544 88.7914 238.544H85.8634V227.408Z" fill="white"/>
<path d="M113.322 224.432H110.106V235.424C110.106 237.512 109.218 238.832 106.434 238.832C103.65 238.832 102.762 237.512 102.762 235.424V224.432H99.5459V236.264C99.5459 239.744 102.306 241.952 106.434 241.952C110.562 241.952 113.322 239.744 113.322 236.264V224.432Z" fill="white"/>
<path d="M130.868 229.376C130.052 225.8 127.436 224 124.004 224C118.892 224 115.82 228.152 115.82 232.976C115.82 237.8 118.532 241.952 124.004 241.952C127.412 241.952 129.692 240.296 131.06 236.864L128.132 235.52C127.508 237.512 126.236 238.976 124.004 238.976C120.596 238.976 119.18 235.952 119.18 232.976C119.18 230 120.596 226.976 124.004 226.976C125.948 226.976 127.508 228.272 127.772 230.168L130.868 229.376Z" fill="white"/>
<path d="M136.162 241.52H139.378V227.408H144.058V224.432H131.482V227.408H136.162V241.52Z" fill="white"/>
<path d="M42.184 252.976C45.592 252.976 47.008 256 47.008 258.976C47.008 261.952 45.592 264.976 42.184 264.976C38.776 264.976 37.36 261.952 37.36 258.976C37.36 256 38.776 252.976 42.184 252.976ZM42.184 250C37.072 250 34 254.152 34 258.976C34 263.8 37.072 267.952 42.184 267.952C47.296 267.952 50.368 263.8 50.368 258.976C50.368 254.152 47.296 250 42.184 250Z" fill="white"/>
<path d="M52.8584 267.52H56.0744V260.32H63.0824V257.488H56.0744V253.408H64.0904V250.432H52.8584V267.52Z" fill="white"/>
<path d="M86.2047 250.432H82.9887V261.424C82.9887 263.512 82.1007 264.832 79.3167 264.832C76.5327 264.832 75.6447 263.512 75.6447 261.424V250.432H72.4287V262.264C72.4287 265.744 75.1887 267.952 79.3167 267.952C83.4447 267.952 86.2047 265.744 86.2047 262.264V250.432Z" fill="white"/>
<path d="M87.7671 264.352C89.3991 266.728 92.3271 267.952 95.1591 267.952C98.7111 267.952 102.647 266.512 102.647 262.336C102.647 259.096 100.247 258.064 97.7031 257.512L95.6151 257.056C93.6951 256.624 92.0871 256.288 92.0871 254.872C92.0871 253.672 93.4791 252.976 95.3271 252.976C97.4151 252.976 98.9991 253.888 99.8151 255.448L102.479 253.432C100.703 251.08 98.2791 250 95.3511 250C92.1591 250 88.7271 251.728 88.7271 255.328C88.7271 258.472 91.1271 259.48 93.8631 260.104L95.7591 260.536C98.0391 261.064 99.2871 261.448 99.2871 262.792C99.2871 264.448 97.2231 264.976 95.6631 264.976C93.5751 264.976 91.7031 264.16 90.5031 262.384L87.7671 264.352Z" fill="white"/>
<path d="M113.266 261.376H108.514L110.866 253.552H110.914L113.266 261.376ZM103.306 267.52H106.666L107.65 264.208H114.13L115.114 267.52H118.474L112.762 250.432H109.018L103.306 267.52Z" fill="white"/>
<path d="M339.402 95H355.722L331.65 23.6L309.516 23.6L285.546 95H301.356L306.558 79.19H334.302L339.402 95ZM311.046 65.216L320.43 36.554L329.712 65.216H311.046ZM365.102 95H403.148L414.062 83.474C421.304 75.62 428.546 66.95 428.546 54.914C428.546 37.472 413.858 23.6 394.172 23.6H365.102V95ZM380.402 80.516V38.084H391.928C404.372 38.288 412.736 46.958 412.736 58.994C412.736 71.336 404.372 80.516 392.846 80.516H380.402ZM467.937 96.02C472.221 96.02 475.791 94.898 477.219 94.286L489.051 82.25C495.069 76.028 496.803 71.336 496.803 63.38V23.6H481.503V67.46C481.503 76.334 475.281 81.536 468.447 81.536C461.613 81.536 455.391 76.334 455.391 67.46V23.6L440.091 23.6V68.684C440.091 86.636 452.331 96.02 467.937 96.02ZM531.909 96.02C535.071 96.02 538.131 95.51 539.763 94.796L546.087 88.472C552.309 82.352 556.083 76.844 556.083 70.01C556.083 61.34 550.473 56.036 539.865 52.466L531.909 49.814C526.809 48.08 525.075 45.836 525.075 42.674C525.075 39.308 527.625 36.656 532.011 36.656C536.703 36.656 539.865 39.104 539.967 45.122H555.062C555.369 28.904 542.925 22.58 532.929 22.58C529.053 22.58 526.503 23.294 525.075 23.804L516.201 32.882C511.815 37.268 509.775 42.062 509.775 47.06C509.775 54.506 514.161 60.32 524.973 63.992L533.337 66.848C538.947 68.786 540.783 71.54 540.783 74.804C540.783 78.17 538.335 81.944 532.521 81.944C526.605 81.944 523.953 77.864 523.953 71.948H508.653C508.245 87.962 518.853 96.02 531.909 96.02ZM654.179 95L638.573 77.456L648.569 62.87L637.451 55.322L629.393 67.154L623.477 60.524L625.109 59.504C632.453 55.118 636.533 48.692 636.533 41.246C636.533 30.944 628.985 22.58 616.337 22.58C613.175 22.58 610.931 23.09 608.891 23.804L600.935 31.964C596.141 36.962 594.815 40.532 594.815 44.204C594.815 48.488 596.753 51.956 599.711 55.22L601.853 57.566C595.223 62.156 589.919 68.174 589.919 77.15C589.919 87.962 598.181 96.02 611.237 96.02C618.581 96.02 624.803 93.47 630.005 88.574L635.819 95L654.179 95ZM615.725 35.738C619.397 35.738 621.947 37.88 621.947 41.246C621.947 44 620.213 46.448 616.439 48.692L614.195 50.018L612.869 48.59C610.727 46.244 609.299 43.898 609.299 41.246C609.299 37.982 611.951 35.738 615.725 35.738ZM611.951 82.964C607.463 82.964 604.403 80.312 604.403 76.538C604.403 73.07 607.157 70.52 611.237 67.97L621.233 78.884C618.581 81.536 615.317 82.964 611.951 82.964ZM369.073 127.6H337.759V199H353.059V175.234H372.949L382.231 165.748C387.841 159.832 391.513 154.528 391.513 146.98C391.513 136.576 382.843 127.6 369.073 127.6ZM365.809 161.566H353.059V141.37H365.809C372.337 141.37 376.417 145.858 376.417 151.162C376.417 156.466 372.337 161.566 365.809 161.566ZM432.508 200.02C438.526 200.02 444.136 199.102 447.604 197.47L456.478 188.596C466.27 178.702 469.534 169.726 469.534 160.138C469.534 139.228 451.684 126.58 433.732 126.58C426.286 126.58 421.696 128.11 419.248 129.436L410.68 138.106C401.806 147.082 397.624 156.262 397.624 165.85C397.624 187.474 415.984 200.02 432.508 200.02ZM434.752 185.536C422.92 185.536 412.72 176.356 412.72 161.974C412.72 148.816 421.084 141.064 431.794 141.064C443.524 141.064 454.54 150.04 454.54 164.524C454.54 177.682 445.768 185.536 434.752 185.536ZM512.494 200.02C518.512 200.02 524.122 199.102 527.59 197.47L536.464 188.596C546.256 178.702 549.52 169.726 549.52 160.138C549.52 139.228 531.67 126.58 513.718 126.58C506.272 126.58 501.682 128.11 499.234 129.436L490.666 138.106C481.792 147.082 477.61 156.262 477.61 165.85C477.61 187.474 495.97 200.02 512.494 200.02ZM514.738 185.536C502.906 185.536 492.706 176.356 492.706 161.974C492.706 148.816 501.07 141.064 511.78 141.064C523.51 141.064 534.526 150.04 534.526 164.524C534.526 177.682 525.754 185.536 514.738 185.536ZM561.88 199H609.82V184.516H577.18V127.6H561.88V199ZM274.208 303H289.508V273.828H321.128V303H336.428V231.6H321.128V259.242H289.508V231.6H274.208V303ZM383.599 304.02C389.617 304.02 395.227 303.102 398.695 301.47L407.569 292.596C417.361 282.702 420.625 273.726 420.625 264.138C420.625 243.228 402.775 230.58 384.823 230.58C377.377 230.58 372.787 232.11 370.339 233.436L361.771 242.106C352.897 251.082 348.715 260.262 348.715 269.85C348.715 291.474 367.075 304.02 383.599 304.02ZM385.843 289.536C374.011 289.536 363.811 280.356 363.811 265.974C363.811 252.816 372.175 245.064 382.885 245.064C394.615 245.064 405.631 254.04 405.631 268.524C405.631 281.682 396.859 289.536 385.843 289.536ZM460.118 304.02C464.402 304.02 467.972 302.898 469.4 302.286L481.232 290.25C487.25 284.028 488.984 279.336 488.984 271.38V231.6H473.684V275.46C473.684 284.334 467.462 289.536 460.628 289.536C453.794 289.536 447.572 284.334 447.572 275.46V231.6H432.272V276.684C432.272 294.636 444.512 304.02 460.118 304.02ZM524.089 304.02C527.251 304.02 530.311 303.51 531.943 302.796L538.267 296.472C544.489 290.352 548.263 284.844 548.263 278.01C548.263 269.34 542.653 264.036 532.045 260.466L524.089 257.814C518.989 256.08 517.255 253.836 517.255 250.674C517.255 247.308 519.805 244.656 524.191 244.656C528.883 244.656 532.045 247.104 532.147 253.122H547.243C547.549 236.904 535.105 230.58 525.109 230.58C521.233 230.58 518.683 231.294 517.255 231.804L508.381 240.882C503.995 245.268 501.955 250.062 501.955 255.06C501.955 262.506 506.341 268.32 517.153 271.992L525.517 274.848C531.127 276.786 532.963 279.54 532.963 282.804C532.963 286.17 530.515 289.944 524.701 289.944C518.785 289.944 516.133 285.864 516.133 279.948H500.833C500.425 295.962 511.033 304.02 524.089 304.02ZM561.183 303H610.143V288.516H576.483V274.032H606.573V260.364H576.483V246.084H610.143V231.6H561.183V303ZM643.222 304.02C646.384 304.02 649.444 303.51 651.076 302.796L657.4 296.472C663.622 290.352 667.396 284.844 667.396 278.01C667.396 269.34 661.786 264.036 651.178 260.466L643.222 257.814C638.122 256.08 636.388 253.836 636.388 250.674C636.388 247.308 638.938 244.656 643.324 244.656C648.016 244.656 651.178 247.104 651.28 253.122H666.376C666.682 236.904 654.238 230.58 644.242 230.58C640.366 230.58 637.816 231.294 636.388 231.804L627.514 240.882C623.128 245.268 621.088 250.062 621.088 255.06C621.088 262.506 625.474 268.32 636.286 271.992L644.65 274.848C650.26 276.786 652.096 279.54 652.096 282.804C652.096 286.17 649.648 289.944 643.834 289.944C637.918 289.944 635.266 285.864 635.266 279.948H619.966C619.558 295.962 630.166 304.02 643.222 304.02Z" fill="white"/>
</svg>
