<svg width="720" height="492" viewBox="0 0 720 492" fill="none" xmlns="http://www.w3.org/2000/svg">
<ellipse cx="360" cy="246" rx="360" ry="246" fill="black"/>
<path d="M50.1937 260.02C63.2497 260.02 71.9197 254.614 77.3257 249.004L68.0437 237.274C65.2897 240.232 59.7817 244.72 51.0097 244.72C39.3817 244.72 29.9977 235.54 29.9977 223.3C29.9977 211.162 39.2797 201.778 50.4997 201.778C58.2517 201.778 63.5557 205.45 67.1257 209.734L77.8357 198.412C72.4297 191.68 63.1477 186.58 51.1117 186.58C46.2157 186.58 41.2177 187.6 38.4637 189.028L27.8557 199.84C19.8997 208.102 15.0037 216.466 15.0037 227.176C15.0037 244.618 29.2837 260.02 50.1937 260.02ZM117.117 260.02C123.135 260.02 128.745 259.102 132.213 257.47L141.087 248.596C150.879 238.702 154.143 229.726 154.143 220.138C154.143 199.228 136.293 186.58 118.341 186.58C110.895 186.58 106.305 188.11 103.857 189.436L95.2889 198.106C86.4149 207.082 82.2329 216.262 82.2329 225.85C82.2329 247.474 100.593 260.02 117.117 260.02ZM119.361 245.536C107.529 245.536 97.3289 236.356 97.3289 221.974C97.3289 208.816 105.693 201.064 116.403 201.064C128.133 201.064 139.149 210.04 139.149 224.524C139.149 237.682 130.377 245.536 119.361 245.536ZM219.441 187.6L205.977 241.15L192.309 187.6H166.503V259H181.599L180.783 198.82L196.695 259H214.953L230.865 198.106L230.049 259H245.043V187.6H219.441ZM314.568 187.6L301.104 241.15L287.436 187.6H261.63V259H276.726L275.91 198.82L291.822 259H310.08L325.992 198.106L325.176 259H340.17V187.6H314.568ZM356.757 259H405.717V244.516H372.057V230.032H402.147V216.364H372.057V202.084H405.717V187.6H356.757V259ZM419.511 259L434.811 259V230.95L455.007 259H475.815L450.315 231.154H459.087L464.493 225.748C471.531 218.71 473.775 213.304 473.775 207.184C473.775 196.474 464.391 187.6 451.131 187.6H419.511V259ZM434.811 220.036V201.37H448.377C454.395 201.37 458.679 205.144 458.679 210.55C458.679 215.752 454.395 220.036 448.377 220.036H434.811ZM517.063 260.02C530.119 260.02 538.789 254.614 544.195 249.004L534.913 237.274C532.159 240.232 526.651 244.72 517.879 244.72C506.251 244.72 496.867 235.54 496.867 223.3C496.867 211.162 506.149 201.778 517.369 201.778C525.121 201.778 530.425 205.45 533.995 209.734L544.705 198.412C539.299 191.68 530.017 186.58 517.981 186.58C513.085 186.58 508.087 187.6 505.333 189.028L494.725 199.84C486.769 208.102 481.873 216.466 481.873 227.176C481.873 244.618 496.153 260.02 517.063 260.02ZM555.179 259H570.479V187.6H555.179V259ZM633.87 259H650.19L626.118 187.6H603.984L580.014 259H595.824L601.026 243.19H628.77L633.87 259ZM605.514 229.216L614.898 200.554L624.18 229.216H605.514ZM659.57 259H707.51V244.516H674.87V187.6H659.57V259ZM98.7688 363H114.069V291.6H98.7688V363ZM178.173 291.6L178.887 343.62L152.775 291.6H130.743L130.743 363H146.043L145.329 308.43L172.665 363H193.473L193.473 291.6H178.173ZM225.129 363H240.429L240.429 306.084H261.849V291.6H203.607V306.084H225.129L225.129 363ZM271.99 363H320.95V348.516H287.29V334.032H317.38V320.364H287.29V306.084H320.95V291.6H271.99V363ZM334.743 363H350.043V334.95L370.239 363H391.047L365.547 335.154H374.319L379.725 329.748C386.763 322.71 389.007 317.304 389.007 311.184C389.007 300.474 379.623 291.6 366.363 291.6H334.743V363ZM350.043 324.036V305.37H363.609C369.627 305.37 373.911 309.144 373.911 314.55C373.911 319.752 369.627 324.036 363.609 324.036H350.043ZM402.079 363H417.379V291.6H402.079V363ZM464.654 364.02C470.672 364.02 476.282 363.102 479.75 361.47L488.624 352.596C498.416 342.702 501.68 333.726 501.68 324.138C501.68 303.228 483.83 290.58 465.878 290.58C458.432 290.58 453.842 292.11 451.394 293.436L442.826 302.106C433.952 311.082 429.77 320.262 429.77 329.85C429.77 351.474 448.13 364.02 464.654 364.02ZM466.898 349.536C455.066 349.536 444.866 340.356 444.866 325.974C444.866 312.816 453.23 305.064 463.94 305.064C475.67 305.064 486.686 314.04 486.686 328.524C486.686 341.682 477.914 349.536 466.898 349.536ZM514.04 363H529.34V334.95L549.536 363H570.344L544.844 335.154H553.616L559.022 329.748C566.06 322.71 568.304 317.304 568.304 311.184C568.304 300.474 558.92 291.6 545.66 291.6H514.04V363ZM529.34 324.036V305.37H542.906C548.924 305.37 553.208 309.144 553.208 314.55C553.208 319.752 548.924 324.036 542.906 324.036H529.34ZM600.661 364.02C603.823 364.02 606.883 363.51 608.515 362.796L614.839 356.472C621.061 350.352 624.835 344.844 624.835 338.01C624.835 329.34 619.225 324.036 608.617 320.466L600.661 317.814C595.561 316.08 593.827 313.836 593.827 310.674C593.827 307.308 596.377 304.656 600.763 304.656C605.455 304.656 608.617 307.104 608.719 313.122H623.815C624.121 296.904 611.677 290.58 601.681 290.58C597.805 290.58 595.255 291.294 593.827 291.804L584.953 300.882C580.567 305.268 578.527 310.062 578.527 315.06C578.527 322.506 582.913 328.32 593.725 331.992L602.089 334.848C607.699 336.786 609.535 339.54 609.535 342.804C609.535 346.17 607.087 349.944 601.273 349.944C595.357 349.944 592.705 345.864 592.705 339.948H577.405C576.997 355.962 587.605 364.02 600.661 364.02Z" fill="white"/>
<path d="M213.469 96.4C216.869 101.35 222.969 103.9 228.869 103.9C236.269 103.9 244.469 100.9 244.469 92.2C244.469 85.45 239.469 83.3 234.169 82.15L229.819 81.2C225.819 80.3 222.469 79.6 222.469 76.65C222.469 74.15 225.369 72.7 229.219 72.7C233.569 72.7 236.869 74.6 238.569 77.85L244.119 73.65C240.419 68.75 235.369 66.5 229.269 66.5C222.619 66.5 215.469 70.1 215.469 77.6C215.469 84.15 220.469 86.25 226.169 87.55L230.119 88.45C234.869 89.55 237.469 90.35 237.469 93.15C237.469 96.6 233.169 97.7 229.919 97.7C225.569 97.7 221.669 96 219.169 92.3L213.469 96.4ZM249.141 103H255.841V91H263.741C270.791 91 275.741 86.45 275.741 79.4C275.741 72.5 271.641 67.4 263.291 67.4H249.141V103ZM255.841 73H262.241C266.091 73 268.741 74.45 268.741 79.4C268.741 82.9 266.691 85.4 262.491 85.4H255.841V73ZM279.707 103H306.207V96.8H286.407V87.6H303.407V81.7H286.407V73.6H304.907V67.4H279.707V103ZM310.273 103H336.773V96.8H316.973V87.6H333.973V81.7H316.973V73.6H335.473V67.4H310.273V103ZM340.84 103H354.59C365.19 103 370.84 96.8 370.84 85.2C370.84 75 365.64 67.4 353.34 67.4H340.84V103ZM347.54 73.6H353.49C360.79 73.6 363.84 78.2 363.84 85.2C363.84 94.4 360.24 96.8 353.64 96.8H347.54V73.6ZM382.745 86.7H391.395C395.445 86.7 397.945 88.15 397.945 92.15C397.945 95.85 395.495 97.1 391.445 97.1H382.745V86.7ZM382.745 72.7H390.695C394.595 72.7 396.345 74.45 396.345 77.15C396.345 80.55 393.645 81.7 390.695 81.7H382.745V72.7ZM376.045 103H391.195C398.595 103 404.945 101.25 404.945 92.35C404.945 88.1 402.195 84.05 397.295 83.55V83.45C401.195 82.7 403.345 80.15 403.345 76.25C403.345 70.35 398.645 67.4 392.795 67.4H376.045V103ZM425.145 72.7C432.245 72.7 435.195 79 435.195 85.2C435.195 91.4 432.245 97.7 425.145 97.7C418.045 97.7 415.095 91.4 415.095 85.2C415.095 79 418.045 72.7 425.145 72.7ZM425.145 66.5C414.495 66.5 408.095 75.15 408.095 85.2C408.095 95.25 414.495 103.9 425.145 103.9C435.795 103.9 442.195 95.25 442.195 85.2C442.195 75.15 435.795 66.5 425.145 66.5ZM464.833 90.2H454.933L459.833 73.9H459.933L464.833 90.2ZM444.083 103H451.083L453.133 96.1H466.633L468.683 103H475.683L463.783 67.4H455.983L444.083 103ZM485.727 103H492.427V73.6H502.177V67.4H475.977V73.6H485.727V103ZM239.448 155H246.148V143H254.048C261.098 143 266.048 138.45 266.048 131.4C266.048 124.5 261.948 119.4 253.598 119.4H239.448V155ZM246.148 125H252.548C256.398 125 259.048 126.45 259.048 131.4C259.048 134.9 256.998 137.4 252.798 137.4H246.148V125ZM270.015 155H276.715V141.9H283.115L290.015 155H297.765L289.815 140.65C291.515 140 296.865 138.15 296.865 130.15C296.865 123.9 292.415 119.4 284.865 119.4H270.015V155ZM276.715 125.3H283.015C287.665 125.3 289.865 127.4 289.865 130.65C289.865 134 287.415 136 284.015 136H276.715V125.3ZM317.259 124.7C324.359 124.7 327.309 131 327.309 137.2C327.309 143.4 324.359 149.7 317.259 149.7C310.159 149.7 307.209 143.4 307.209 137.2C307.209 131 310.159 124.7 317.259 124.7ZM317.259 118.5C306.609 118.5 300.209 127.15 300.209 137.2C300.209 147.25 306.609 155.9 317.259 155.9C327.909 155.9 334.309 147.25 334.309 137.2C334.309 127.15 327.909 118.5 317.259 118.5ZM352.097 119.4H345.397V144.85C345.397 148.6 342.597 149.4 340.347 149.4C339.197 149.4 337.647 149.35 336.847 149V155.45C337.897 155.65 339.297 155.9 341.297 155.9C345.797 155.9 352.097 154 352.097 147.35V119.4ZM358.931 155H385.431V148.8H365.631V139.6H382.631V133.7H365.631V125.6H384.131V119.4H358.931V155ZM419.547 129.7C417.847 122.25 412.397 118.5 405.247 118.5C394.597 118.5 388.197 127.15 388.197 137.2C388.197 147.25 393.847 155.9 405.247 155.9C412.347 155.9 417.097 152.45 419.947 145.3L413.847 142.5C412.547 146.65 409.897 149.7 405.247 149.7C398.147 149.7 395.197 143.4 395.197 137.2C395.197 131 398.147 124.7 405.247 124.7C409.297 124.7 412.547 127.4 413.097 131.35L419.547 129.7ZM430.576 155H437.276V125.6H447.026V119.4H420.826V125.6H430.576V155ZM447.38 148.4C450.78 153.35 456.88 155.9 462.78 155.9C470.18 155.9 478.38 152.9 478.38 144.2C478.38 137.45 473.38 135.3 468.08 134.15L463.73 133.2C459.73 132.3 456.38 131.6 456.38 128.65C456.38 126.15 459.28 124.7 463.13 124.7C467.48 124.7 470.78 126.6 472.48 129.85L478.03 125.65C474.33 120.75 469.28 118.5 463.18 118.5C456.53 118.5 449.38 122.1 449.38 129.6C449.38 136.15 454.38 138.25 460.08 139.55L464.03 140.45C468.78 141.55 471.38 142.35 471.38 145.15C471.38 148.6 467.08 149.7 463.83 149.7C459.48 149.7 455.58 148 453.08 144.3L447.38 148.4Z" fill="white"/>
<path d="M279.268 441H300.418V434.8H285.968V405.4H279.268V441ZM321.718 428.2H311.818L316.718 411.9H316.818L321.718 428.2ZM300.968 441H307.968L310.018 434.1H323.518L325.568 441H332.568L320.668 405.4H312.868L300.968 441ZM336.112 441H339.012V442.55C339.012 444.15 337.862 444.8 336.462 444.95V448C339.762 447.55 342.812 446.05 342.812 442.35V434.1H336.112V441ZM393.644 415.7C391.944 408.25 386.494 404.5 379.344 404.5C368.694 404.5 362.294 413.15 362.294 423.2C362.294 433.25 367.944 441.9 379.344 441.9C386.444 441.9 391.194 438.45 394.044 431.3L387.944 428.5C386.644 432.65 383.994 435.7 379.344 435.7C372.244 435.7 369.294 429.4 369.294 423.2C369.294 417 372.244 410.7 379.344 410.7C383.394 410.7 386.644 413.4 387.194 417.35L393.644 415.7ZM415.272 428.2H405.372L410.272 411.9H410.372L415.272 428.2ZM394.522 441H401.522L403.572 434.1H417.072L419.122 441H426.122L414.222 405.4H406.422L394.522 441ZM429.666 441H436.366V434.1H429.666V441Z" fill="white"/>
</svg>
