<svg width="800" height="800" viewBox="0 0 800 800" fill="none" xmlns="http://www.w3.org/2000/svg">
<rect width="800" height="800" fill="white"/>
<ellipse cx="400" cy="391" rx="360" ry="246" fill="black"/>
<path d="M90.1937 405.02C103.25 405.02 111.92 399.614 117.326 394.004L108.044 382.274C105.29 385.232 99.7817 389.72 91.0097 389.72C79.3817 389.72 69.9977 380.54 69.9977 368.3C69.9977 356.162 79.2797 346.778 90.4997 346.778C98.2517 346.778 103.556 350.45 107.126 354.734L117.836 343.412C112.43 336.68 103.148 331.58 91.1117 331.58C86.2157 331.58 81.2177 332.6 78.4637 334.028L67.8557 344.84C59.8997 353.102 55.0037 361.466 55.0037 372.176C55.0037 389.618 69.2837 405.02 90.1937 405.02ZM157.117 405.02C163.135 405.02 168.745 404.102 172.213 402.47L181.087 393.596C190.879 383.702 194.143 374.726 194.143 365.138C194.143 344.228 176.293 331.58 158.341 331.58C150.895 331.58 146.305 333.11 143.857 334.436L135.289 343.106C126.415 352.082 122.233 361.262 122.233 370.85C122.233 392.474 140.593 405.02 157.117 405.02ZM159.361 390.536C147.529 390.536 137.329 381.356 137.329 366.974C137.329 353.816 145.693 346.064 156.403 346.064C168.133 346.064 179.149 355.04 179.149 369.524C179.149 382.682 170.377 390.536 159.361 390.536ZM259.441 332.6L245.977 386.15L232.309 332.6H206.503V404H221.599L220.783 343.82L236.695 404H254.953L270.865 343.106L270.049 404H285.043V332.6H259.441ZM354.568 332.6L341.104 386.15L327.436 332.6H301.63V404H316.726L315.91 343.82L331.822 404H350.08L365.992 343.106L365.176 404H380.17V332.6H354.568ZM396.757 404H445.717V389.516H412.057V375.032H442.147V361.364H412.057V347.084H445.717V332.6L396.757 332.6V404ZM459.511 404L474.811 404V375.95L495.007 404H515.815L490.315 376.154H499.087L504.493 370.748C511.531 363.71 513.775 358.304 513.775 352.184C513.775 341.474 504.391 332.6 491.131 332.6H459.511V404ZM474.811 365.036V346.37H488.377C494.395 346.37 498.679 350.144 498.679 355.55C498.679 360.752 494.395 365.036 488.377 365.036H474.811ZM557.063 405.02C570.119 405.02 578.789 399.614 584.195 394.004L574.913 382.274C572.159 385.232 566.651 389.72 557.879 389.72C546.251 389.72 536.867 380.54 536.867 368.3C536.867 356.162 546.149 346.778 557.369 346.778C565.121 346.778 570.425 350.45 573.995 354.734L584.705 343.412C579.299 336.68 570.017 331.58 557.981 331.58C553.085 331.58 548.087 332.6 545.333 334.028L534.725 344.84C526.769 353.102 521.873 361.466 521.873 372.176C521.873 389.618 536.153 405.02 557.063 405.02ZM595.179 404H610.479V332.6H595.179V404ZM673.87 404H690.19L666.118 332.6H643.984L620.014 404H635.824L641.026 388.19H668.77L673.87 404ZM645.514 374.216L654.898 345.554L664.18 374.216H645.514ZM699.57 404H747.51V389.516H714.87V332.6H699.57V404ZM138.769 508H154.069V436.6H138.769V508ZM218.173 436.6L218.887 488.62L192.775 436.6H170.743L170.743 508H186.043L185.329 453.43L212.665 508H233.473L233.473 436.6H218.173ZM265.129 508H280.429V451.084H301.849V436.6H243.607V451.084H265.129V508ZM311.99 508H360.95V493.516H327.29V479.032H357.38V465.364H327.29V451.084H360.95V436.6H311.99V508ZM374.743 508H390.043V479.95L410.239 508H431.047L405.547 480.154H414.319L419.725 474.748C426.763 467.71 429.007 462.304 429.007 456.184C429.007 445.474 419.623 436.6 406.363 436.6H374.743V508ZM390.043 469.036V450.37H403.609C409.627 450.37 413.911 454.144 413.911 459.55C413.911 464.752 409.627 469.036 403.609 469.036H390.043ZM442.079 508H457.379V436.6H442.079V508ZM504.654 509.02C510.672 509.02 516.282 508.102 519.75 506.47L528.624 497.596C538.416 487.702 541.68 478.726 541.68 469.138C541.68 448.228 523.83 435.58 505.878 435.58C498.432 435.58 493.842 437.11 491.394 438.436L482.826 447.106C473.952 456.082 469.77 465.262 469.77 474.85C469.77 496.474 488.13 509.02 504.654 509.02ZM506.898 494.536C495.066 494.536 484.866 485.356 484.866 470.974C484.866 457.816 493.23 450.064 503.94 450.064C515.67 450.064 526.686 459.04 526.686 473.524C526.686 486.682 517.914 494.536 506.898 494.536ZM554.04 508H569.34V479.95L589.536 508H610.344L584.844 480.154H593.616L599.022 474.748C606.06 467.71 608.304 462.304 608.304 456.184C608.304 445.474 598.92 436.6 585.66 436.6H554.04V508ZM569.34 469.036V450.37H582.906C588.924 450.37 593.208 454.144 593.208 459.55C593.208 464.752 588.924 469.036 582.906 469.036H569.34ZM640.661 509.02C643.823 509.02 646.883 508.51 648.515 507.796L654.839 501.472C661.061 495.352 664.835 489.844 664.835 483.01C664.835 474.34 659.225 469.036 648.617 465.466L640.661 462.814C635.561 461.08 633.827 458.836 633.827 455.674C633.827 452.308 636.377 449.656 640.763 449.656C645.455 449.656 648.617 452.104 648.719 458.122H663.815C664.121 441.904 651.677 435.58 641.681 435.58C637.805 435.58 635.255 436.294 633.827 436.804L624.953 445.882C620.567 450.268 618.527 455.062 618.527 460.06C618.527 467.506 622.913 473.32 633.725 476.992L642.089 479.848C647.699 481.786 649.535 484.54 649.535 487.804C649.535 491.17 647.087 494.944 641.273 494.944C635.357 494.944 632.705 490.864 632.705 484.948H617.405C616.997 500.962 627.605 509.02 640.661 509.02Z" fill="white"/>
<path d="M330.625 218.832C332.257 221.208 335.185 222.432 338.017 222.432C341.569 222.432 345.505 220.992 345.505 216.816C345.505 213.576 343.105 212.544 340.561 211.992L338.473 211.536C336.553 211.104 334.945 210.768 334.945 209.352C334.945 208.152 336.337 207.456 338.185 207.456C340.273 207.456 341.857 208.368 342.673 209.928L345.337 207.912C343.561 205.56 341.137 204.48 338.209 204.48C335.017 204.48 331.585 206.208 331.585 209.808C331.585 212.952 333.985 213.96 336.721 214.584L338.617 215.016C340.897 215.544 342.145 215.928 342.145 217.272C342.145 218.928 340.081 219.456 338.521 219.456C336.433 219.456 334.561 218.64 333.361 216.864L330.625 218.832ZM347.748 222H350.964V216.24H354.756C358.14 216.24 360.516 214.056 360.516 210.672C360.516 207.36 358.548 204.912 354.54 204.912H347.748V222ZM350.964 207.6H354.036C355.884 207.6 357.156 208.296 357.156 210.672C357.156 212.352 356.172 213.552 354.156 213.552H350.964V207.6ZM362.419 222H375.139V219.024H365.635V214.608H373.795V211.776H365.635V207.888H374.515V204.912H362.419V222ZM377.091 222H389.811V219.024H380.307V214.608H388.467V211.776H380.307V207.888H389.187V204.912H377.091V222ZM391.763 222H398.363C403.451 222 406.163 219.024 406.163 213.456C406.163 208.56 403.667 204.912 397.763 204.912H391.763V222ZM394.979 207.888H397.835C401.339 207.888 402.803 210.096 402.803 213.456C402.803 217.872 401.075 219.024 397.907 219.024H394.979V207.888ZM411.878 214.176H416.03C417.974 214.176 419.174 214.872 419.174 216.792C419.174 218.568 417.998 219.168 416.054 219.168H411.878V214.176ZM411.878 207.456H415.694C417.566 207.456 418.406 208.296 418.406 209.592C418.406 211.224 417.11 211.776 415.694 211.776H411.878V207.456ZM408.662 222H415.934C419.486 222 422.534 221.16 422.534 216.888C422.534 214.848 421.214 212.904 418.862 212.664V212.616C420.734 212.256 421.766 211.032 421.766 209.16C421.766 206.328 419.51 204.912 416.702 204.912H408.662V222ZM432.229 207.456C435.637 207.456 437.053 210.48 437.053 213.456C437.053 216.432 435.637 219.456 432.229 219.456C428.821 219.456 427.405 216.432 427.405 213.456C427.405 210.48 428.821 207.456 432.229 207.456ZM432.229 204.48C427.117 204.48 424.045 208.632 424.045 213.456C424.045 218.28 427.117 222.432 432.229 222.432C437.341 222.432 440.413 218.28 440.413 213.456C440.413 208.632 437.341 204.48 432.229 204.48ZM451.28 215.856H446.528L448.88 208.032H448.928L451.28 215.856ZM441.32 222H444.68L445.664 218.688H452.144L453.128 222H456.488L450.776 204.912H447.032L441.32 222ZM461.309 222H464.525V207.888H469.205V204.912H456.629V207.888H461.309V222ZM343.095 248H346.311V242.24H350.103C353.487 242.24 355.863 240.056 355.863 236.672C355.863 233.36 353.895 230.912 349.887 230.912H343.095V248ZM346.311 233.6H349.383C351.231 233.6 352.503 234.296 352.503 236.672C352.503 238.352 351.519 239.552 349.503 239.552H346.311V233.6ZM357.767 248H360.983V241.712H364.055L367.367 248H371.087L367.271 241.112C368.087 240.8 370.655 239.912 370.655 236.072C370.655 233.072 368.519 230.912 364.895 230.912H357.767V248ZM360.983 233.744H364.007C366.239 233.744 367.295 234.752 367.295 236.312C367.295 237.92 366.119 238.88 364.487 238.88H360.983V233.744ZM380.444 233.456C383.852 233.456 385.268 236.48 385.268 239.456C385.268 242.432 383.852 245.456 380.444 245.456C377.036 245.456 375.62 242.432 375.62 239.456C375.62 236.48 377.036 233.456 380.444 233.456ZM380.444 230.48C375.332 230.48 372.26 234.632 372.26 239.456C372.26 244.28 375.332 248.432 380.444 248.432C385.556 248.432 388.628 244.28 388.628 239.456C388.628 234.632 385.556 230.48 380.444 230.48ZM397.167 230.912H393.951V243.128C393.951 244.928 392.607 245.312 391.527 245.312C390.975 245.312 390.231 245.288 389.847 245.12V248.216C390.351 248.312 391.023 248.432 391.983 248.432C394.143 248.432 397.167 247.52 397.167 244.328V230.912ZM400.447 248H413.167V245.024H403.663V240.608H411.823V237.776H403.663V233.888H412.543V230.912H400.447V248ZM429.543 235.856C428.727 232.28 426.111 230.48 422.679 230.48C417.567 230.48 414.495 234.632 414.495 239.456C414.495 244.28 417.207 248.432 422.679 248.432C426.087 248.432 428.367 246.776 429.735 243.344L426.807 242C426.183 243.992 424.911 245.456 422.679 245.456C419.271 245.456 417.855 242.432 417.855 239.456C417.855 236.48 419.271 233.456 422.679 233.456C424.623 233.456 426.183 234.752 426.447 236.648L429.543 235.856ZM434.836 248H438.052V233.888H442.732V230.912H430.156V233.888H434.836V248ZM442.902 244.832C444.534 247.208 447.462 248.432 450.294 248.432C453.846 248.432 457.782 246.992 457.782 242.816C457.782 239.576 455.382 238.544 452.838 237.992L450.75 237.536C448.83 237.104 447.222 236.768 447.222 235.352C447.222 234.152 448.614 233.456 450.462 233.456C452.55 233.456 454.134 234.368 454.95 235.928L457.614 233.912C455.838 231.56 453.414 230.48 450.486 230.48C447.294 230.48 443.862 232.208 443.862 235.808C443.862 238.952 446.262 239.96 448.998 240.584L450.894 241.016C453.174 241.544 454.422 241.928 454.422 243.272C454.422 244.928 452.358 245.456 450.798 245.456C448.71 245.456 446.838 244.64 445.638 242.864L442.902 244.832Z" fill="white"/>
<path d="M362.208 587H372.36V584.024H365.424V569.912H362.208V587ZM382.584 580.856H377.832L380.184 573.032H380.232L382.584 580.856ZM372.624 587H375.984L376.968 583.688H383.448L384.432 587H387.792L382.08 569.912H378.336L372.624 587ZM389.494 587H390.886V587.744C390.886 588.512 390.334 588.824 389.662 588.896V590.36C391.246 590.144 392.71 589.424 392.71 587.648V583.688H389.494V587ZM417.109 574.856C416.293 571.28 413.677 569.48 410.245 569.48C405.133 569.48 402.061 573.632 402.061 578.456C402.061 583.28 404.773 587.432 410.245 587.432C413.653 587.432 415.933 585.776 417.301 582.344L414.373 581C413.749 582.992 412.477 584.456 410.245 584.456C406.837 584.456 405.421 581.432 405.421 578.456C405.421 575.48 406.837 572.456 410.245 572.456C412.189 572.456 413.749 573.752 414.013 575.648L417.109 574.856ZM427.491 580.856H422.739L425.091 573.032H425.139L427.491 580.856ZM417.531 587H420.891L421.875 583.688H428.355L429.339 587H432.699L426.987 569.912H423.243L417.531 587ZM434.4 587H437.616V583.688H434.4V587Z" fill="white"/>
</svg>
