<svg width="800" height="800" viewBox="0 0 800 800" fill="none" xmlns="http://www.w3.org/2000/svg">
<rect width="800" height="800" fill="white"/>
<path d="M649 387C649 550.257 537.437 682 400.5 682C263.563 682 152 550.257 152 387C152 223.743 263.563 92 400.5 92C537.437 92 649 223.743 649 387Z" fill="white" stroke="black" stroke-width="4"/>
<path d="M330.625 604.832C332.257 607.208 335.185 608.432 338.017 608.432C341.569 608.432 345.505 606.992 345.505 602.816C345.505 599.576 343.105 598.544 340.561 597.992L338.473 597.536C336.553 597.104 334.945 596.768 334.945 595.352C334.945 594.152 336.337 593.456 338.185 593.456C340.273 593.456 341.857 594.368 342.673 595.928L345.337 593.912C343.561 591.56 341.137 590.48 338.209 590.48C335.017 590.48 331.585 592.208 331.585 595.808C331.585 598.952 333.985 599.96 336.721 600.584L338.617 601.016C340.897 601.544 342.145 601.928 342.145 603.272C342.145 604.928 340.081 605.456 338.521 605.456C336.433 605.456 334.561 604.64 333.361 602.864L330.625 604.832ZM347.748 608H350.964V602.24H354.756C358.14 602.24 360.516 600.056 360.516 596.672C360.516 593.36 358.548 590.912 354.54 590.912H347.748V608ZM350.964 593.6H354.036C355.884 593.6 357.156 594.296 357.156 596.672C357.156 598.352 356.172 599.552 354.156 599.552H350.964V593.6ZM362.419 608H375.139V605.024H365.635V600.608H373.795V597.776H365.635V593.888H374.515V590.912H362.419V608ZM377.091 608H389.811V605.024H380.307V600.608H388.467V597.776H380.307V593.888H389.187V590.912H377.091V608ZM391.763 608H398.363C403.451 608 406.163 605.024 406.163 599.456C406.163 594.56 403.667 590.912 397.763 590.912H391.763V608ZM394.979 593.888H397.835C401.339 593.888 402.803 596.096 402.803 599.456C402.803 603.872 401.075 605.024 397.907 605.024H394.979V593.888ZM411.878 600.176H416.03C417.974 600.176 419.174 600.872 419.174 602.792C419.174 604.568 417.998 605.168 416.054 605.168H411.878V600.176ZM411.878 593.456H415.694C417.566 593.456 418.406 594.296 418.406 595.592C418.406 597.224 417.11 597.776 415.694 597.776H411.878V593.456ZM408.662 608H415.934C419.486 608 422.534 607.16 422.534 602.888C422.534 600.848 421.214 598.904 418.862 598.664V598.616C420.734 598.256 421.766 597.032 421.766 595.16C421.766 592.328 419.51 590.912 416.702 590.912H408.662V608ZM432.229 593.456C435.637 593.456 437.053 596.48 437.053 599.456C437.053 602.432 435.637 605.456 432.229 605.456C428.821 605.456 427.405 602.432 427.405 599.456C427.405 596.48 428.821 593.456 432.229 593.456ZM432.229 590.48C427.117 590.48 424.045 594.632 424.045 599.456C424.045 604.28 427.117 608.432 432.229 608.432C437.341 608.432 440.413 604.28 440.413 599.456C440.413 594.632 437.341 590.48 432.229 590.48ZM451.28 601.856H446.528L448.88 594.032H448.928L451.28 601.856ZM441.32 608H444.68L445.664 604.688H452.144L453.128 608H456.488L450.776 590.912H447.032L441.32 608ZM461.309 608H464.525V593.888H469.205V590.912H456.629V593.888H461.309V608ZM343.095 634H346.311V628.24H350.103C353.487 628.24 355.863 626.056 355.863 622.672C355.863 619.36 353.895 616.912 349.887 616.912H343.095V634ZM346.311 619.6H349.383C351.231 619.6 352.503 620.296 352.503 622.672C352.503 624.352 351.519 625.552 349.503 625.552H346.311V619.6ZM357.767 634H360.983V627.712H364.055L367.367 634H371.087L367.271 627.112C368.087 626.8 370.655 625.912 370.655 622.072C370.655 619.072 368.519 616.912 364.895 616.912H357.767V634ZM360.983 619.744H364.007C366.239 619.744 367.295 620.752 367.295 622.312C367.295 623.92 366.119 624.88 364.487 624.88H360.983V619.744ZM380.444 619.456C383.852 619.456 385.268 622.48 385.268 625.456C385.268 628.432 383.852 631.456 380.444 631.456C377.036 631.456 375.62 628.432 375.62 625.456C375.62 622.48 377.036 619.456 380.444 619.456ZM380.444 616.48C375.332 616.48 372.26 620.632 372.26 625.456C372.26 630.28 375.332 634.432 380.444 634.432C385.556 634.432 388.628 630.28 388.628 625.456C388.628 620.632 385.556 616.48 380.444 616.48ZM397.167 616.912H393.951V629.128C393.951 630.928 392.607 631.312 391.527 631.312C390.975 631.312 390.231 631.288 389.847 631.12V634.216C390.351 634.312 391.023 634.432 391.983 634.432C394.143 634.432 397.167 633.52 397.167 630.328V616.912ZM400.447 634H413.167V631.024H403.663V626.608H411.823V623.776H403.663V619.888H412.543V616.912H400.447V634ZM429.543 621.856C428.727 618.28 426.111 616.48 422.679 616.48C417.567 616.48 414.495 620.632 414.495 625.456C414.495 630.28 417.207 634.432 422.679 634.432C426.087 634.432 428.367 632.776 429.735 629.344L426.807 628C426.183 629.992 424.911 631.456 422.679 631.456C419.271 631.456 417.855 628.432 417.855 625.456C417.855 622.48 419.271 619.456 422.679 619.456C424.623 619.456 426.183 620.752 426.447 622.648L429.543 621.856ZM434.836 634H438.052V619.888H442.732V616.912H430.156V619.888H434.836V634ZM442.902 630.832C444.534 633.208 447.462 634.432 450.294 634.432C453.846 634.432 457.782 632.992 457.782 628.816C457.782 625.576 455.382 624.544 452.838 623.992L450.75 623.536C448.83 623.104 447.222 622.768 447.222 621.352C447.222 620.152 448.614 619.456 450.462 619.456C452.55 619.456 454.134 620.368 454.95 621.928L457.614 619.912C455.838 617.56 453.414 616.48 450.486 616.48C447.294 616.48 443.862 618.208 443.862 621.808C443.862 624.952 446.262 625.96 448.998 626.584L450.894 627.016C453.174 627.544 454.422 627.928 454.422 629.272C454.422 630.928 452.358 631.456 450.798 631.456C448.71 631.456 446.838 630.64 445.638 628.864L442.902 630.832Z" fill="black"/>
<path d="M253.75 374.02C266.806 374.02 275.476 368.614 280.882 363.004L271.6 351.274C268.846 354.232 263.338 358.72 254.566 358.72C242.938 358.72 233.554 349.54 233.554 337.3C233.554 325.162 242.836 315.778 254.056 315.778C261.808 315.778 267.112 319.45 270.682 323.734L281.392 312.412C275.986 305.68 266.704 300.58 254.668 300.58C249.772 300.58 244.774 301.6 242.02 303.028L231.412 313.84C223.456 322.102 218.56 330.466 218.56 341.176C218.56 358.618 232.84 374.02 253.75 374.02ZM320.674 374.02C326.692 374.02 332.302 373.102 335.77 371.47L344.644 362.596C354.436 352.702 357.7 343.726 357.7 334.138C357.7 313.228 339.85 300.58 321.898 300.58C314.452 300.58 309.862 302.11 307.414 303.436L298.846 312.106C289.972 321.082 285.79 330.262 285.79 339.85C285.79 361.474 304.15 374.02 320.674 374.02ZM322.918 359.536C311.086 359.536 300.886 350.356 300.886 335.974C300.886 322.816 309.25 315.064 319.96 315.064C331.69 315.064 342.706 324.04 342.706 338.524C342.706 351.682 333.934 359.536 322.918 359.536ZM370.06 373H385.36V344.95L405.556 373H426.364L400.864 345.154H409.636L415.042 339.748C422.08 332.71 424.324 327.304 424.324 321.184C424.324 310.474 414.94 301.6 401.68 301.6H370.06V373ZM385.36 334.036V315.37H398.926C404.944 315.37 409.228 319.144 409.228 324.55C409.228 329.752 404.944 334.036 398.926 334.036H385.36ZM437.396 373H486.356V358.516H452.696V344.032H482.786V330.364H452.696V316.084H486.356V301.6H437.396V373ZM585.327 373L569.721 355.456L579.717 340.87L568.599 333.322L560.541 345.154L554.625 338.524L556.257 337.504C563.601 333.118 567.681 326.692 567.681 319.246C567.681 308.944 560.133 300.58 547.485 300.58C544.323 300.58 542.079 301.09 540.039 301.804L532.083 309.964C527.289 314.962 525.963 318.532 525.963 322.204C525.963 326.488 527.901 329.956 530.859 333.22L533.001 335.566C526.371 340.156 521.067 346.174 521.067 355.15C521.067 365.962 529.329 374.02 542.385 374.02C549.729 374.02 555.951 371.47 561.153 366.574L566.967 373L585.327 373ZM546.873 313.738C550.545 313.738 553.095 315.88 553.095 319.246C553.095 322 551.361 324.448 547.587 326.692L545.343 328.018L544.017 326.59C541.875 324.244 540.447 321.898 540.447 319.246C540.447 315.982 543.099 313.738 546.873 313.738ZM543.099 360.964C538.611 360.964 535.551 358.312 535.551 354.538C535.551 351.07 538.305 348.52 542.385 345.97L552.381 356.884C549.729 359.536 546.465 360.964 543.099 360.964ZM270.262 478.02C273.424 478.02 276.484 477.51 278.116 476.796L284.44 470.472C290.662 464.352 294.436 458.844 294.436 452.01C294.436 443.34 288.826 438.036 278.218 434.466L270.262 431.814C265.162 430.08 263.428 427.836 263.428 424.674C263.428 421.308 265.978 418.656 270.364 418.656C275.056 418.656 278.218 421.104 278.32 427.122H293.416C293.722 410.904 281.278 404.58 271.282 404.58C267.406 404.58 264.856 405.294 263.428 405.804L254.554 414.882C250.168 419.268 248.128 424.062 248.128 429.06C248.128 436.506 252.514 442.32 263.326 445.992L271.69 448.848C277.3 450.786 279.136 453.54 279.136 456.804C279.136 460.17 276.688 463.944 270.874 463.944C264.958 463.944 262.306 459.864 262.306 453.948H247.006C246.598 469.962 257.206 478.02 270.262 478.02ZM307.356 477H322.656V447.828H354.276V477H369.576V405.6H354.276V433.242H322.656V405.6H307.356V477ZM386.147 477H435.107V462.516H401.447V448.032H431.537V434.364H401.447V420.084H435.107V405.6H386.147V477ZM448.901 477H496.841V462.516H464.201V405.6H448.901V477ZM506.873 477H554.813V462.516H522.173V405.6H506.873V477Z" fill="black"/>
<path d="M321.268 244H342.418V237.8H327.968V208.4H321.268V244ZM363.718 231.2H353.818L358.718 214.9H358.818L363.718 231.2ZM342.968 244H349.968L352.018 237.1H365.518L367.568 244H374.568L362.668 208.4H354.868L342.968 244ZM378.112 244H381.012V245.55C381.012 247.15 379.862 247.8 378.462 247.95V251C381.762 250.55 384.812 249.05 384.812 245.35V237.1H378.112V244ZM435.644 218.7C433.944 211.25 428.494 207.5 421.344 207.5C410.694 207.5 404.294 216.15 404.294 226.2C404.294 236.25 409.944 244.9 421.344 244.9C428.444 244.9 433.194 241.45 436.044 234.3L429.944 231.5C428.644 235.65 425.994 238.7 421.344 238.7C414.244 238.7 411.294 232.4 411.294 226.2C411.294 220 414.244 213.7 421.344 213.7C425.394 213.7 428.644 216.4 429.194 220.35L435.644 218.7ZM457.272 231.2H447.372L452.272 214.9H452.372L457.272 231.2ZM436.522 244H443.522L445.572 237.1H459.072L461.122 244H468.122L456.222 208.4H448.422L436.522 244ZM471.666 244H478.366V237.1H471.666V244Z" fill="black"/>
</svg>
