<svg width="501" height="594" viewBox="0 0 501 594" fill="none" xmlns="http://www.w3.org/2000/svg">
<path d="M499 297C499 460.257 387.437 592 250.5 592C113.563 592 2 460.257 2 297C2 133.743 113.563 2 250.5 2C387.437 2 499 133.743 499 297Z" stroke="black" stroke-width="4"/>
<path d="M180.625 514.832C182.257 517.208 185.185 518.432 188.017 518.432C191.569 518.432 195.505 516.992 195.505 512.816C195.505 509.576 193.105 508.544 190.561 507.992L188.473 507.536C186.553 507.104 184.945 506.768 184.945 505.352C184.945 504.152 186.337 503.456 188.185 503.456C190.273 503.456 191.857 504.368 192.673 505.928L195.337 503.912C193.561 501.56 191.137 500.48 188.209 500.48C185.017 500.48 181.585 502.208 181.585 505.808C181.585 508.952 183.985 509.96 186.721 510.584L188.617 511.016C190.897 511.544 192.145 511.928 192.145 513.272C192.145 514.928 190.081 515.456 188.521 515.456C186.433 515.456 184.561 514.64 183.361 512.864L180.625 514.832ZM197.748 518H200.964V512.24H204.756C208.14 512.24 210.516 510.056 210.516 506.672C210.516 503.36 208.548 500.912 204.54 500.912H197.748V518ZM200.964 503.6H204.036C205.884 503.6 207.156 504.296 207.156 506.672C207.156 508.352 206.172 509.552 204.156 509.552H200.964V503.6ZM212.419 518H225.139V515.024H215.635V510.608H223.795V507.776H215.635V503.888H224.515V500.912H212.419V518ZM227.091 518H239.811V515.024H230.307V510.608H238.467V507.776H230.307V503.888H239.187V500.912H227.091V518ZM241.763 518H248.363C253.451 518 256.163 515.024 256.163 509.456C256.163 504.56 253.667 500.912 247.763 500.912H241.763V518ZM244.979 503.888H247.835C251.339 503.888 252.803 506.096 252.803 509.456C252.803 513.872 251.075 515.024 247.907 515.024H244.979V503.888ZM261.878 510.176H266.03C267.974 510.176 269.174 510.872 269.174 512.792C269.174 514.568 267.998 515.168 266.054 515.168H261.878V510.176ZM261.878 503.456H265.694C267.566 503.456 268.406 504.296 268.406 505.592C268.406 507.224 267.11 507.776 265.694 507.776H261.878V503.456ZM258.662 518H265.934C269.486 518 272.534 517.16 272.534 512.888C272.534 510.848 271.214 508.904 268.862 508.664V508.616C270.734 508.256 271.766 507.032 271.766 505.16C271.766 502.328 269.51 500.912 266.702 500.912H258.662V518ZM282.229 503.456C285.637 503.456 287.053 506.48 287.053 509.456C287.053 512.432 285.637 515.456 282.229 515.456C278.821 515.456 277.405 512.432 277.405 509.456C277.405 506.48 278.821 503.456 282.229 503.456ZM282.229 500.48C277.117 500.48 274.045 504.632 274.045 509.456C274.045 514.28 277.117 518.432 282.229 518.432C287.341 518.432 290.413 514.28 290.413 509.456C290.413 504.632 287.341 500.48 282.229 500.48ZM301.28 511.856H296.528L298.88 504.032H298.928L301.28 511.856ZM291.32 518H294.68L295.664 514.688H302.144L303.128 518H306.488L300.776 500.912H297.032L291.32 518ZM311.309 518H314.525V503.888H319.205V500.912H306.629V503.888H311.309V518ZM193.095 544H196.311V538.24H200.103C203.487 538.24 205.863 536.056 205.863 532.672C205.863 529.36 203.895 526.912 199.887 526.912H193.095V544ZM196.311 529.6H199.383C201.231 529.6 202.503 530.296 202.503 532.672C202.503 534.352 201.519 535.552 199.503 535.552H196.311V529.6ZM207.767 544H210.983V537.712H214.055L217.367 544H221.087L217.271 537.112C218.087 536.8 220.655 535.912 220.655 532.072C220.655 529.072 218.519 526.912 214.895 526.912H207.767V544ZM210.983 529.744H214.007C216.239 529.744 217.295 530.752 217.295 532.312C217.295 533.92 216.119 534.88 214.487 534.88H210.983V529.744ZM230.444 529.456C233.852 529.456 235.268 532.48 235.268 535.456C235.268 538.432 233.852 541.456 230.444 541.456C227.036 541.456 225.62 538.432 225.62 535.456C225.62 532.48 227.036 529.456 230.444 529.456ZM230.444 526.48C225.332 526.48 222.26 530.632 222.26 535.456C222.26 540.28 225.332 544.432 230.444 544.432C235.556 544.432 238.628 540.28 238.628 535.456C238.628 530.632 235.556 526.48 230.444 526.48ZM247.167 526.912H243.951V539.128C243.951 540.928 242.607 541.312 241.527 541.312C240.975 541.312 240.231 541.288 239.847 541.12V544.216C240.351 544.312 241.023 544.432 241.983 544.432C244.143 544.432 247.167 543.52 247.167 540.328V526.912ZM250.447 544H263.167V541.024H253.663V536.608H261.823V533.776H253.663V529.888H262.543V526.912H250.447V544ZM279.543 531.856C278.727 528.28 276.111 526.48 272.679 526.48C267.567 526.48 264.495 530.632 264.495 535.456C264.495 540.28 267.207 544.432 272.679 544.432C276.087 544.432 278.367 542.776 279.735 539.344L276.807 538C276.183 539.992 274.911 541.456 272.679 541.456C269.271 541.456 267.855 538.432 267.855 535.456C267.855 532.48 269.271 529.456 272.679 529.456C274.623 529.456 276.183 530.752 276.447 532.648L279.543 531.856ZM284.836 544H288.052V529.888H292.732V526.912H280.156V529.888H284.836V544ZM292.902 540.832C294.534 543.208 297.462 544.432 300.294 544.432C303.846 544.432 307.782 542.992 307.782 538.816C307.782 535.576 305.382 534.544 302.838 533.992L300.75 533.536C298.83 533.104 297.222 532.768 297.222 531.352C297.222 530.152 298.614 529.456 300.462 529.456C302.55 529.456 304.134 530.368 304.95 531.928L307.614 529.912C305.838 527.56 303.414 526.48 300.486 526.48C297.294 526.48 293.862 528.208 293.862 531.808C293.862 534.952 296.262 535.96 298.998 536.584L300.894 537.016C303.174 537.544 304.422 537.928 304.422 539.272C304.422 540.928 302.358 541.456 300.798 541.456C298.71 541.456 296.838 540.64 295.638 538.864L292.902 540.832Z" fill="black"/>
<path d="M103.75 284.02C116.806 284.02 125.476 278.614 130.882 273.004L121.6 261.274C118.846 264.232 113.338 268.72 104.566 268.72C92.9384 268.72 83.5544 259.54 83.5544 247.3C83.5544 235.162 92.8364 225.778 104.056 225.778C111.808 225.778 117.112 229.45 120.682 233.734L131.392 222.412C125.986 215.68 116.704 210.58 104.668 210.58C99.7724 210.58 94.7744 211.6 92.0204 213.028L81.4124 223.84C73.4564 232.102 68.5604 240.466 68.5604 251.176C68.5604 268.618 82.8404 284.02 103.75 284.02ZM170.674 284.02C176.692 284.02 182.302 283.102 185.77 281.47L194.644 272.596C204.436 262.702 207.7 253.726 207.7 244.138C207.7 223.228 189.85 210.58 171.898 210.58C164.452 210.58 159.862 212.11 157.414 213.436L148.846 222.106C139.972 231.082 135.79 240.262 135.79 249.85C135.79 271.474 154.15 284.02 170.674 284.02ZM172.918 269.536C161.086 269.536 150.886 260.356 150.886 245.974C150.886 232.816 159.25 225.064 169.96 225.064C181.69 225.064 192.706 234.04 192.706 248.524C192.706 261.682 183.934 269.536 172.918 269.536ZM220.06 283H235.36V254.95L255.556 283H276.364L250.864 255.154H259.636L265.042 249.748C272.08 242.71 274.324 237.304 274.324 231.184C274.324 220.474 264.94 211.6 251.68 211.6L220.06 211.6V283ZM235.36 244.036V225.37H248.926C254.944 225.37 259.228 229.144 259.228 234.55C259.228 239.752 254.944 244.036 248.926 244.036H235.36ZM287.396 283H336.356V268.516H302.696V254.032H332.786V240.364H302.696V226.084H336.356V211.6H287.396V283ZM435.327 283L419.721 265.456L429.717 250.87L418.599 243.322L410.541 255.154L404.625 248.524L406.257 247.504C413.601 243.118 417.681 236.692 417.681 229.246C417.681 218.944 410.133 210.58 397.485 210.58C394.323 210.58 392.079 211.09 390.039 211.804L382.083 219.964C377.289 224.962 375.963 228.532 375.963 232.204C375.963 236.488 377.901 239.956 380.859 243.22L383.001 245.566C376.371 250.156 371.067 256.174 371.067 265.15C371.067 275.962 379.329 284.02 392.385 284.02C399.729 284.02 405.951 281.47 411.153 276.574L416.967 283L435.327 283ZM396.873 223.738C400.545 223.738 403.095 225.88 403.095 229.246C403.095 232 401.361 234.448 397.587 236.692L395.343 238.018L394.017 236.59C391.875 234.244 390.447 231.898 390.447 229.246C390.447 225.982 393.099 223.738 396.873 223.738ZM393.099 270.964C388.611 270.964 385.551 268.312 385.551 264.538C385.551 261.07 388.305 258.52 392.385 255.97L402.381 266.884C399.729 269.536 396.465 270.964 393.099 270.964ZM120.262 388.02C123.424 388.02 126.484 387.51 128.116 386.796L134.44 380.472C140.662 374.352 144.436 368.844 144.436 362.01C144.436 353.34 138.826 348.036 128.218 344.466L120.262 341.814C115.162 340.08 113.428 337.836 113.428 334.674C113.428 331.308 115.978 328.656 120.364 328.656C125.056 328.656 128.218 331.104 128.32 337.122H143.416C143.722 320.904 131.278 314.58 121.282 314.58C117.406 314.58 114.856 315.294 113.428 315.804L104.554 324.882C100.168 329.268 98.128 334.062 98.128 339.06C98.128 346.506 102.514 352.32 113.326 355.992L121.69 358.848C127.3 360.786 129.136 363.54 129.136 366.804C129.136 370.17 126.688 373.944 120.874 373.944C114.958 373.944 112.306 369.864 112.306 363.948H97.006C96.598 379.962 107.206 388.02 120.262 388.02ZM157.356 387H172.656V357.828H204.276V387H219.576V315.6H204.276V343.242H172.656V315.6H157.356V387ZM236.147 387H285.107V372.516H251.447V358.032H281.537V344.364H251.447V330.084H285.107V315.6H236.147V387ZM298.901 387H346.841V372.516H314.201V315.6H298.901V387ZM356.873 387H404.813V372.516H372.173V315.6H356.873V387Z" fill="black"/>
<path d="M171.268 154H192.418V147.8H177.968V118.4H171.268V154ZM213.718 141.2H203.818L208.718 124.9H208.818L213.718 141.2ZM192.968 154H199.968L202.018 147.1H215.518L217.568 154H224.568L212.668 118.4H204.868L192.968 154ZM228.112 154H231.012V155.55C231.012 157.15 229.862 157.8 228.462 157.95V161C231.762 160.55 234.812 159.05 234.812 155.35V147.1H228.112V154ZM285.644 128.7C283.944 121.25 278.494 117.5 271.344 117.5C260.694 117.5 254.294 126.15 254.294 136.2C254.294 146.25 259.944 154.9 271.344 154.9C278.444 154.9 283.194 151.45 286.044 144.3L279.944 141.5C278.644 145.65 275.994 148.7 271.344 148.7C264.244 148.7 261.294 142.4 261.294 136.2C261.294 130 264.244 123.7 271.344 123.7C275.394 123.7 278.644 126.4 279.194 130.35L285.644 128.7ZM307.272 141.2H297.372L302.272 124.9H302.372L307.272 141.2ZM286.522 154H293.522L295.572 147.1H309.072L311.122 154H318.122L306.222 118.4H298.422L286.522 154ZM321.666 154H328.366V147.1H321.666V154Z" fill="black"/>
</svg>
