<svg width="716" height="337" viewBox="0 0 716 337" fill="none" xmlns="http://www.w3.org/2000/svg">
<rect x="2" y="2" width="712" height="333" rx="18" stroke="black" stroke-width="4"/>
<path d="M265.969 66.4C269.369 71.35 275.469 73.9 281.369 73.9C288.769 73.9 296.969 70.9 296.969 62.2C296.969 55.45 291.969 53.3 286.669 52.15L282.319 51.2C278.319 50.3 274.969 49.6 274.969 46.65C274.969 44.15 277.869 42.7 281.719 42.7C286.069 42.7 289.369 44.6 291.069 47.85L296.619 43.65C292.919 38.75 287.869 36.5 281.769 36.5C275.119 36.5 267.969 40.1 267.969 47.6C267.969 54.15 272.969 56.25 278.669 57.55L282.619 58.45C287.369 59.55 289.969 60.35 289.969 63.15C289.969 66.6 285.669 67.7 282.419 67.7C278.069 67.7 274.169 66 271.669 62.3L265.969 66.4ZM301.641 73H308.341V61H316.241C323.291 61 328.241 56.45 328.241 49.4C328.241 42.5 324.141 37.4 315.791 37.4H301.641V73ZM308.341 43H314.741C318.591 43 321.241 44.45 321.241 49.4C321.241 52.9 319.191 55.4 314.991 55.4H308.341V43ZM332.207 73H358.707V66.8H338.907V57.6H355.907V51.7H338.907V43.6H357.407V37.4H332.207V73ZM362.773 73H389.273V66.8H369.473V57.6H386.473V51.7H369.473V43.6H387.973V37.4H362.773V73ZM393.34 73H407.09C417.69 73 423.34 66.8 423.34 55.2C423.34 45 418.14 37.4 405.84 37.4H393.34V73ZM400.04 43.6H405.99C413.29 43.6 416.34 48.2 416.34 55.2C416.34 64.4 412.74 66.8 406.14 66.8H400.04V43.6ZM435.245 56.7H443.895C447.945 56.7 450.445 58.15 450.445 62.15C450.445 65.85 447.995 67.1 443.945 67.1H435.245V56.7ZM435.245 42.7H443.195C447.095 42.7 448.845 44.45 448.845 47.15C448.845 50.55 446.145 51.7 443.195 51.7H435.245V42.7ZM428.545 73H443.695C451.095 73 457.445 71.25 457.445 62.35C457.445 58.1 454.695 54.05 449.795 53.55V53.45C453.695 52.7 455.845 50.15 455.845 46.25C455.845 40.35 451.145 37.4 445.295 37.4H428.545V73ZM477.645 42.7C484.745 42.7 487.695 49 487.695 55.2C487.695 61.4 484.745 67.7 477.645 67.7C470.545 67.7 467.595 61.4 467.595 55.2C467.595 49 470.545 42.7 477.645 42.7ZM477.645 36.5C466.995 36.5 460.595 45.15 460.595 55.2C460.595 65.25 466.995 73.9 477.645 73.9C488.295 73.9 494.695 65.25 494.695 55.2C494.695 45.15 488.295 36.5 477.645 36.5ZM517.333 60.2H507.433L512.333 43.9H512.433L517.333 60.2ZM496.583 73H503.583L505.633 66.1H519.133L521.183 73H528.183L516.283 37.4H508.483L496.583 73ZM538.227 73H544.927V43.6H554.677V37.4H528.477V43.6H538.227V73ZM291.948 125H298.648V113H306.548C313.598 113 318.548 108.45 318.548 101.4C318.548 94.5 314.448 89.4 306.098 89.4H291.948V125ZM298.648 95H305.048C308.898 95 311.548 96.45 311.548 101.4C311.548 104.9 309.498 107.4 305.298 107.4H298.648V95ZM322.515 125H329.215V111.9H335.615L342.515 125H350.265L342.315 110.65C344.015 110 349.365 108.15 349.365 100.15C349.365 93.9 344.915 89.4 337.365 89.4H322.515V125ZM329.215 95.3H335.515C340.165 95.3 342.365 97.4 342.365 100.65C342.365 104 339.915 106 336.515 106H329.215V95.3ZM369.759 94.7C376.859 94.7 379.809 101 379.809 107.2C379.809 113.4 376.859 119.7 369.759 119.7C362.659 119.7 359.709 113.4 359.709 107.2C359.709 101 362.659 94.7 369.759 94.7ZM369.759 88.5C359.109 88.5 352.709 97.15 352.709 107.2C352.709 117.25 359.109 125.9 369.759 125.9C380.409 125.9 386.809 117.25 386.809 107.2C386.809 97.15 380.409 88.5 369.759 88.5ZM404.597 89.4H397.897V114.85C397.897 118.6 395.097 119.4 392.847 119.4C391.697 119.4 390.147 119.35 389.347 119V125.45C390.397 125.65 391.797 125.9 393.797 125.9C398.297 125.9 404.597 124 404.597 117.35V89.4ZM411.431 125H437.931V118.8H418.131V109.6H435.131V103.7H418.131V95.6H436.631V89.4H411.431V125ZM472.047 99.7C470.347 92.25 464.897 88.5 457.747 88.5C447.097 88.5 440.697 97.15 440.697 107.2C440.697 117.25 446.347 125.9 457.747 125.9C464.847 125.9 469.597 122.45 472.447 115.3L466.347 112.5C465.047 116.65 462.397 119.7 457.747 119.7C450.647 119.7 447.697 113.4 447.697 107.2C447.697 101 450.647 94.7 457.747 94.7C461.797 94.7 465.047 97.4 465.597 101.35L472.047 99.7ZM483.076 125H489.776V95.6H499.526V89.4H473.326V95.6H483.076V125ZM499.88 118.4C503.28 123.35 509.38 125.9 515.28 125.9C522.68 125.9 530.88 122.9 530.88 114.2C530.88 107.45 525.88 105.3 520.58 104.15L516.23 103.2C512.23 102.3 508.88 101.6 508.88 98.65C508.88 96.15 511.78 94.7 515.63 94.7C519.98 94.7 523.28 96.6 524.98 99.85L530.53 95.65C526.83 90.75 521.78 88.5 515.68 88.5C509.03 88.5 501.88 92.1 501.88 99.6C501.88 106.15 506.88 108.25 512.58 109.55L516.53 110.45C521.28 111.55 523.88 112.35 523.88 115.15C523.88 118.6 519.58 119.7 516.33 119.7C511.98 119.7 508.08 118 505.58 114.3L499.88 118.4Z" fill="black"/>
<path d="M134.571 307H149.871V279.868H179.451V266.098H149.871V250.084H183.531V235.6H134.571V307ZM237.964 307H254.284L230.212 235.6H208.078L184.108 307H199.918L205.12 291.19H232.864L237.964 307ZM209.608 277.216L218.992 248.554L228.274 277.216H209.608ZM293.083 308.02C306.139 308.02 314.809 302.614 320.215 297.004L310.933 285.274C308.179 288.232 302.671 292.72 293.899 292.72C282.271 292.72 272.887 283.54 272.887 271.3C272.887 259.162 282.169 249.778 293.389 249.778C301.141 249.778 306.445 253.45 310.015 257.734L320.725 246.412C315.319 239.68 306.037 234.58 294.001 234.58C289.105 234.58 284.107 235.6 281.353 237.028L270.745 247.84C262.789 256.102 257.893 264.466 257.893 275.176C257.893 292.618 272.173 308.02 293.083 308.02ZM377.417 307H393.737L369.665 235.6H347.531L323.561 307H339.371L344.573 291.19H372.317L377.417 307ZM349.061 277.216L358.445 248.554L367.727 277.216H349.061ZM403.117 307L441.163 307L452.077 295.474C459.319 287.62 466.561 278.95 466.561 266.914C466.561 249.472 451.873 235.6 432.187 235.6H403.117V307ZM418.417 292.516V250.084H429.943C442.387 250.288 450.751 258.958 450.751 270.994C450.751 283.336 442.387 292.516 430.861 292.516L418.417 292.516ZM478.821 307H527.781V292.516H494.121V278.032H524.211V264.364H494.121V250.084H527.781V235.6L478.821 235.6V307ZM560.86 308.02C564.022 308.02 567.082 307.51 568.714 306.796L575.038 300.472C581.26 294.352 585.034 288.844 585.034 282.01C585.034 273.34 579.424 268.036 568.816 264.466L560.86 261.814C555.76 260.08 554.026 257.836 554.026 254.674C554.026 251.308 556.576 248.656 560.962 248.656C565.654 248.656 568.816 251.104 568.918 257.122H584.014C584.32 240.904 571.876 234.58 561.88 234.58C558.004 234.58 555.454 235.294 554.026 235.804L545.152 244.882C540.766 249.268 538.726 254.062 538.726 259.06C538.726 266.506 543.112 272.32 553.924 275.992L562.288 278.848C567.898 280.786 569.734 283.54 569.734 286.804C569.734 290.17 567.286 293.944 561.472 293.944C555.556 293.944 552.904 289.864 552.904 283.948H537.604C537.196 299.962 547.804 308.02 560.86 308.02Z" fill="black"/>
<path d="M141.624 150.52H144.84V144.76H148.632C152.016 144.76 154.392 142.576 154.392 139.192C154.392 135.88 152.424 133.432 148.416 133.432H141.624V150.52ZM144.84 136.12H147.912C149.76 136.12 151.032 136.816 151.032 139.192C151.032 140.872 150.048 142.072 148.032 142.072H144.84V136.12Z" fill="black"/>
<path d="M156.296 150.52H159.512V144.232H162.584L165.896 150.52H169.616L165.8 143.632C166.616 143.32 169.184 142.432 169.184 138.592C169.184 135.592 167.048 133.432 163.424 133.432H156.296V150.52ZM159.512 136.264H162.536C164.768 136.264 165.824 137.272 165.824 138.832C165.824 140.44 164.648 141.4 163.016 141.4H159.512V136.264Z" fill="black"/>
<path d="M178.973 135.976C182.381 135.976 183.797 139 183.797 141.976C183.797 144.952 182.381 147.976 178.973 147.976C175.565 147.976 174.149 144.952 174.149 141.976C174.149 139 175.565 135.976 178.973 135.976ZM178.973 133C173.861 133 170.789 137.152 170.789 141.976C170.789 146.8 173.861 150.952 178.973 150.952C184.085 150.952 187.157 146.8 187.157 141.976C187.157 137.152 184.085 133 178.973 133Z" fill="black"/>
<path d="M189.647 150.52H196.247C201.335 150.52 204.047 147.544 204.047 141.976C204.047 137.08 201.551 133.432 195.647 133.432H189.647V150.52ZM192.863 136.408H195.719C199.223 136.408 200.687 138.616 200.687 141.976C200.687 146.392 198.959 147.544 195.791 147.544H192.863V136.408Z" fill="black"/>
<path d="M220.322 133.432H217.106V144.424C217.106 146.512 216.218 147.832 213.434 147.832C210.65 147.832 209.762 146.512 209.762 144.424V133.432H206.546V145.264C206.546 148.744 209.306 150.952 213.434 150.952C217.562 150.952 220.322 148.744 220.322 145.264V133.432Z" fill="black"/>
<path d="M237.868 138.376C237.052 134.8 234.436 133 231.004 133C225.892 133 222.82 137.152 222.82 141.976C222.82 146.8 225.532 150.952 231.004 150.952C234.412 150.952 236.692 149.296 238.06 145.864L235.132 144.52C234.508 146.512 233.236 147.976 231.004 147.976C227.596 147.976 226.18 144.952 226.18 141.976C226.18 139 227.596 135.976 231.004 135.976C232.948 135.976 234.508 137.272 234.772 139.168L237.868 138.376Z" fill="black"/>
<path d="M243.162 150.52H246.378V136.408H251.058V133.432H238.482V136.408H243.162V150.52Z" fill="black"/>
<path d="M149.184 161.976C152.592 161.976 154.008 165 154.008 167.976C154.008 170.952 152.592 173.976 149.184 173.976C145.776 173.976 144.36 170.952 144.36 167.976C144.36 165 145.776 161.976 149.184 161.976ZM149.184 159C144.072 159 141 163.152 141 167.976C141 172.8 144.072 176.952 149.184 176.952C154.296 176.952 157.368 172.8 157.368 167.976C157.368 163.152 154.296 159 149.184 159Z" fill="black"/>
<path d="M159.858 176.52H163.074V169.32H170.082V166.488H163.074V162.408H171.09V159.432H159.858V176.52Z" fill="black"/>
<path d="M193.205 159.432H189.989V170.424C189.989 172.512 189.101 173.832 186.317 173.832C183.533 173.832 182.645 172.512 182.645 170.424V159.432H179.429V171.264C179.429 174.744 182.189 176.952 186.317 176.952C190.445 176.952 193.205 174.744 193.205 171.264V159.432Z" fill="black"/>
<path d="M194.767 173.352C196.399 175.728 199.327 176.952 202.159 176.952C205.711 176.952 209.647 175.512 209.647 171.336C209.647 168.096 207.247 167.064 204.703 166.512L202.615 166.056C200.695 165.624 199.087 165.288 199.087 163.872C199.087 162.672 200.479 161.976 202.327 161.976C204.415 161.976 205.999 162.888 206.815 164.448L209.479 162.432C207.703 160.08 205.279 159 202.351 159C199.159 159 195.727 160.728 195.727 164.328C195.727 167.472 198.127 168.48 200.863 169.104L202.759 169.536C205.039 170.064 206.287 170.448 206.287 171.792C206.287 173.448 204.223 173.976 202.663 173.976C200.575 173.976 198.703 173.16 197.503 171.384L194.767 173.352Z" fill="black"/>
<path d="M220.266 170.376H215.514L217.866 162.552H217.914L220.266 170.376ZM210.306 176.52H213.666L214.65 173.208H221.13L222.114 176.52H225.474L219.762 159.432H216.018L210.306 176.52Z" fill="black"/>
</svg>
