<svg width="720" height="342" viewBox="0 0 720 342" fill="none" xmlns="http://www.w3.org/2000/svg">
<rect x="2" y="2" width="716" height="338" rx="18" stroke="black" stroke-width="4"/>
<path d="M267.969 56.3436C271.369 61.3671 277.469 63.9549 283.369 63.9549C290.769 63.9549 298.969 60.9104 298.969 52.0813C298.969 45.2312 293.969 43.0493 288.669 41.8822L284.319 40.9181C280.319 40.0047 276.969 39.2944 276.969 36.3006C276.969 33.7635 279.869 32.292 283.719 32.292C288.069 32.292 291.369 34.2202 293.069 37.5184L298.619 33.2561C294.919 28.2834 289.869 26 283.769 26C277.119 26 269.969 29.6534 269.969 37.2647C269.969 43.9119 274.969 46.043 280.669 47.3623L284.619 48.2757C289.369 49.392 291.969 50.2039 291.969 53.0454C291.969 56.5466 287.669 57.6629 284.419 57.6629C280.069 57.6629 276.169 55.9377 273.669 52.1828L267.969 56.3436Z" fill="black"/>
<path d="M303.641 63.0415H310.341V50.8635H318.241C325.291 50.8635 330.241 46.246 330.241 39.0914C330.241 32.089 326.141 26.9134 317.791 26.9134H303.641V63.0415ZM310.341 32.5964H316.741C320.591 32.5964 323.241 34.068 323.241 39.0914C323.241 42.6433 321.191 45.1804 316.991 45.1804H310.341V32.5964Z" fill="black"/>
<path d="M334.207 63.0415H360.707V56.7496H340.907V47.4131H357.907V41.4255H340.907V33.2053H359.407V26.9134H334.207V63.0415Z" fill="black"/>
<path d="M364.773 63.0415H391.273V56.7496H371.473V47.4131H388.473V41.4255H371.473V33.2053H389.973V26.9134H364.773V63.0415Z" fill="black"/>
<path d="M395.34 63.0415H409.09C419.69 63.0415 425.34 56.7496 425.34 44.9774C425.34 34.6261 420.14 26.9134 407.84 26.9134H395.34V63.0415ZM402.04 33.2053H407.99C415.29 33.2053 418.34 37.8736 418.34 44.9774C418.34 54.3139 414.74 56.7496 408.14 56.7496H402.04V33.2053Z" fill="black"/>
<path d="M437.245 46.4997H445.895C449.945 46.4997 452.445 47.9712 452.445 52.0306C452.445 55.7855 449.995 57.054 445.945 57.054H437.245V46.4997ZM437.245 32.292H445.195C449.095 32.292 450.845 34.068 450.845 36.808C450.845 40.2585 448.145 41.4255 445.195 41.4255H437.245V32.292ZM430.545 63.0415H445.695C453.095 63.0415 459.445 61.2656 459.445 52.2335C459.445 47.9205 456.695 43.8104 451.795 43.303V43.2015C455.695 42.4404 457.845 39.8525 457.845 35.8947C457.845 29.9071 453.145 26.9134 447.295 26.9134H430.545V63.0415Z" fill="black"/>
<path d="M479.645 32.292C486.745 32.292 489.695 38.6855 489.695 44.9774C489.695 51.2694 486.745 57.6629 479.645 57.6629C472.545 57.6629 469.595 51.2694 469.595 44.9774C469.595 38.6855 472.545 32.292 479.645 32.292ZM479.645 26C468.995 26 462.595 34.7783 462.595 44.9774C462.595 55.1766 468.995 63.9549 479.645 63.9549C490.295 63.9549 496.695 55.1766 496.695 44.9774C496.695 34.7783 490.295 26 479.645 26Z" fill="black"/>
<path d="M519.333 50.0516H509.433L514.333 33.5098H514.433L519.333 50.0516ZM498.583 63.0415H505.583L507.633 56.0392H521.133L523.183 63.0415H530.183L518.283 26.9134H510.483L498.583 63.0415Z" fill="black"/>
<path d="M540.227 63.0415H546.927V33.2053H556.677V26.9134H530.477V33.2053H540.227V63.0415Z" fill="black"/>
<path d="M293.948 115.813H300.648V103.635H308.548C315.598 103.635 320.548 99.0175 320.548 91.8629C320.548 84.8605 316.448 79.6849 308.098 79.6849H293.948V115.813ZM300.648 85.368H307.048C310.898 85.368 313.548 86.8395 313.548 91.8629C313.548 95.4148 311.498 97.9519 307.298 97.9519H300.648V85.368Z" fill="black"/>
<path d="M324.515 115.813H331.215V102.519H337.615L344.515 115.813H352.265L344.315 101.25C346.015 100.591 351.365 98.7131 351.365 90.5944C351.365 84.2516 346.915 79.6849 339.365 79.6849H324.515V115.813ZM331.215 85.6724H337.515C342.165 85.6724 344.365 87.8036 344.365 91.1018C344.365 94.5015 341.915 96.5312 338.515 96.5312H331.215V85.6724Z" fill="black"/>
<path d="M371.759 85.0635C378.859 85.0635 381.809 91.457 381.809 97.749C381.809 104.041 378.859 110.434 371.759 110.434C364.659 110.434 361.709 104.041 361.709 97.749C361.709 91.457 364.659 85.0635 371.759 85.0635ZM371.759 78.7715C361.109 78.7715 354.709 87.5499 354.709 97.749C354.709 107.948 361.109 116.726 371.759 116.726C382.409 116.726 388.809 107.948 388.809 97.749C388.809 87.5499 382.409 78.7715 371.759 78.7715Z" fill="black"/>
<path d="M406.597 79.6849H399.897V105.512C399.897 109.318 397.097 110.13 394.847 110.13C393.697 110.13 392.147 110.079 391.347 109.724V116.27C392.397 116.473 393.797 116.726 395.797 116.726C400.297 116.726 406.597 114.798 406.597 108.05V79.6849Z" fill="black"/>
<path d="M413.431 115.813H439.931V109.521H420.131V100.185H437.131V94.197H420.131V85.9769H438.631V79.6849H413.431V115.813Z" fill="black"/>
<path d="M474.047 90.1377C472.347 82.5771 466.897 78.7715 459.747 78.7715C449.097 78.7715 442.697 87.5499 442.697 97.749C442.697 107.948 448.347 116.726 459.747 116.726C466.847 116.726 471.597 113.225 474.447 105.969L468.347 103.128C467.047 107.339 464.397 110.434 459.747 110.434C452.647 110.434 449.697 104.041 449.697 97.749C449.697 91.457 452.647 85.0635 459.747 85.0635C463.797 85.0635 467.047 87.8036 467.597 91.8122L474.047 90.1377Z" fill="black"/>
<path d="M485.076 115.813H491.776V85.9769H501.526V79.6849H475.326V85.9769H485.076V115.813Z" fill="black"/>
<path d="M501.88 109.115C505.28 114.139 511.38 116.726 517.28 116.726C524.68 116.726 532.88 113.682 532.88 104.853C532.88 98.0027 527.88 95.8208 522.58 94.6537L518.23 93.6896C514.23 92.7763 510.88 92.0659 510.88 89.0721C510.88 86.535 513.78 85.0635 517.63 85.0635C521.98 85.0635 525.28 86.9917 526.98 90.2899L532.53 86.0276C528.83 81.0549 523.78 78.7715 517.68 78.7715C511.03 78.7715 503.88 82.4249 503.88 90.0362C503.88 96.6834 508.88 98.8145 514.58 100.134L518.53 101.047C523.28 102.163 525.88 102.975 525.88 105.817C525.88 109.318 521.58 110.434 518.33 110.434C513.98 110.434 510.08 108.709 507.58 104.954L501.88 109.115Z" fill="black"/>
<path d="M136.571 311.205H151.871V284.073H181.451V270.303H151.871V254.289H185.531V239.805H136.571V311.205ZM239.964 311.205H256.284L232.212 239.805H210.078L186.108 311.205H201.918L207.12 295.395H234.864L239.964 311.205ZM211.608 281.421L220.992 252.759L230.274 281.421H211.608ZM295.083 312.225C308.139 312.225 316.809 306.819 322.215 301.209L312.933 289.479C310.179 292.437 304.671 296.925 295.899 296.925C284.271 296.925 274.887 287.745 274.887 275.505C274.887 263.367 284.169 253.983 295.389 253.983C303.141 253.983 308.445 257.655 312.015 261.939L322.725 250.617C317.319 243.885 308.037 238.785 296.001 238.785C291.105 238.785 286.107 239.805 283.353 241.233L272.745 252.045C264.789 260.307 259.893 268.671 259.893 279.381C259.893 296.823 274.173 312.225 295.083 312.225ZM379.417 311.205H395.737L371.665 239.805H349.531L325.561 311.205H341.371L346.573 295.395H374.317L379.417 311.205ZM351.061 281.421L360.445 252.759L369.727 281.421H351.061ZM405.117 311.205L443.163 311.205L454.077 299.679C461.319 291.825 468.561 283.155 468.561 271.119C468.561 253.677 453.873 239.805 434.187 239.805H405.117V311.205ZM420.417 296.721V254.289H431.943C444.387 254.493 452.751 263.163 452.751 275.199C452.751 287.541 444.387 296.721 432.861 296.721L420.417 296.721ZM480.821 311.205H529.781V296.721H496.121V282.237H526.211V268.569H496.121V254.289H529.781V239.805L480.821 239.805V311.205ZM562.86 312.225C566.022 312.225 569.082 311.715 570.714 311.001L577.038 304.677C583.26 298.557 587.034 293.049 587.034 286.215C587.034 277.545 581.424 272.241 570.816 268.671L562.86 266.019C557.76 264.285 556.026 262.041 556.026 258.879C556.026 255.513 558.576 252.861 562.962 252.861C567.654 252.861 570.816 255.309 570.918 261.327H586.014C586.32 245.109 573.876 238.785 563.88 238.785C560.004 238.785 557.454 239.499 556.026 240.009L547.152 249.087C542.766 253.473 540.726 258.267 540.726 263.265C540.726 270.711 545.112 276.525 555.924 280.197L564.288 283.053C569.898 284.991 571.734 287.745 571.734 291.009C571.734 294.375 569.286 298.149 563.472 298.149C557.556 298.149 554.904 294.069 554.904 288.153H539.604C539.196 304.167 549.804 312.225 562.86 312.225Z" fill="black"/>
<path d="M143.624 156.52H146.84V150.76H150.632C154.016 150.76 156.392 148.576 156.392 145.192C156.392 141.88 154.424 139.432 150.416 139.432H143.624V156.52ZM146.84 142.12H149.912C151.76 142.12 153.032 142.816 153.032 145.192C153.032 146.872 152.048 148.072 150.032 148.072H146.84V142.12Z" fill="black"/>
<path d="M158.296 156.52H161.512V150.232H164.584L167.896 156.52H171.616L167.8 149.632C168.616 149.32 171.184 148.432 171.184 144.592C171.184 141.592 169.048 139.432 165.424 139.432H158.296V156.52ZM161.512 142.264H164.536C166.768 142.264 167.824 143.272 167.824 144.832C167.824 146.44 166.648 147.4 165.016 147.4H161.512V142.264Z" fill="black"/>
<path d="M180.973 141.976C184.381 141.976 185.797 145 185.797 147.976C185.797 150.952 184.381 153.976 180.973 153.976C177.565 153.976 176.149 150.952 176.149 147.976C176.149 145 177.565 141.976 180.973 141.976ZM180.973 139C175.861 139 172.789 143.152 172.789 147.976C172.789 152.8 175.861 156.952 180.973 156.952C186.085 156.952 189.157 152.8 189.157 147.976C189.157 143.152 186.085 139 180.973 139Z" fill="black"/>
<path d="M191.647 156.52H198.247C203.335 156.52 206.047 153.544 206.047 147.976C206.047 143.08 203.551 139.432 197.647 139.432H191.647V156.52ZM194.863 142.408H197.719C201.223 142.408 202.687 144.616 202.687 147.976C202.687 152.392 200.959 153.544 197.791 153.544H194.863V142.408Z" fill="black"/>
<path d="M222.322 139.432H219.106V150.424C219.106 152.512 218.218 153.832 215.434 153.832C212.65 153.832 211.762 152.512 211.762 150.424V139.432H208.546V151.264C208.546 154.744 211.306 156.952 215.434 156.952C219.562 156.952 222.322 154.744 222.322 151.264V139.432Z" fill="black"/>
<path d="M239.868 144.376C239.052 140.8 236.436 139 233.004 139C227.892 139 224.82 143.152 224.82 147.976C224.82 152.8 227.532 156.952 233.004 156.952C236.412 156.952 238.692 155.296 240.06 151.864L237.132 150.52C236.508 152.512 235.236 153.976 233.004 153.976C229.596 153.976 228.18 150.952 228.18 147.976C228.18 145 229.596 141.976 233.004 141.976C234.948 141.976 236.508 143.272 236.772 145.168L239.868 144.376Z" fill="black"/>
<path d="M245.162 156.52H248.378V142.408H253.058V139.432H240.482V142.408H245.162V156.52Z" fill="black"/>
<path d="M151.184 167.976C154.592 167.976 156.008 171 156.008 173.976C156.008 176.952 154.592 179.976 151.184 179.976C147.776 179.976 146.36 176.952 146.36 173.976C146.36 171 147.776 167.976 151.184 167.976ZM151.184 165C146.072 165 143 169.152 143 173.976C143 178.8 146.072 182.952 151.184 182.952C156.296 182.952 159.368 178.8 159.368 173.976C159.368 169.152 156.296 165 151.184 165Z" fill="black"/>
<path d="M161.858 182.52H165.074V175.32H172.082V172.488H165.074V168.408H173.09V165.432H161.858V182.52Z" fill="black"/>
<path d="M195.205 165.432H191.989V176.424C191.989 178.512 191.101 179.832 188.317 179.832C185.533 179.832 184.645 178.512 184.645 176.424V165.432H181.429V177.264C181.429 180.744 184.189 182.952 188.317 182.952C192.445 182.952 195.205 180.744 195.205 177.264V165.432Z" fill="black"/>
<path d="M196.767 179.352C198.399 181.728 201.327 182.952 204.159 182.952C207.711 182.952 211.647 181.512 211.647 177.336C211.647 174.096 209.247 173.064 206.703 172.512L204.615 172.056C202.695 171.624 201.087 171.288 201.087 169.872C201.087 168.672 202.479 167.976 204.327 167.976C206.415 167.976 207.999 168.888 208.815 170.448L211.479 168.432C209.703 166.08 207.279 165 204.351 165C201.159 165 197.727 166.728 197.727 170.328C197.727 173.472 200.127 174.48 202.863 175.104L204.759 175.536C207.039 176.064 208.287 176.448 208.287 177.792C208.287 179.448 206.223 179.976 204.663 179.976C202.575 179.976 200.703 179.16 199.503 177.384L196.767 179.352Z" fill="black"/>
<path d="M222.266 176.376H217.514L219.866 168.552H219.914L222.266 176.376ZM212.306 182.52H215.666L216.65 179.208H223.13L224.114 182.52H227.474L221.762 165.432H218.018L212.306 182.52Z" fill="black"/>
</svg>
