<svg width="800" height="800" viewBox="0 0 800 800" fill="none" xmlns="http://www.w3.org/2000/svg">
<rect width="800" height="800" fill="white"/>
<path d="M40 191H760V608H40V191Z" fill="black"/>
<path d="M296.576 228.6H265.262V300H280.562V276.234H300.452L309.734 266.748C315.344 260.832 319.016 255.528 319.016 247.98C319.016 237.576 310.346 228.6 296.576 228.6ZM293.312 262.566H280.562V242.37H293.312C299.84 242.37 303.92 246.858 303.92 252.162C303.92 257.466 299.84 262.566 293.312 262.566ZM356.542 301.02C360.826 301.02 364.396 299.898 365.824 299.286L377.656 287.25C383.674 281.028 385.408 276.336 385.408 268.38V228.6H370.108V272.46C370.108 281.334 363.886 286.536 357.052 286.536C350.218 286.536 343.996 281.334 343.996 272.46V228.6H328.696V273.684C328.696 291.636 340.936 301.02 356.542 301.02ZM445.402 260.628L447.238 258.792C450.604 255.426 453.664 251.346 453.664 245.328C453.664 237.984 447.34 228.6 432.448 228.6H400.93V300H437.854L447.034 290.82C453.664 284.19 456.01 280.314 456.01 274.398C456.01 268.278 451.624 262.872 445.402 260.628ZM416.23 242.778H430.714C435.814 242.778 438.466 245.838 438.466 250.02C438.466 253.998 435.814 257.262 430.714 257.262H416.23V242.778ZM432.55 285.822H416.23V270.726H432.04C437.548 270.726 440.608 273.99 440.608 278.07C440.608 282.354 437.548 285.822 432.55 285.822ZM468.366 300H516.306V285.516H483.666V228.6H468.366V300ZM526.338 300H541.638V228.6H526.338V300ZM589.525 301.02C602.581 301.02 611.251 295.614 616.657 290.004L607.375 278.274C604.621 281.232 599.113 285.72 590.341 285.72C578.713 285.72 569.329 276.54 569.329 264.3C569.329 252.162 578.611 242.778 589.831 242.778C597.583 242.778 602.887 246.45 606.457 250.734L617.167 239.412C611.761 232.68 602.479 227.58 590.443 227.58C585.547 227.58 580.549 228.6 577.795 230.028L567.187 240.84C559.231 249.102 554.335 257.466 554.335 268.176C554.335 285.618 568.615 301.02 589.525 301.02ZM284.846 405.02C288.008 405.02 291.068 404.51 292.7 403.796L299.024 397.472C305.246 391.352 309.02 385.844 309.02 379.01C309.02 370.34 303.41 365.036 292.802 361.466L284.846 358.814C279.746 357.08 278.012 354.836 278.012 351.674C278.012 348.308 280.562 345.656 284.948 345.656C289.64 345.656 292.802 348.104 292.904 354.122H308C308.306 337.904 295.862 331.58 285.866 331.58C281.99 331.58 279.44 332.294 278.012 332.804L269.138 341.882C264.752 346.268 262.712 351.062 262.712 356.06C262.712 363.506 267.098 369.32 277.91 372.992L286.274 375.848C291.884 377.786 293.72 380.54 293.72 383.804C293.72 387.17 291.272 390.944 285.458 390.944C279.542 390.944 276.89 386.864 276.89 380.948H261.59C261.182 396.962 271.79 405.02 284.846 405.02ZM353.254 332.6H321.94V404H337.24V380.234H357.13L366.412 370.748C372.022 364.832 375.694 359.528 375.694 351.98C375.694 341.576 367.024 332.6 353.254 332.6ZM349.99 366.566H337.24V346.37H349.99C356.518 346.37 360.598 350.858 360.598 356.162C360.598 361.466 356.518 366.566 349.99 366.566ZM427.525 404H443.845L419.773 332.6H397.639L373.669 404H389.479L394.681 388.19H422.425L427.525 404ZM399.169 374.216L408.553 345.554L417.835 374.216H399.169ZM482.644 405.02C495.7 405.02 504.37 399.614 509.776 394.004L500.494 382.274C497.74 385.232 492.232 389.72 483.46 389.72C471.832 389.72 462.448 380.54 462.448 368.3C462.448 356.162 471.73 346.778 482.95 346.778C490.702 346.778 496.006 350.45 499.576 354.734L510.286 343.412C504.88 336.68 495.598 331.58 483.562 331.58C478.666 331.58 473.668 332.6 470.914 334.028L460.306 344.84C452.35 353.102 447.454 361.466 447.454 372.176C447.454 389.618 461.734 405.02 482.644 405.02ZM520.76 404H569.72V389.516H536.06V375.032H566.15V361.364H536.06V347.084H569.72V332.6H520.76V404ZM602.799 405.02C605.961 405.02 609.021 404.51 610.653 403.796L616.977 397.472C623.199 391.352 626.973 385.844 626.973 379.01C626.973 370.34 621.363 365.036 610.755 361.466L602.799 358.814C597.699 357.08 595.965 354.836 595.965 351.674C595.965 348.308 598.515 345.656 602.901 345.656C607.593 345.656 610.755 348.104 610.857 354.122H625.953C626.259 337.904 613.815 331.58 603.819 331.58C599.943 331.58 597.393 332.294 595.965 332.804L587.091 341.882C582.705 346.268 580.665 351.062 580.665 356.06C580.665 363.506 585.051 369.32 595.863 372.992L604.227 375.848C609.837 377.786 611.673 380.54 611.673 383.804C611.673 387.17 609.225 390.944 603.411 390.944C597.495 390.944 594.843 386.864 594.843 380.948H579.543C579.135 396.962 589.743 405.02 602.799 405.02Z" fill="white"/>
<path d="M363.969 520.4C367.369 525.35 373.469 527.9 379.369 527.9C386.769 527.9 394.969 524.9 394.969 516.2C394.969 509.45 389.969 507.3 384.669 506.15L380.319 505.2C376.319 504.3 372.969 503.6 372.969 500.65C372.969 498.15 375.869 496.7 379.719 496.7C384.069 496.7 387.369 498.6 389.069 501.85L394.619 497.65C390.919 492.75 385.869 490.5 379.769 490.5C373.119 490.5 365.969 494.1 365.969 501.6C365.969 508.15 370.969 510.25 376.669 511.55L380.619 512.45C385.369 513.55 387.969 514.35 387.969 517.15C387.969 520.6 383.669 521.7 380.419 521.7C376.069 521.7 372.169 520 369.669 516.3L363.969 520.4ZM399.641 527H406.341V515H414.241C421.291 515 426.241 510.45 426.241 503.4C426.241 496.5 422.141 491.4 413.791 491.4H399.641V527ZM406.341 497H412.741C416.591 497 419.241 498.45 419.241 503.4C419.241 506.9 417.191 509.4 412.991 509.4H406.341V497ZM430.207 527H456.707V520.8H436.907V511.6H453.907V505.7H436.907V497.6H455.407V491.4H430.207V527ZM460.773 527H487.273V520.8H467.473V511.6H484.473V505.7H467.473V497.6H485.973V491.4H460.773V527ZM491.34 527H505.09C515.69 527 521.34 520.8 521.34 509.2C521.34 499 516.14 491.4 503.84 491.4H491.34V527ZM498.04 497.6H503.99C511.29 497.6 514.34 502.2 514.34 509.2C514.34 518.4 510.74 520.8 504.14 520.8H498.04V497.6ZM533.245 510.7H541.895C545.945 510.7 548.445 512.15 548.445 516.15C548.445 519.85 545.995 521.1 541.945 521.1H533.245V510.7ZM533.245 496.7H541.195C545.095 496.7 546.845 498.45 546.845 501.15C546.845 504.55 544.145 505.7 541.195 505.7H533.245V496.7ZM526.545 527H541.695C549.095 527 555.445 525.25 555.445 516.35C555.445 512.1 552.695 508.05 547.795 507.55V507.45C551.695 506.7 553.845 504.15 553.845 500.25C553.845 494.35 549.145 491.4 543.295 491.4H526.545V527ZM575.645 496.7C582.745 496.7 585.695 503 585.695 509.2C585.695 515.4 582.745 521.7 575.645 521.7C568.545 521.7 565.595 515.4 565.595 509.2C565.595 503 568.545 496.7 575.645 496.7ZM575.645 490.5C564.995 490.5 558.595 499.15 558.595 509.2C558.595 519.25 564.995 527.9 575.645 527.9C586.295 527.9 592.695 519.25 592.695 509.2C592.695 499.15 586.295 490.5 575.645 490.5ZM615.333 514.2H605.433L610.333 497.9H610.433L615.333 514.2ZM594.583 527H601.583L603.633 520.1H617.133L619.183 527H626.183L614.283 491.4H606.483L594.583 527ZM636.227 527H642.927V497.6H652.677V491.4H626.477V497.6H636.227V527ZM389.948 579H396.648V567H404.548C411.598 567 416.548 562.45 416.548 555.4C416.548 548.5 412.448 543.4 404.098 543.4H389.948V579ZM396.648 549H403.048C406.898 549 409.548 550.45 409.548 555.4C409.548 558.9 407.498 561.4 403.298 561.4H396.648V549ZM420.515 579H427.215V565.9H433.615L440.515 579H448.265L440.315 564.65C442.015 564 447.365 562.15 447.365 554.15C447.365 547.9 442.915 543.4 435.365 543.4H420.515V579ZM427.215 549.3H433.515C438.165 549.3 440.365 551.4 440.365 554.65C440.365 558 437.915 560 434.515 560H427.215V549.3ZM467.759 548.7C474.859 548.7 477.809 555 477.809 561.2C477.809 567.4 474.859 573.7 467.759 573.7C460.659 573.7 457.709 567.4 457.709 561.2C457.709 555 460.659 548.7 467.759 548.7ZM467.759 542.5C457.109 542.5 450.709 551.15 450.709 561.2C450.709 571.25 457.109 579.9 467.759 579.9C478.409 579.9 484.809 571.25 484.809 561.2C484.809 551.15 478.409 542.5 467.759 542.5ZM502.597 543.4H495.897V568.85C495.897 572.6 493.097 573.4 490.847 573.4C489.697 573.4 488.147 573.35 487.347 573V579.45C488.397 579.65 489.797 579.9 491.797 579.9C496.297 579.9 502.597 578 502.597 571.35V543.4ZM509.431 579H535.931V572.8H516.131V563.6H533.131V557.7H516.131V549.6H534.631V543.4H509.431V579ZM570.047 553.7C568.347 546.25 562.897 542.5 555.747 542.5C545.097 542.5 538.697 551.15 538.697 561.2C538.697 571.25 544.347 579.9 555.747 579.9C562.847 579.9 567.597 576.45 570.447 569.3L564.347 566.5C563.047 570.65 560.397 573.7 555.747 573.7C548.647 573.7 545.697 567.4 545.697 561.2C545.697 555 548.647 548.7 555.747 548.7C559.797 548.7 563.047 551.4 563.597 555.35L570.047 553.7ZM581.076 579H587.776V549.6H597.526V543.4H571.326V549.6H581.076V579ZM597.88 572.4C601.28 577.35 607.38 579.9 613.28 579.9C620.68 579.9 628.88 576.9 628.88 568.2C628.88 561.45 623.88 559.3 618.58 558.15L614.23 557.2C610.23 556.3 606.88 555.6 606.88 552.65C606.88 550.15 609.78 548.7 613.63 548.7C617.98 548.7 621.28 550.6 622.98 553.85L628.53 549.65C624.83 544.75 619.78 542.5 613.68 542.5C607.03 542.5 599.88 546.1 599.88 553.6C599.88 560.15 604.88 562.25 610.58 563.55L614.53 564.45C619.28 565.55 621.88 566.35 621.88 569.15C621.88 572.6 617.58 573.7 614.33 573.7C609.98 573.7 606.08 572 603.58 568.3L597.88 572.4Z" fill="white"/>
<path d="M104.268 527H125.418V520.8H110.968V491.4H104.268V527ZM146.718 514.2H136.818L141.718 497.9H141.818L146.718 514.2ZM125.968 527H132.968L135.018 520.1H148.518L150.568 527H157.568L145.668 491.4H137.868L125.968 527ZM161.112 527H164.012V528.55C164.012 530.15 162.862 530.8 161.462 530.95V534C164.762 533.55 167.812 532.05 167.812 528.35V520.1H161.112V527ZM218.644 501.7C216.944 494.25 211.494 490.5 204.344 490.5C193.694 490.5 187.294 499.15 187.294 509.2C187.294 519.25 192.944 527.9 204.344 527.9C211.444 527.9 216.194 524.45 219.044 517.3L212.944 514.5C211.644 518.65 208.994 521.7 204.344 521.7C197.244 521.7 194.294 515.4 194.294 509.2C194.294 503 197.244 496.7 204.344 496.7C208.394 496.7 211.644 499.4 212.194 503.35L218.644 501.7ZM240.272 514.2H230.372L235.272 497.9H235.372L240.272 514.2ZM219.522 527H226.522L228.572 520.1H242.072L244.122 527H251.122L239.222 491.4H231.422L219.522 527ZM254.666 527H261.366V520.1H254.666V527Z" fill="white"/>
<path d="M74.624 300.52H77.84V294.76H81.632C85.016 294.76 87.392 292.576 87.392 289.192C87.392 285.88 85.424 283.432 81.416 283.432H74.624V300.52ZM77.84 286.12H80.912C82.76 286.12 84.032 286.816 84.032 289.192C84.032 290.872 83.048 292.072 81.032 292.072H77.84V286.12Z" fill="white"/>
<path d="M89.2959 300.52H92.5119V294.232H95.5839L98.8959 300.52H102.616L98.7999 293.632C99.6159 293.32 102.184 292.432 102.184 288.592C102.184 285.592 100.048 283.432 96.4239 283.432H89.2959V300.52ZM92.5119 286.264H95.5359C97.7679 286.264 98.8239 287.272 98.8239 288.832C98.8239 290.44 97.6479 291.4 96.0159 291.4H92.5119V286.264Z" fill="white"/>
<path d="M111.973 285.976C115.381 285.976 116.797 289 116.797 291.976C116.797 294.952 115.381 297.976 111.973 297.976C108.565 297.976 107.149 294.952 107.149 291.976C107.149 289 108.565 285.976 111.973 285.976ZM111.973 283C106.861 283 103.789 287.152 103.789 291.976C103.789 296.8 106.861 300.952 111.973 300.952C117.085 300.952 120.157 296.8 120.157 291.976C120.157 287.152 117.085 283 111.973 283Z" fill="white"/>
<path d="M122.647 300.52H129.247C134.335 300.52 137.047 297.544 137.047 291.976C137.047 287.08 134.551 283.432 128.647 283.432H122.647V300.52ZM125.863 286.408H128.719C132.223 286.408 133.687 288.616 133.687 291.976C133.687 296.392 131.959 297.544 128.791 297.544H125.863V286.408Z" fill="white"/>
<path d="M153.322 283.432H150.106V294.424C150.106 296.512 149.218 297.832 146.434 297.832C143.65 297.832 142.762 296.512 142.762 294.424V283.432H139.546V295.264C139.546 298.744 142.306 300.952 146.434 300.952C150.562 300.952 153.322 298.744 153.322 295.264V283.432Z" fill="white"/>
<path d="M170.868 288.376C170.052 284.8 167.436 283 164.004 283C158.892 283 155.82 287.152 155.82 291.976C155.82 296.8 158.532 300.952 164.004 300.952C167.412 300.952 169.692 299.296 171.06 295.864L168.132 294.52C167.508 296.512 166.236 297.976 164.004 297.976C160.596 297.976 159.18 294.952 159.18 291.976C159.18 289 160.596 285.976 164.004 285.976C165.948 285.976 167.508 287.272 167.772 289.168L170.868 288.376Z" fill="white"/>
<path d="M176.162 300.52H179.378V286.408H184.058V283.432H171.482V286.408H176.162V300.52Z" fill="white"/>
<path d="M82.184 311.976C85.592 311.976 87.008 315 87.008 317.976C87.008 320.952 85.592 323.976 82.184 323.976C78.776 323.976 77.36 320.952 77.36 317.976C77.36 315 78.776 311.976 82.184 311.976ZM82.184 309C77.072 309 74 313.152 74 317.976C74 322.8 77.072 326.952 82.184 326.952C87.296 326.952 90.368 322.8 90.368 317.976C90.368 313.152 87.296 309 82.184 309Z" fill="white"/>
<path d="M92.8584 326.52H96.0744V319.32H103.082V316.488H96.0744V312.408H104.09V309.432H92.8584V326.52Z" fill="white"/>
<path d="M126.205 309.432H122.989V320.424C122.989 322.512 122.101 323.832 119.317 323.832C116.533 323.832 115.645 322.512 115.645 320.424V309.432H112.429V321.264C112.429 324.744 115.189 326.952 119.317 326.952C123.445 326.952 126.205 324.744 126.205 321.264V309.432Z" fill="white"/>
<path d="M127.767 323.352C129.399 325.728 132.327 326.952 135.159 326.952C138.711 326.952 142.647 325.512 142.647 321.336C142.647 318.096 140.247 317.064 137.703 316.512L135.615 316.056C133.695 315.624 132.087 315.288 132.087 313.872C132.087 312.672 133.479 311.976 135.327 311.976C137.415 311.976 138.999 312.888 139.815 314.448L142.479 312.432C140.703 310.08 138.279 309 135.351 309C132.159 309 128.727 310.728 128.727 314.328C128.727 317.472 131.127 318.48 133.863 319.104L135.759 319.536C138.039 320.064 139.287 320.448 139.287 321.792C139.287 323.448 137.223 323.976 135.663 323.976C133.575 323.976 131.703 323.16 130.503 321.384L127.767 323.352Z" fill="white"/>
<path d="M153.266 320.376H148.514L150.866 312.552H150.914L153.266 320.376ZM143.306 326.52H146.666L147.65 323.208H154.13L155.114 326.52H158.474L152.762 309.432H149.018L143.306 326.52Z" fill="white"/>
</svg>
