<svg width="720" height="417" viewBox="0 0 720 417" fill="none" xmlns="http://www.w3.org/2000/svg">
<path d="M0 0H720V417H0V0Z" fill="black"/>
<path d="M256.576 37.6H225.262V109H240.562V85.234H260.452L269.734 75.748C275.344 69.832 279.016 64.528 279.016 56.98C279.016 46.576 270.346 37.6 256.576 37.6ZM253.312 71.566H240.562V51.37H253.312C259.84 51.37 263.92 55.858 263.92 61.162C263.92 66.466 259.84 71.566 253.312 71.566ZM316.542 110.02C320.826 110.02 324.396 108.898 325.824 108.286L337.656 96.25C343.674 90.028 345.408 85.336 345.408 77.38V37.6H330.108V81.46C330.108 90.334 323.886 95.536 317.052 95.536C310.218 95.536 303.996 90.334 303.996 81.46V37.6H288.696V82.684C288.696 100.636 300.936 110.02 316.542 110.02ZM405.402 69.628L407.238 67.792C410.604 64.426 413.664 60.346 413.664 54.328C413.664 46.984 407.34 37.6 392.448 37.6H360.93V109H397.854L407.034 99.82C413.664 93.19 416.01 89.314 416.01 83.398C416.01 77.278 411.624 71.872 405.402 69.628ZM376.23 51.778H390.714C395.814 51.778 398.466 54.838 398.466 59.02C398.466 62.998 395.814 66.262 390.714 66.262H376.23V51.778ZM392.55 94.822H376.23V79.726H392.04C397.548 79.726 400.608 82.99 400.608 87.07C400.608 91.354 397.548 94.822 392.55 94.822ZM428.366 109H476.306V94.516H443.666V37.6H428.366V109ZM486.338 109H501.638V37.6H486.338V109ZM549.525 110.02C562.581 110.02 571.251 104.614 576.657 99.004L567.375 87.274C564.621 90.232 559.113 94.72 550.341 94.72C538.713 94.72 529.329 85.54 529.329 73.3C529.329 61.162 538.611 51.778 549.831 51.778C557.583 51.778 562.887 55.45 566.457 59.734L577.167 48.412C571.761 41.68 562.479 36.58 550.443 36.58C545.547 36.58 540.549 37.6 537.795 39.028L527.187 49.84C519.231 58.102 514.335 66.466 514.335 77.176C514.335 94.618 528.615 110.02 549.525 110.02ZM244.846 214.02C248.008 214.02 251.068 213.51 252.7 212.796L259.024 206.472C265.246 200.352 269.02 194.844 269.02 188.01C269.02 179.34 263.41 174.036 252.802 170.466L244.846 167.814C239.746 166.08 238.012 163.836 238.012 160.674C238.012 157.308 240.562 154.656 244.948 154.656C249.64 154.656 252.802 157.104 252.904 163.122H268C268.306 146.904 255.862 140.58 245.866 140.58C241.99 140.58 239.44 141.294 238.012 141.804L229.138 150.882C224.752 155.268 222.712 160.062 222.712 165.06C222.712 172.506 227.098 178.32 237.91 181.992L246.274 184.848C251.884 186.786 253.72 189.54 253.72 192.804C253.72 196.17 251.272 199.944 245.458 199.944C239.542 199.944 236.89 195.864 236.89 189.948H221.59C221.182 205.962 231.79 214.02 244.846 214.02ZM313.254 141.6H281.94V213H297.24V189.234H317.13L326.412 179.748C332.022 173.832 335.694 168.528 335.694 160.98C335.694 150.576 327.024 141.6 313.254 141.6ZM309.99 175.566H297.24V155.37H309.99C316.518 155.37 320.598 159.858 320.598 165.162C320.598 170.466 316.518 175.566 309.99 175.566ZM387.525 213H403.845L379.773 141.6H357.639L333.669 213H349.479L354.681 197.19H382.425L387.525 213ZM359.169 183.216L368.553 154.554L377.835 183.216H359.169ZM442.644 214.02C455.7 214.02 464.37 208.614 469.776 203.004L460.494 191.274C457.74 194.232 452.232 198.72 443.46 198.72C431.832 198.72 422.448 189.54 422.448 177.3C422.448 165.162 431.73 155.778 442.95 155.778C450.702 155.778 456.006 159.45 459.576 163.734L470.286 152.412C464.88 145.68 455.598 140.58 443.562 140.58C438.666 140.58 433.668 141.6 430.914 143.028L420.306 153.84C412.35 162.102 407.454 170.466 407.454 181.176C407.454 198.618 421.734 214.02 442.644 214.02ZM480.76 213H529.72V198.516H496.06V184.032H526.15V170.364H496.06V156.084H529.72V141.6H480.76V213ZM562.799 214.02C565.961 214.02 569.021 213.51 570.653 212.796L576.977 206.472C583.199 200.352 586.973 194.844 586.973 188.01C586.973 179.34 581.363 174.036 570.755 170.466L562.799 167.814C557.699 166.08 555.965 163.836 555.965 160.674C555.965 157.308 558.515 154.656 562.901 154.656C567.593 154.656 570.755 157.104 570.857 163.122H585.953C586.259 146.904 573.815 140.58 563.819 140.58C559.943 140.58 557.393 141.294 555.965 141.804L547.091 150.882C542.705 155.268 540.665 160.062 540.665 165.06C540.665 172.506 545.051 178.32 555.863 181.992L564.227 184.848C569.837 186.786 571.673 189.54 571.673 192.804C571.673 196.17 569.225 199.944 563.411 199.944C557.495 199.944 554.843 195.864 554.843 189.948H539.543C539.135 205.962 549.743 214.02 562.799 214.02Z" fill="white"/>
<path d="M323.969 329.4C327.369 334.35 333.469 336.9 339.369 336.9C346.769 336.9 354.969 333.9 354.969 325.2C354.969 318.45 349.969 316.3 344.669 315.15L340.319 314.2C336.319 313.3 332.969 312.6 332.969 309.65C332.969 307.15 335.869 305.7 339.719 305.7C344.069 305.7 347.369 307.6 349.069 310.85L354.619 306.65C350.919 301.75 345.869 299.5 339.769 299.5C333.119 299.5 325.969 303.1 325.969 310.6C325.969 317.15 330.969 319.25 336.669 320.55L340.619 321.45C345.369 322.55 347.969 323.35 347.969 326.15C347.969 329.6 343.669 330.7 340.419 330.7C336.069 330.7 332.169 329 329.669 325.3L323.969 329.4ZM359.641 336H366.341V324H374.241C381.291 324 386.241 319.45 386.241 312.4C386.241 305.5 382.141 300.4 373.791 300.4H359.641V336ZM366.341 306H372.741C376.591 306 379.241 307.45 379.241 312.4C379.241 315.9 377.191 318.4 372.991 318.4H366.341V306ZM390.207 336H416.707V329.8H396.907V320.6H413.907V314.7H396.907V306.6H415.407V300.4H390.207V336ZM420.773 336H447.273V329.8H427.473V320.6H444.473V314.7H427.473V306.6H445.973V300.4H420.773V336ZM451.34 336H465.09C475.69 336 481.34 329.8 481.34 318.2C481.34 308 476.14 300.4 463.84 300.4H451.34V336ZM458.04 306.6H463.99C471.29 306.6 474.34 311.2 474.34 318.2C474.34 327.4 470.74 329.8 464.14 329.8H458.04V306.6ZM493.245 319.7H501.895C505.945 319.7 508.445 321.15 508.445 325.15C508.445 328.85 505.995 330.1 501.945 330.1H493.245V319.7ZM493.245 305.7H501.195C505.095 305.7 506.845 307.45 506.845 310.15C506.845 313.55 504.145 314.7 501.195 314.7H493.245V305.7ZM486.545 336H501.695C509.095 336 515.445 334.25 515.445 325.35C515.445 321.1 512.695 317.05 507.795 316.55V316.45C511.695 315.7 513.845 313.15 513.845 309.25C513.845 303.35 509.145 300.4 503.295 300.4H486.545V336ZM535.645 305.7C542.745 305.7 545.695 312 545.695 318.2C545.695 324.4 542.745 330.7 535.645 330.7C528.545 330.7 525.595 324.4 525.595 318.2C525.595 312 528.545 305.7 535.645 305.7ZM535.645 299.5C524.995 299.5 518.595 308.15 518.595 318.2C518.595 328.25 524.995 336.9 535.645 336.9C546.295 336.9 552.695 328.25 552.695 318.2C552.695 308.15 546.295 299.5 535.645 299.5ZM575.333 323.2H565.433L570.333 306.9H570.433L575.333 323.2ZM554.583 336H561.583L563.633 329.1H577.133L579.183 336H586.183L574.283 300.4H566.483L554.583 336ZM596.227 336H602.927V306.6H612.677V300.4H586.477V306.6H596.227V336ZM349.948 388H356.648V376H364.548C371.598 376 376.548 371.45 376.548 364.4C376.548 357.5 372.448 352.4 364.098 352.4H349.948V388ZM356.648 358H363.048C366.898 358 369.548 359.45 369.548 364.4C369.548 367.9 367.498 370.4 363.298 370.4H356.648V358ZM380.515 388H387.215V374.9H393.615L400.515 388H408.265L400.315 373.65C402.015 373 407.365 371.15 407.365 363.15C407.365 356.9 402.915 352.4 395.365 352.4H380.515V388ZM387.215 358.3H393.515C398.165 358.3 400.365 360.4 400.365 363.65C400.365 367 397.915 369 394.515 369H387.215V358.3ZM427.759 357.7C434.859 357.7 437.809 364 437.809 370.2C437.809 376.4 434.859 382.7 427.759 382.7C420.659 382.7 417.709 376.4 417.709 370.2C417.709 364 420.659 357.7 427.759 357.7ZM427.759 351.5C417.109 351.5 410.709 360.15 410.709 370.2C410.709 380.25 417.109 388.9 427.759 388.9C438.409 388.9 444.809 380.25 444.809 370.2C444.809 360.15 438.409 351.5 427.759 351.5ZM462.597 352.4H455.897V377.85C455.897 381.6 453.097 382.4 450.847 382.4C449.697 382.4 448.147 382.35 447.347 382V388.45C448.397 388.65 449.797 388.9 451.797 388.9C456.297 388.9 462.597 387 462.597 380.35V352.4ZM469.431 388H495.931V381.8H476.131V372.6H493.131V366.7H476.131V358.6H494.631V352.4H469.431V388ZM530.047 362.7C528.347 355.25 522.897 351.5 515.747 351.5C505.097 351.5 498.697 360.15 498.697 370.2C498.697 380.25 504.347 388.9 515.747 388.9C522.847 388.9 527.597 385.45 530.447 378.3L524.347 375.5C523.047 379.65 520.397 382.7 515.747 382.7C508.647 382.7 505.697 376.4 505.697 370.2C505.697 364 508.647 357.7 515.747 357.7C519.797 357.7 523.047 360.4 523.597 364.35L530.047 362.7ZM541.076 388H547.776V358.6H557.526V352.4H531.326V358.6H541.076V388ZM557.88 381.4C561.28 386.35 567.38 388.9 573.28 388.9C580.68 388.9 588.88 385.9 588.88 377.2C588.88 370.45 583.88 368.3 578.58 367.15L574.23 366.2C570.23 365.3 566.88 364.6 566.88 361.65C566.88 359.15 569.78 357.7 573.63 357.7C577.98 357.7 581.28 359.6 582.98 362.85L588.53 358.65C584.83 353.75 579.78 351.5 573.68 351.5C567.03 351.5 559.88 355.1 559.88 362.6C559.88 369.15 564.88 371.25 570.58 372.55L574.53 373.45C579.28 374.55 581.88 375.35 581.88 378.15C581.88 381.6 577.58 382.7 574.33 382.7C569.98 382.7 566.08 381 563.58 377.3L557.88 381.4Z" fill="white"/>
<path d="M64.2676 336H85.4176V329.8H70.9676V300.4H64.2676V336ZM106.718 323.2H96.8176L101.718 306.9H101.818L106.718 323.2ZM85.9676 336H92.9676L95.0176 329.1H108.518L110.568 336H117.568L105.668 300.4H97.8676L85.9676 336ZM121.112 336H124.012V337.55C124.012 339.15 122.862 339.8 121.462 339.95V343C124.762 342.55 127.812 341.05 127.812 337.35V329.1H121.112V336ZM178.644 310.7C176.944 303.25 171.494 299.5 164.344 299.5C153.694 299.5 147.294 308.15 147.294 318.2C147.294 328.25 152.944 336.9 164.344 336.9C171.444 336.9 176.194 333.45 179.044 326.3L172.944 323.5C171.644 327.65 168.994 330.7 164.344 330.7C157.244 330.7 154.294 324.4 154.294 318.2C154.294 312 157.244 305.7 164.344 305.7C168.394 305.7 171.644 308.4 172.194 312.35L178.644 310.7ZM200.272 323.2H190.372L195.272 306.9H195.372L200.272 323.2ZM179.522 336H186.522L188.572 329.1H202.072L204.122 336H211.122L199.222 300.4H191.422L179.522 336ZM214.666 336H221.366V329.1H214.666V336Z" fill="white"/>
<path d="M34.624 109.52H37.84V103.76H41.632C45.016 103.76 47.392 101.576 47.392 98.192C47.392 94.88 45.424 92.432 41.416 92.432H34.624V109.52ZM37.84 95.12H40.912C42.76 95.12 44.032 95.816 44.032 98.192C44.032 99.872 43.048 101.072 41.032 101.072H37.84V95.12Z" fill="white"/>
<path d="M49.2959 109.52H52.5119V103.232H55.5839L58.8959 109.52H62.6159L58.7999 102.632C59.6159 102.32 62.1839 101.432 62.1839 97.592C62.1839 94.592 60.0479 92.432 56.4239 92.432H49.2959V109.52ZM52.5119 95.264H55.5359C57.7679 95.264 58.8239 96.272 58.8239 97.832C58.8239 99.44 57.6479 100.4 56.0159 100.4H52.5119V95.264Z" fill="white"/>
<path d="M71.9731 94.976C75.3811 94.976 76.7971 98 76.7971 100.976C76.7971 103.952 75.3811 106.976 71.9731 106.976C68.5651 106.976 67.1491 103.952 67.1491 100.976C67.1491 98 68.5651 94.976 71.9731 94.976ZM71.9731 92C66.8611 92 63.7891 96.152 63.7891 100.976C63.7891 105.8 66.8611 109.952 71.9731 109.952C77.0851 109.952 80.1571 105.8 80.1571 100.976C80.1571 96.152 77.0851 92 71.9731 92Z" fill="white"/>
<path d="M82.6474 109.52H89.2474C94.3354 109.52 97.0474 106.544 97.0474 100.976C97.0474 96.08 94.5514 92.432 88.6474 92.432H82.6474V109.52ZM85.8634 95.408H88.7194C92.2234 95.408 93.6874 97.616 93.6874 100.976C93.6874 105.392 91.9594 106.544 88.7914 106.544H85.8634V95.408Z" fill="white"/>
<path d="M113.322 92.432H110.106V103.424C110.106 105.512 109.218 106.832 106.434 106.832C103.65 106.832 102.762 105.512 102.762 103.424V92.432H99.5459V104.264C99.5459 107.744 102.306 109.952 106.434 109.952C110.562 109.952 113.322 107.744 113.322 104.264V92.432Z" fill="white"/>
<path d="M130.868 97.376C130.052 93.8 127.436 92 124.004 92C118.892 92 115.82 96.152 115.82 100.976C115.82 105.8 118.532 109.952 124.004 109.952C127.412 109.952 129.692 108.296 131.06 104.864L128.132 103.52C127.508 105.512 126.236 106.976 124.004 106.976C120.596 106.976 119.18 103.952 119.18 100.976C119.18 98 120.596 94.976 124.004 94.976C125.948 94.976 127.508 96.272 127.772 98.168L130.868 97.376Z" fill="white"/>
<path d="M136.162 109.52H139.378V95.408H144.058V92.432H131.482V95.408H136.162V109.52Z" fill="white"/>
<path d="M42.184 120.976C45.592 120.976 47.008 124 47.008 126.976C47.008 129.952 45.592 132.976 42.184 132.976C38.776 132.976 37.36 129.952 37.36 126.976C37.36 124 38.776 120.976 42.184 120.976ZM42.184 118C37.072 118 34 122.152 34 126.976C34 131.8 37.072 135.952 42.184 135.952C47.296 135.952 50.368 131.8 50.368 126.976C50.368 122.152 47.296 118 42.184 118Z" fill="white"/>
<path d="M52.8584 135.52H56.0744V128.32H63.0824V125.488H56.0744V121.408H64.0904V118.432H52.8584V135.52Z" fill="white"/>
<path d="M86.2047 118.432H82.9887V129.424C82.9887 131.512 82.1007 132.832 79.3167 132.832C76.5327 132.832 75.6447 131.512 75.6447 129.424V118.432H72.4287V130.264C72.4287 133.744 75.1887 135.952 79.3167 135.952C83.4447 135.952 86.2047 133.744 86.2047 130.264V118.432Z" fill="white"/>
<path d="M87.7671 132.352C89.3991 134.728 92.3271 135.952 95.1591 135.952C98.7111 135.952 102.647 134.512 102.647 130.336C102.647 127.096 100.247 126.064 97.7031 125.512L95.6151 125.056C93.6951 124.624 92.0871 124.288 92.0871 122.872C92.0871 121.672 93.4791 120.976 95.3271 120.976C97.4151 120.976 98.9991 121.888 99.8151 123.448L102.479 121.432C100.703 119.08 98.2791 118 95.3511 118C92.1591 118 88.7271 119.728 88.7271 123.328C88.7271 126.472 91.1271 127.48 93.8631 128.104L95.7591 128.536C98.0391 129.064 99.2871 129.448 99.2871 130.792C99.2871 132.448 97.2231 132.976 95.6631 132.976C93.5751 132.976 91.7031 132.16 90.5031 130.384L87.7671 132.352Z" fill="white"/>
<path d="M113.266 129.376H108.514L110.866 121.552H110.914L113.266 129.376ZM103.306 135.52H106.666L107.65 132.208H114.13L115.114 135.52H118.474L112.762 118.432H109.018L103.306 135.52Z" fill="white"/>
</svg>
