<svg width="800" height="800" viewBox="0 0 800 800" fill="none" xmlns="http://www.w3.org/2000/svg">
<rect width="800" height="800" fill="white"/>
<g clip-path="url(#clip0)">
<rect x="40" y="172" width="718" height="464" stroke="black" stroke-width="4"/>
<path d="M231.238 377.281C234.292 376.463 237.116 375.178 238.507 374.066L242.979 366.321C247.405 358.799 249.625 352.502 247.856 345.901C245.612 337.526 238.82 333.855 227.65 333.152L219.279 332.649C213.904 332.295 211.648 330.576 210.829 327.522C209.958 324.27 211.735 321.049 215.972 319.913C220.504 318.699 224.192 320.245 225.848 326.032L240.429 322.125C236.527 306.38 222.871 303.492 213.215 306.079C209.471 307.083 207.193 308.432 205.946 309.294L199.723 320.36C196.622 325.732 195.892 330.89 197.186 335.718C199.113 342.91 204.854 347.391 216.248 348.14L225.067 348.733C230.987 349.153 233.473 351.338 234.318 354.491C235.189 357.742 233.801 362.021 228.186 363.526C222.471 365.057 218.854 361.803 217.322 356.088L202.544 360.048C206.294 375.622 218.626 380.66 231.238 377.281ZM266.803 366.695L281.582 362.735L263.102 293.768L248.324 297.728L266.803 366.695ZM325.023 277.177L339.176 327.239L300.49 283.75L279.209 289.452L297.688 358.42L312.467 354.46L297.654 301.934L338.182 347.569L358.281 342.184L339.801 273.217L325.023 277.177ZM391.224 290.801L394.84 304.299L412.279 299.626L414.444 307.705C411.355 312.334 406.654 315.283 401.728 316.603C389.018 320.009 378.568 312.144 375.532 300.813C372.47 289.384 377.738 277.518 389.955 274.245C398.231 272.027 404.903 274.464 409.355 277.284L416.592 263.306C409.214 258.63 397.996 256.567 386.961 259.524C380.853 261.161 376.789 263.728 375.01 265.366L367.077 279.108C362.585 287.175 358.812 296.74 361.769 307.775C366.336 324.819 384.195 336.296 404.984 330.726C411.092 329.089 415.353 326.469 417.913 324.199L428.968 304.764L422.949 282.3L391.224 290.801ZM446.245 318.614L492.551 306.206L488.803 292.216L457.275 300.664L442.544 245.687L427.765 249.647L446.245 318.614ZM502.242 303.61L549.534 290.938L545.785 276.947L513.272 285.659L509.523 271.669L538.588 263.881L535.05 250.679L505.986 258.466L502.29 244.673L534.803 235.961L531.054 221.971L483.762 234.642L502.242 303.61ZM236.713 482.427L251.492 478.467L244.469 452.259L273.041 444.603L269.478 431.303L240.905 438.958L236.761 423.49L269.274 414.778L265.525 400.788L218.233 413.46L236.713 482.427ZM336.584 455.666L352.348 451.442L310.616 388.706L289.236 394.434L284.563 469.605L299.834 465.513L300.767 448.896L327.566 441.715L336.584 455.666ZM301.485 434.236L303.131 404.122L319.515 429.405L301.485 434.236ZM394.062 366.346L394.917 421.556L367.855 373.369L342.928 380.048L361.408 449.015L375.99 445.108L359.626 387.189L390.571 441.2L408.207 436.475L407.816 373.538L422.789 432.568L437.272 428.687L418.792 359.72L394.062 366.346ZM453.294 424.394L468.072 420.434L449.593 351.467L434.814 355.427L453.294 424.394ZM484.179 416.118L530.485 403.711L526.736 389.72L495.209 398.168L480.478 343.191L465.699 347.151L484.179 416.118ZM551.391 324.19L544.405 356.052L521.932 332.084L504.493 336.756L540.252 372.476L547.407 399.176L562.185 395.217L555.031 368.516L568.238 319.676L551.391 324.19ZM261.129 583.553L275.907 579.593L268.357 551.415L298.9 543.231L306.45 571.409L321.228 567.449L302.749 498.482L287.97 502.442L295.124 529.142L264.582 537.326L257.428 510.626L242.649 514.586L261.129 583.553ZM367.056 556.226C372.869 554.668 378.05 552.33 380.978 549.856L387.253 538.987C394.15 526.896 394.98 517.381 392.498 508.12C387.086 487.922 366.571 480.325 349.231 484.972C342.039 486.899 338.001 489.565 335.98 491.479L329.947 502.071C323.699 513.038 322.035 522.988 324.517 532.249C330.114 553.136 351.095 560.503 367.056 556.226ZM365.475 541.655C354.046 544.717 341.818 538.49 338.095 524.598C334.69 511.888 340.762 502.236 351.108 499.464C362.438 496.428 375.402 502.247 379.15 516.237C382.556 528.947 376.116 538.804 365.475 541.655ZM447.15 459.79L448.005 515L420.943 466.812L396.016 473.492L414.496 542.459L429.077 538.551L412.713 480.633L443.659 534.644L461.295 529.919L460.904 466.981L475.876 526.012L490.36 522.131L471.88 453.164L447.15 459.79ZM506.381 517.838L553.673 505.166L549.924 491.176L517.411 499.888L513.662 485.897L542.727 478.109L539.19 464.907L510.125 472.695L506.429 458.901L538.942 450.19L535.193 436.199L487.902 448.871L506.381 517.838ZM585.889 497.59C588.943 496.772 591.767 495.487 593.159 494.375L597.63 486.63C602.056 479.108 604.276 472.811 602.507 466.209C600.263 457.835 593.472 454.164 582.301 453.461L573.93 452.958C568.555 452.603 566.299 450.885 565.481 447.83C564.61 444.579 566.386 441.357 570.623 440.222C575.155 439.008 578.843 440.554 580.499 446.341L595.081 442.434C591.179 426.689 577.522 423.801 567.867 426.388C564.123 427.392 561.844 428.741 560.597 429.603L554.375 440.669C551.274 446.041 550.544 451.199 551.837 456.027C553.765 463.219 559.506 467.7 570.9 468.448L579.718 469.042C585.638 469.462 588.125 471.647 588.969 474.8C589.841 478.051 588.453 482.33 582.837 483.835C577.123 485.366 573.505 482.112 571.974 476.397L557.195 480.357C560.946 495.931 573.278 500.969 585.889 497.59Z" fill="black"/>
<path d="M113.125 219.832C114.757 222.208 117.685 223.432 120.517 223.432C124.069 223.432 128.005 221.992 128.005 217.816C128.005 214.576 125.605 213.544 123.061 212.992L120.973 212.536C119.053 212.104 117.445 211.768 117.445 210.352C117.445 209.152 118.837 208.456 120.685 208.456C122.773 208.456 124.357 209.368 125.173 210.928L127.837 208.912C126.061 206.56 123.637 205.48 120.709 205.48C117.517 205.48 114.085 207.208 114.085 210.808C114.085 213.952 116.485 214.96 119.221 215.584L121.117 216.016C123.397 216.544 124.645 216.928 124.645 218.272C124.645 219.928 122.581 220.456 121.021 220.456C118.933 220.456 117.061 219.64 115.861 217.864L113.125 219.832ZM130.248 223H133.464V217.24H137.256C140.64 217.24 143.016 215.056 143.016 211.672C143.016 208.36 141.048 205.912 137.04 205.912H130.248V223ZM133.464 208.6H136.536C138.384 208.6 139.656 209.296 139.656 211.672C139.656 213.352 138.672 214.552 136.656 214.552H133.464V208.6ZM144.919 223H157.639V220.024H148.135V215.608H156.295V212.776H148.135V208.888H157.015V205.912H144.919V223ZM159.591 223H172.311V220.024H162.807V215.608H170.967V212.776H162.807V208.888H171.687V205.912H159.591V223ZM174.263 223H180.863C185.951 223 188.663 220.024 188.663 214.456C188.663 209.56 186.167 205.912 180.263 205.912H174.263V223ZM177.479 208.888H180.335C183.839 208.888 185.303 211.096 185.303 214.456C185.303 218.872 183.575 220.024 180.407 220.024H177.479V208.888ZM194.378 215.176H198.53C200.474 215.176 201.674 215.872 201.674 217.792C201.674 219.568 200.498 220.168 198.554 220.168H194.378V215.176ZM194.378 208.456H198.194C200.066 208.456 200.906 209.296 200.906 210.592C200.906 212.224 199.61 212.776 198.194 212.776H194.378V208.456ZM191.162 223H198.434C201.986 223 205.034 222.16 205.034 217.888C205.034 215.848 203.714 213.904 201.362 213.664V213.616C203.234 213.256 204.266 212.032 204.266 210.16C204.266 207.328 202.01 205.912 199.202 205.912H191.162V223ZM214.729 208.456C218.137 208.456 219.553 211.48 219.553 214.456C219.553 217.432 218.137 220.456 214.729 220.456C211.321 220.456 209.905 217.432 209.905 214.456C209.905 211.48 211.321 208.456 214.729 208.456ZM214.729 205.48C209.617 205.48 206.545 209.632 206.545 214.456C206.545 219.28 209.617 223.432 214.729 223.432C219.841 223.432 222.913 219.28 222.913 214.456C222.913 209.632 219.841 205.48 214.729 205.48ZM233.78 216.856H229.028L231.38 209.032H231.428L233.78 216.856ZM223.82 223H227.18L228.164 219.688H234.644L235.628 223H238.988L233.276 205.912H229.532L223.82 223ZM243.809 223H247.025V208.888H251.705V205.912H239.129V208.888H243.809V223ZM125.595 249H128.811V243.24H132.603C135.987 243.24 138.363 241.056 138.363 237.672C138.363 234.36 136.395 231.912 132.387 231.912H125.595V249ZM128.811 234.6H131.883C133.731 234.6 135.003 235.296 135.003 237.672C135.003 239.352 134.019 240.552 132.003 240.552H128.811V234.6ZM140.267 249H143.483V242.712H146.555L149.867 249H153.587L149.771 242.112C150.587 241.8 153.155 240.912 153.155 237.072C153.155 234.072 151.019 231.912 147.395 231.912H140.267V249ZM143.483 234.744H146.507C148.739 234.744 149.795 235.752 149.795 237.312C149.795 238.92 148.619 239.88 146.987 239.88H143.483V234.744ZM162.944 234.456C166.352 234.456 167.768 237.48 167.768 240.456C167.768 243.432 166.352 246.456 162.944 246.456C159.536 246.456 158.12 243.432 158.12 240.456C158.12 237.48 159.536 234.456 162.944 234.456ZM162.944 231.48C157.832 231.48 154.76 235.632 154.76 240.456C154.76 245.28 157.832 249.432 162.944 249.432C168.056 249.432 171.128 245.28 171.128 240.456C171.128 235.632 168.056 231.48 162.944 231.48ZM179.667 231.912H176.451V244.128C176.451 245.928 175.107 246.312 174.027 246.312C173.475 246.312 172.731 246.288 172.347 246.12V249.216C172.851 249.312 173.523 249.432 174.483 249.432C176.643 249.432 179.667 248.52 179.667 245.328V231.912ZM182.947 249H195.667V246.024H186.163V241.608H194.323V238.776H186.163V234.888H195.043V231.912H182.947V249ZM212.043 236.856C211.227 233.28 208.611 231.48 205.179 231.48C200.067 231.48 196.995 235.632 196.995 240.456C196.995 245.28 199.707 249.432 205.179 249.432C208.587 249.432 210.867 247.776 212.235 244.344L209.307 243C208.683 244.992 207.411 246.456 205.179 246.456C201.771 246.456 200.355 243.432 200.355 240.456C200.355 237.48 201.771 234.456 205.179 234.456C207.123 234.456 208.683 235.752 208.947 237.648L212.043 236.856ZM217.336 249H220.552V234.888H225.232V231.912H212.656V234.888H217.336V249ZM225.402 245.832C227.034 248.208 229.962 249.432 232.794 249.432C236.346 249.432 240.282 247.992 240.282 243.816C240.282 240.576 237.882 239.544 235.338 238.992L233.25 238.536C231.33 238.104 229.722 237.768 229.722 236.352C229.722 235.152 231.114 234.456 232.962 234.456C235.05 234.456 236.634 235.368 237.45 236.928L240.114 234.912C238.338 232.56 235.914 231.48 232.986 231.48C229.794 231.48 226.362 233.208 226.362 236.808C226.362 239.952 228.762 240.96 231.498 241.584L233.394 242.016C235.674 242.544 236.922 242.928 236.922 244.272C236.922 245.928 234.858 246.456 233.298 246.456C231.21 246.456 229.338 245.64 228.138 243.864L225.402 245.832Z" fill="black"/>
<path d="M557.847 570.456C561.255 570.456 562.671 573.48 562.671 576.456C562.671 579.432 561.255 582.456 557.847 582.456C554.439 582.456 553.023 579.432 553.023 576.456C553.023 573.48 554.439 570.456 557.847 570.456ZM557.847 567.48C552.735 567.48 549.663 571.632 549.663 576.456C549.663 581.28 552.735 585.432 557.847 585.432C562.959 585.432 566.031 581.28 566.031 576.456C566.031 571.632 562.959 567.48 557.847 567.48ZM568.641 585H571.569V572.832H571.617L578.793 585H581.745V567.912H578.817V580.08H578.769L571.593 567.912H568.641V585ZM594.87 577.176H599.022C600.966 577.176 602.166 577.872 602.166 579.792C602.166 581.568 600.99 582.168 599.046 582.168H594.87V577.176ZM594.87 570.456H598.686C600.558 570.456 601.398 571.296 601.398 572.592C601.398 574.224 600.102 574.776 598.686 574.776H594.87V570.456ZM591.654 585H598.926C602.478 585 605.526 584.16 605.526 579.888C605.526 577.848 604.206 575.904 601.854 575.664V575.616C603.726 575.256 604.758 574.032 604.758 572.16C604.758 569.328 602.502 567.912 599.694 567.912H591.654V585ZM621.438 567.912H618.222V578.904C618.222 580.992 617.334 582.312 614.55 582.312C611.766 582.312 610.878 580.992 610.878 578.904V567.912H607.662V579.744C607.662 583.224 610.422 585.432 614.55 585.432C618.678 585.432 621.438 583.224 621.438 579.744V567.912ZM624.56 585H631.16C636.248 585 638.96 582.024 638.96 576.456C638.96 571.56 636.464 567.912 630.56 567.912H624.56V585ZM627.776 570.888H630.632C634.136 570.888 635.6 573.096 635.6 576.456C635.6 580.872 633.872 582.024 630.704 582.024H627.776V570.888ZM656.29 572.496C654.994 569.232 652.498 567.48 649.018 567.48C643.906 567.48 640.834 571.632 640.834 576.456C640.834 581.28 643.546 585.432 649.018 585.432C650.506 585.432 652.378 584.808 653.506 583.536V585H656.29V575.664H649.138V578.496H653.362C653.362 580.848 651.298 582.456 649.018 582.456C645.61 582.456 644.194 579.432 644.194 576.456C644.194 573.48 645.61 570.456 649.018 570.456C651.85 570.456 652.93 572.352 653.29 573.72L656.29 572.496ZM659.248 585H671.968V582.024H662.464V577.608H670.624V574.776H662.464V570.888H671.344V567.912H659.248V585ZM677.207 585H680.423V570.888H685.103V567.912H672.527V570.888H677.207V585ZM578.753 596.456C582.161 596.456 583.577 599.48 583.577 602.456C583.577 605.432 582.161 608.456 578.753 608.456C575.345 608.456 573.929 605.432 573.929 602.456C573.929 599.48 575.345 596.456 578.753 596.456ZM578.753 593.48C573.641 593.48 570.569 597.632 570.569 602.456C570.569 607.28 573.641 611.432 578.753 611.432C583.865 611.432 586.937 607.28 586.937 602.456C586.937 597.632 583.865 593.48 578.753 593.48ZM589.547 611H592.475V598.832H592.523L599.699 611H602.651V593.912H599.723V606.08H599.675L592.499 593.912H589.547V611ZM615.848 611H619.064V596.888H623.744V593.912H611.168V596.888H615.848V611ZM625.642 611H628.858V593.912H625.642V611ZM632.154 611H635.226V596.744H635.274L638.634 611H641.658L645.018 596.744H645.066V611H648.138V593.912H643.362L640.242 607.16H640.194L637.074 593.912H632.154V611ZM651.255 611H663.975V608.024H654.471V603.608H662.631V600.776H654.471V596.888H663.351V593.912H651.255V611Z" fill="black"/>
</g>
<defs>
<clipPath id="clip0">
<rect width="720" height="720" fill="white" transform="translate(40 40)"/>
</clipPath>
</defs>
</svg>
