<svg width="720" height="416" viewBox="0 0 720 416" fill="none" xmlns="http://www.w3.org/2000/svg">
<rect x="2" y="2" width="716" height="412" stroke="black" stroke-width="4"/>
<path d="M192.805 184.589C195.859 183.769 198.682 182.482 200.074 181.369L204.549 173.618C208.978 166.091 211.201 159.791 209.437 153.188C207.198 144.812 200.411 141.144 189.245 140.447L180.877 139.95C175.504 139.598 173.25 137.88 172.434 134.825C171.565 131.573 173.343 128.349 177.579 127.211C182.11 125.994 185.796 127.538 187.448 133.326L202.027 129.408C198.136 113.661 184.485 110.78 174.832 113.374C171.088 114.38 168.81 115.731 167.563 116.595L161.336 127.668C158.233 133.043 157.5 138.204 158.79 143.032C160.713 150.226 166.449 154.705 177.839 155.447L186.653 156.036C192.572 156.452 195.056 158.636 195.898 161.79C196.767 165.042 195.377 169.323 189.762 170.832C184.049 172.367 180.435 169.113 178.908 163.398L164.132 167.368C167.872 182.945 180.196 187.977 192.805 184.589Z" fill="black"/>
<path d="M228.365 173.979L243.141 170.008L224.709 101.028L209.933 104.999L228.365 173.979Z" fill="black"/>
<path d="M286.618 84.394L300.736 134.466L262.09 90.9845L240.812 96.7016L259.244 165.682L274.02 161.711L259.243 109.176L299.73 154.803L319.826 149.404L301.394 80.4238L286.618 84.394Z" fill="black"/>
<path d="M352.788 97.9831L356.395 111.483L373.831 106.799L375.99 114.879C372.899 119.512 368.198 122.465 363.273 123.788C350.565 127.203 340.124 119.341 337.096 108.008C334.041 96.5774 339.315 84.7042 351.53 81.4222C359.804 79.1989 366.472 81.6319 370.921 84.4502L378.164 70.4636C370.791 65.7906 359.578 63.7338 348.546 66.6982C342.438 68.3392 338.374 70.9099 336.595 72.5497L328.656 86.3008C324.162 94.3736 320.384 103.944 323.333 114.98C327.888 132.028 345.734 143.498 366.519 137.914C372.626 136.273 376.888 133.649 379.448 131.377L390.51 111.928L384.507 89.4604L352.788 97.9831Z" fill="black"/>
<path d="M407.773 125.773L454.071 113.333L450.332 99.3398L418.81 107.81L404.117 52.8227L389.341 56.7929L407.773 125.773Z" fill="black"/>
<path d="M463.76 110.73L511.043 98.0249L507.304 84.0318L474.797 92.7663L471.058 78.7732L500.117 70.9651L496.589 57.7604L467.529 65.5685L463.843 51.7725L496.35 43.0381L492.611 29.045L445.328 41.7496L463.76 110.73Z" fill="black"/>
<path d="M198.216 289.768L212.992 285.798L205.987 259.586L234.554 251.91L230.999 238.607L202.433 246.282L198.299 230.811L230.806 222.077L227.067 208.084L179.784 220.788L198.216 289.768Z" fill="black"/>
<path d="M298.068 262.939L313.829 258.704L272.149 195.97L250.774 201.714L246.056 276.914L261.325 272.811L262.267 256.187L289.061 248.988L298.068 262.939ZM262.994 241.522L264.658 211.397L281.021 236.679L262.994 241.522Z" fill="black"/>
<path d="M355.58 173.553L356.401 228.782L329.378 180.593L304.455 187.29L322.887 256.27L337.466 252.352L321.143 194.424L352.045 248.435L369.678 243.697L369.325 180.738L384.257 239.78L398.737 235.889L380.305 166.909L355.58 173.553Z" fill="black"/>
<path d="M414.756 231.585L429.532 227.615L411.1 158.635L396.324 162.605L414.756 231.585Z" fill="black"/>
<path d="M445.635 223.288L491.933 210.848L488.194 196.855L456.672 205.325L441.979 150.338L427.203 154.308L445.635 223.288Z" fill="black"/>
<path d="M512.879 131.288L505.877 163.165L483.426 139.202L465.99 143.887L501.716 179.597L508.851 206.302L523.627 202.332L516.492 175.627L529.724 126.762L512.879 131.288Z" fill="black"/>
<path d="M222.562 390.915L237.338 386.945L229.807 358.762L260.344 350.557L267.875 378.74L282.651 374.77L264.219 305.79L249.443 309.76L256.579 336.465L226.042 344.67L218.906 317.965L204.13 321.935L222.562 390.915Z" fill="black"/>
<path d="M328.469 363.515C334.281 361.953 339.462 359.611 342.39 357.134L348.669 346.258C355.572 334.158 356.407 324.64 353.932 315.377C348.534 295.175 328.03 287.588 310.693 292.246C303.502 294.179 299.464 296.848 297.442 298.764L291.406 309.363C285.153 320.338 283.484 330.292 285.959 339.555C291.541 360.446 312.511 367.803 328.469 363.515ZM326.897 348.939C315.471 352.01 303.25 345.788 299.538 331.893C296.141 319.181 302.217 309.521 312.56 306.742C323.888 303.699 336.844 309.512 340.583 323.505C343.98 336.217 337.536 346.081 326.897 348.939Z" fill="black"/>
<path d="M408.593 266.997L409.415 322.226L382.391 274.038L357.469 280.734L375.901 349.714L390.48 345.797L374.156 287.868L405.058 341.88L422.691 337.142L422.338 274.183L437.27 333.225L451.75 329.334L433.318 260.354L408.593 266.997Z" fill="black"/>
<path d="M467.769 325.03L515.052 312.325L511.313 298.332L478.806 307.066L475.067 293.073L504.126 285.265L500.598 272.061L471.539 279.869L467.852 266.073L500.359 257.338L496.62 243.345L449.337 256.05L467.769 325.03Z" fill="black"/>
<path d="M547.261 304.727C550.315 303.906 553.139 302.619 554.53 301.506L559.005 293.756C563.434 286.228 565.657 279.928 563.893 273.325C561.655 264.949 554.868 261.281 543.701 260.585L535.333 260.087C529.96 259.735 527.706 258.017 526.89 254.962C526.021 251.71 527.799 248.487 532.035 247.348C536.566 246.131 540.252 247.675 541.904 253.463L556.483 249.546C552.592 233.798 538.941 230.917 529.288 233.511C525.545 234.517 523.266 235.869 522.019 236.732L515.792 247.805C512.689 253.18 511.956 258.341 513.246 263.17C515.169 270.363 520.905 274.842 532.295 275.584L541.11 276.173C547.028 276.59 549.512 278.774 550.354 281.927C551.223 285.179 549.834 289.46 544.219 290.969C538.505 292.504 534.891 289.251 533.364 283.535L518.588 287.505C522.328 303.082 534.653 308.115 547.261 304.727Z" fill="black"/>
<path d="M571.847 350.456C575.255 350.456 576.671 353.48 576.671 356.456C576.671 359.432 575.255 362.456 571.847 362.456C568.439 362.456 567.023 359.432 567.023 356.456C567.023 353.48 568.439 350.456 571.847 350.456ZM571.847 347.48C566.735 347.48 563.663 351.632 563.663 356.456C563.663 361.28 566.735 365.432 571.847 365.432C576.959 365.432 580.031 361.28 580.031 356.456C580.031 351.632 576.959 347.48 571.847 347.48Z" fill="black"/>
<path d="M582.641 365H585.569V352.832H585.617L592.793 365H595.745V347.912H592.817V360.08H592.769L585.593 347.912H582.641V365Z" fill="black"/>
<path d="M608.87 357.176H613.022C614.966 357.176 616.166 357.872 616.166 359.792C616.166 361.568 614.99 362.168 613.046 362.168H608.87V357.176ZM608.87 350.456H612.686C614.558 350.456 615.398 351.296 615.398 352.592C615.398 354.224 614.102 354.776 612.686 354.776H608.87V350.456ZM605.654 365H612.926C616.478 365 619.526 364.16 619.526 359.888C619.526 357.848 618.206 355.904 615.854 355.664V355.616C617.726 355.256 618.758 354.032 618.758 352.16C618.758 349.328 616.502 347.912 613.694 347.912H605.654V365Z" fill="black"/>
<path d="M635.438 347.912H632.222V358.904C632.222 360.992 631.334 362.312 628.55 362.312C625.766 362.312 624.878 360.992 624.878 358.904V347.912H621.662V359.744C621.662 363.224 624.422 365.432 628.55 365.432C632.678 365.432 635.438 363.224 635.438 359.744V347.912Z" fill="black"/>
<path d="M638.56 365H645.16C650.248 365 652.96 362.024 652.96 356.456C652.96 351.56 650.464 347.912 644.56 347.912H638.56V365ZM641.776 350.888H644.632C648.136 350.888 649.6 353.096 649.6 356.456C649.6 360.872 647.872 362.024 644.704 362.024H641.776V350.888Z" fill="black"/>
<path d="M670.29 352.496C668.994 349.232 666.498 347.48 663.018 347.48C657.906 347.48 654.834 351.632 654.834 356.456C654.834 361.28 657.546 365.432 663.018 365.432C664.506 365.432 666.378 364.808 667.506 363.536V365H670.29V355.664H663.138V358.496H667.362C667.362 360.848 665.298 362.456 663.018 362.456C659.61 362.456 658.194 359.432 658.194 356.456C658.194 353.48 659.61 350.456 663.018 350.456C665.85 350.456 666.93 352.352 667.29 353.72L670.29 352.496Z" fill="black"/>
<path d="M673.248 365H685.968V362.024H676.464V357.608H684.624V354.776H676.464V350.888H685.344V347.912H673.248V365Z" fill="black"/>
<path d="M691.207 365H694.423V350.888H699.103V347.912H686.527V350.888H691.207V365Z" fill="black"/>
<path d="M592.753 376.456C596.161 376.456 597.577 379.48 597.577 382.456C597.577 385.432 596.161 388.456 592.753 388.456C589.345 388.456 587.929 385.432 587.929 382.456C587.929 379.48 589.345 376.456 592.753 376.456ZM592.753 373.48C587.641 373.48 584.569 377.632 584.569 382.456C584.569 387.28 587.641 391.432 592.753 391.432C597.865 391.432 600.937 387.28 600.937 382.456C600.937 377.632 597.865 373.48 592.753 373.48Z" fill="black"/>
<path d="M603.547 391H606.475V378.832H606.523L613.699 391H616.651V373.912H613.723V386.08H613.675L606.499 373.912H603.547V391Z" fill="black"/>
<path d="M629.848 391H633.064V376.888H637.744V373.912H625.168V376.888H629.848V391Z" fill="black"/>
<path d="M639.642 391H642.858V373.912H639.642V391Z" fill="black"/>
<path d="M646.154 391H649.226V376.744H649.274L652.634 391H655.658L659.018 376.744H659.066V391H662.138V373.912H657.362L654.242 387.16H654.194L651.074 373.912H646.154V391Z" fill="black"/>
<path d="M665.255 391H677.975V388.024H668.471V383.608H676.631V380.776H668.471V376.888H677.351V373.912H665.255V391Z" fill="black"/>
<path d="M20.8743 40.832C22.5063 43.208 25.4343 44.432 28.2663 44.432C31.8183 44.432 35.7543 42.992 35.7543 38.816C35.7543 35.576 33.3543 34.544 30.8103 33.992L28.7223 33.536C26.8023 33.104 25.1943 32.768 25.1943 31.352C25.1943 30.152 26.5863 29.456 28.4343 29.456C30.5223 29.456 32.1063 30.368 32.9223 31.928L35.5863 29.912C33.8103 27.56 31.3863 26.48 28.4583 26.48C25.2663 26.48 21.8343 28.208 21.8343 31.808C21.8343 34.952 24.2343 35.96 26.9703 36.584L28.8663 37.016C31.1463 37.544 32.3943 37.928 32.3943 39.272C32.3943 40.928 30.3303 41.456 28.7703 41.456C26.6823 41.456 24.8103 40.64 23.6103 38.864L20.8743 40.832Z" fill="black"/>
<path d="M37.9968 44H41.2128V38.24H45.0048C48.3888 38.24 50.7648 36.056 50.7648 32.672C50.7648 29.36 48.7968 26.912 44.7888 26.912H37.9968V44ZM41.2128 29.6H44.2848C46.1328 29.6 47.4048 30.296 47.4048 32.672C47.4048 34.352 46.4208 35.552 44.4048 35.552H41.2128V29.6Z" fill="black"/>
<path d="M52.6687 44H65.3887V41.024H55.8847V36.608H64.0447V33.776H55.8847V29.888H64.7647V26.912H52.6687V44Z" fill="black"/>
<path d="M67.3405 44H80.0605V41.024H70.5565V36.608H78.7165V33.776H70.5565V29.888H79.4365V26.912H67.3405V44Z" fill="black"/>
<path d="M82.0124 44H88.6124C93.7004 44 96.4124 41.024 96.4124 35.456C96.4124 30.56 93.9164 26.912 88.0124 26.912H82.0124V44ZM85.2284 29.888H88.0844C91.5884 29.888 93.0524 32.096 93.0524 35.456C93.0524 39.872 91.3244 41.024 88.1564 41.024H85.2284V29.888Z" fill="black"/>
<path d="M102.127 36.176H106.279C108.223 36.176 109.423 36.872 109.423 38.792C109.423 40.568 108.247 41.168 106.303 41.168H102.127V36.176ZM102.127 29.456H105.943C107.815 29.456 108.655 30.296 108.655 31.592C108.655 33.224 107.359 33.776 105.943 33.776H102.127V29.456ZM98.9109 44H106.183C109.735 44 112.783 43.16 112.783 38.888C112.783 36.848 111.463 34.904 109.111 34.664V34.616C110.983 34.256 112.015 33.032 112.015 31.16C112.015 28.328 109.759 26.912 106.951 26.912H98.9109V44Z" fill="black"/>
<path d="M122.479 29.456C125.887 29.456 127.303 32.48 127.303 35.456C127.303 38.432 125.887 41.456 122.479 41.456C119.071 41.456 117.655 38.432 117.655 35.456C117.655 32.48 119.071 29.456 122.479 29.456ZM122.479 26.48C117.367 26.48 114.295 30.632 114.295 35.456C114.295 40.28 117.367 44.432 122.479 44.432C127.591 44.432 130.663 40.28 130.663 35.456C130.663 30.632 127.591 26.48 122.479 26.48Z" fill="black"/>
<path d="M141.529 37.856H136.777L139.129 30.032H139.177L141.529 37.856ZM131.569 44H134.929L135.913 40.688H142.393L143.377 44H146.737L141.025 26.912H137.281L131.569 44Z" fill="black"/>
<path d="M151.558 44H154.774V29.888H159.454V26.912H146.878V29.888H151.558V44Z" fill="black"/>
<path d="M33.3445 70H36.5605V64.24H40.3525C43.7365 64.24 46.1125 62.056 46.1125 58.672C46.1125 55.36 44.1445 52.912 40.1365 52.912H33.3445V70ZM36.5605 55.6H39.6325C41.4805 55.6 42.7525 56.296 42.7525 58.672C42.7525 60.352 41.7685 61.552 39.7525 61.552H36.5605V55.6Z" fill="black"/>
<path d="M48.0163 70H51.2323V63.712H54.3043L57.6163 70H61.3363L57.5203 63.112C58.3363 62.8 60.9043 61.912 60.9043 58.072C60.9043 55.072 58.7683 52.912 55.1443 52.912H48.0163V70ZM51.2323 55.744H54.2563C56.4883 55.744 57.5443 56.752 57.5443 58.312C57.5443 59.92 56.3683 60.88 54.7363 60.88H51.2323V55.744Z" fill="black"/>
<path d="M70.6935 55.456C74.1015 55.456 75.5175 58.48 75.5175 61.456C75.5175 64.432 74.1015 67.456 70.6935 67.456C67.2855 67.456 65.8695 64.432 65.8695 61.456C65.8695 58.48 67.2855 55.456 70.6935 55.456ZM70.6935 52.48C65.5815 52.48 62.5095 56.632 62.5095 61.456C62.5095 66.28 65.5815 70.432 70.6935 70.432C75.8055 70.432 78.8775 66.28 78.8775 61.456C78.8775 56.632 75.8055 52.48 70.6935 52.48Z" fill="black"/>
<path d="M87.4159 52.912H84.1999V65.128C84.1999 66.928 82.8559 67.312 81.7759 67.312C81.2239 67.312 80.4799 67.288 80.0959 67.12V70.216C80.5999 70.312 81.2719 70.432 82.2319 70.432C84.3919 70.432 87.4159 69.52 87.4159 66.328V52.912Z" fill="black"/>
<path d="M90.696 70H103.416V67.024H93.912V62.608H102.072V59.776H93.912V55.888H102.792V52.912H90.696V70Z" fill="black"/>
<path d="M119.792 57.856C118.976 54.28 116.36 52.48 112.928 52.48C107.816 52.48 104.744 56.632 104.744 61.456C104.744 66.28 107.456 70.432 112.928 70.432C116.336 70.432 118.616 68.776 119.984 65.344L117.056 64C116.432 65.992 115.16 67.456 112.928 67.456C109.52 67.456 108.104 64.432 108.104 61.456C108.104 58.48 109.52 55.456 112.928 55.456C114.872 55.456 116.432 56.752 116.696 58.648L119.792 57.856Z" fill="black"/>
<path d="M125.086 70H128.302V55.888H132.982V52.912H120.406V55.888H125.086V70Z" fill="black"/>
<path d="M133.152 66.832C134.784 69.208 137.712 70.432 140.544 70.432C144.096 70.432 148.032 68.992 148.032 64.816C148.032 61.576 145.632 60.544 143.088 59.992L141 59.536C139.08 59.104 137.472 58.768 137.472 57.352C137.472 56.152 138.864 55.456 140.712 55.456C142.8 55.456 144.384 56.368 145.2 57.928L147.864 55.912C146.088 53.56 143.664 52.48 140.736 52.48C137.544 52.48 134.112 54.208 134.112 57.808C134.112 60.952 136.512 61.96 139.248 62.584L141.144 63.016C143.424 63.544 144.672 63.928 144.672 65.272C144.672 66.928 142.608 67.456 141.048 67.456C138.96 67.456 137.088 66.64 135.888 64.864L133.152 66.832Z" fill="black"/>
</svg>
