<svg width="720" height="720" viewBox="0 0 720 720" fill="none" xmlns="http://www.w3.org/2000/svg">
<path d="M0 151H720V568H0V151Z" fill="#FFD540"/>
<path d="M238.42 246.516L276.466 206.124V189.6H222.712V203.982H259.432L221.692 244.476V261H277.486V246.516H238.42ZM319.612 262.02C325.63 262.02 331.24 261.102 334.708 259.47L343.582 250.596C353.374 240.702 356.638 231.726 356.638 222.138C356.638 201.228 338.788 188.58 320.836 188.58C313.39 188.58 308.8 190.11 306.352 191.436L297.784 200.106C288.91 209.082 284.728 218.262 284.728 227.85C284.728 249.474 303.088 262.02 319.612 262.02ZM321.856 247.536C310.024 247.536 299.824 238.356 299.824 223.974C299.824 210.816 308.188 203.064 318.898 203.064C330.628 203.064 341.644 212.04 341.644 226.524C341.644 239.682 332.872 247.536 321.856 247.536ZM416.428 189.6L417.142 241.62L391.03 189.6H368.998V261H384.298L383.584 206.43L410.92 261H431.728V189.6H416.428ZM448.287 261H463.587V189.6H448.287V261ZM527.692 189.6L528.406 241.62L502.294 189.6H480.262V261H495.562L494.848 206.43L522.184 261H542.992V189.6H527.692ZM588.111 219.894V233.868H606.165V242.232C601.983 245.904 596.679 247.536 591.579 247.536C578.421 247.536 570.363 237.234 570.363 225.504C570.363 213.672 578.523 203.574 591.171 203.574C599.739 203.574 605.553 207.654 609.123 211.53L619.731 199.902C613.815 193.476 603.513 188.58 592.089 188.58C585.765 188.58 581.175 190.008 579.033 191.13L567.813 202.35C561.387 208.98 555.267 217.242 555.267 228.666C555.267 246.312 569.547 262.02 591.069 262.02C597.393 262.02 602.187 260.592 605.247 259.062L620.955 243.15V219.894H588.111ZM271.978 365H288.298L264.226 293.6H242.092L218.122 365H233.932L239.134 349.19H266.878L271.978 365ZM243.622 335.216L253.006 306.554L262.288 335.216H243.622ZM345.108 293.6L345.822 345.62L319.71 293.6H297.678V365H312.978L312.264 310.43L339.6 365H360.408V293.6H345.108ZM423.683 365H440.003L415.931 293.6H393.797L369.827 365H385.637L390.839 349.19H418.583L423.683 365ZM395.327 335.216L404.711 306.554L413.993 335.216H395.327ZM449.383 365H497.323V350.516H464.683V293.6H449.383V365ZM538.098 293.6L523.104 322.568L507.6 293.6H489.546L514.842 337.358V365H530.142V337.358L555.54 293.6H538.098ZM580.629 366.02C583.791 366.02 586.851 365.51 588.483 364.796L594.807 358.472C601.029 352.352 604.803 346.844 604.803 340.01C604.803 331.34 599.193 326.036 588.585 322.466L580.629 319.814C575.529 318.08 573.795 315.836 573.795 312.674C573.795 309.308 576.345 306.656 580.731 306.656C585.423 306.656 588.585 309.104 588.687 315.122H603.783C604.089 298.904 591.645 292.58 581.649 292.58C577.773 292.58 575.223 293.294 573.795 293.804L564.921 302.882C560.535 307.268 558.495 312.062 558.495 317.06C558.495 324.506 562.881 330.32 573.693 333.992L582.057 336.848C587.667 338.786 589.503 341.54 589.503 344.804C589.503 348.17 587.055 351.944 581.241 351.944C575.325 351.944 572.673 347.864 572.673 341.948H557.373C556.965 357.962 567.573 366.02 580.629 366.02ZM617.723 365H633.023V293.6H617.723V365ZM669.282 366.02C672.444 366.02 675.504 365.51 677.136 364.796L683.46 358.472C689.682 352.352 693.456 346.844 693.456 340.01C693.456 331.34 687.846 326.036 677.238 322.466L669.282 319.814C664.182 318.08 662.448 315.836 662.448 312.674C662.448 309.308 664.998 306.656 669.384 306.656C674.076 306.656 677.238 309.104 677.34 315.122H692.436C692.742 298.904 680.298 292.58 670.302 292.58C666.426 292.58 663.876 293.294 662.448 293.804L653.574 302.882C649.188 307.268 647.148 312.062 647.148 317.06C647.148 324.506 651.534 330.32 662.346 333.992L670.71 336.848C676.32 338.786 678.156 341.54 678.156 344.804C678.156 348.17 675.708 351.944 669.894 351.944C663.978 351.944 661.326 347.864 661.326 341.948H646.026C645.618 357.962 656.226 366.02 669.282 366.02Z" fill="white"/>
<path d="M323.969 461.4C327.369 466.35 333.469 468.9 339.369 468.9C346.769 468.9 354.969 465.9 354.969 457.2C354.969 450.45 349.969 448.3 344.669 447.15L340.319 446.2C336.319 445.3 332.969 444.6 332.969 441.65C332.969 439.15 335.869 437.7 339.719 437.7C344.069 437.7 347.369 439.6 349.069 442.85L354.619 438.65C350.919 433.75 345.869 431.5 339.769 431.5C333.119 431.5 325.969 435.1 325.969 442.6C325.969 449.15 330.969 451.25 336.669 452.55L340.619 453.45C345.369 454.55 347.969 455.35 347.969 458.15C347.969 461.6 343.669 462.7 340.419 462.7C336.069 462.7 332.169 461 329.669 457.3L323.969 461.4ZM359.641 468H366.341V456H374.241C381.291 456 386.241 451.45 386.241 444.4C386.241 437.5 382.141 432.4 373.791 432.4H359.641V468ZM366.341 438H372.741C376.591 438 379.241 439.45 379.241 444.4C379.241 447.9 377.191 450.4 372.991 450.4H366.341V438ZM390.207 468H416.707V461.8H396.907V452.6H413.907V446.7H396.907V438.6H415.407V432.4H390.207V468ZM420.773 468H447.273V461.8H427.473V452.6H444.473V446.7H427.473V438.6H445.973V432.4H420.773V468ZM451.34 468H465.09C475.69 468 481.34 461.8 481.34 450.2C481.34 440 476.14 432.4 463.84 432.4H451.34V468ZM458.04 438.6H463.99C471.29 438.6 474.34 443.2 474.34 450.2C474.34 459.4 470.74 461.8 464.14 461.8H458.04V438.6ZM493.245 451.7H501.895C505.945 451.7 508.445 453.15 508.445 457.15C508.445 460.85 505.995 462.1 501.945 462.1H493.245V451.7ZM493.245 437.7H501.195C505.095 437.7 506.845 439.45 506.845 442.15C506.845 445.55 504.145 446.7 501.195 446.7H493.245V437.7ZM486.545 468H501.695C509.095 468 515.445 466.25 515.445 457.35C515.445 453.1 512.695 449.05 507.795 448.55V448.45C511.695 447.7 513.845 445.15 513.845 441.25C513.845 435.35 509.145 432.4 503.295 432.4H486.545V468ZM535.645 437.7C542.745 437.7 545.695 444 545.695 450.2C545.695 456.4 542.745 462.7 535.645 462.7C528.545 462.7 525.595 456.4 525.595 450.2C525.595 444 528.545 437.7 535.645 437.7ZM535.645 431.5C524.995 431.5 518.595 440.15 518.595 450.2C518.595 460.25 524.995 468.9 535.645 468.9C546.295 468.9 552.695 460.25 552.695 450.2C552.695 440.15 546.295 431.5 535.645 431.5ZM575.333 455.2H565.433L570.333 438.9H570.433L575.333 455.2ZM554.583 468H561.583L563.633 461.1H577.133L579.183 468H586.183L574.283 432.4H566.483L554.583 468ZM596.227 468H602.927V438.6H612.677V432.4H586.477V438.6H596.227V468ZM349.948 520H356.648V508H364.548C371.598 508 376.548 503.45 376.548 496.4C376.548 489.5 372.448 484.4 364.098 484.4H349.948V520ZM356.648 490H363.048C366.898 490 369.548 491.45 369.548 496.4C369.548 499.9 367.498 502.4 363.298 502.4H356.648V490ZM380.515 520H387.215V506.9H393.615L400.515 520H408.265L400.315 505.65C402.015 505 407.365 503.15 407.365 495.15C407.365 488.9 402.915 484.4 395.365 484.4H380.515V520ZM387.215 490.3H393.515C398.165 490.3 400.365 492.4 400.365 495.65C400.365 499 397.915 501 394.515 501H387.215V490.3ZM427.759 489.7C434.859 489.7 437.809 496 437.809 502.2C437.809 508.4 434.859 514.7 427.759 514.7C420.659 514.7 417.709 508.4 417.709 502.2C417.709 496 420.659 489.7 427.759 489.7ZM427.759 483.5C417.109 483.5 410.709 492.15 410.709 502.2C410.709 512.25 417.109 520.9 427.759 520.9C438.409 520.9 444.809 512.25 444.809 502.2C444.809 492.15 438.409 483.5 427.759 483.5ZM462.597 484.4H455.897V509.85C455.897 513.6 453.097 514.4 450.847 514.4C449.697 514.4 448.147 514.35 447.347 514V520.45C448.397 520.65 449.797 520.9 451.797 520.9C456.297 520.9 462.597 519 462.597 512.35V484.4ZM469.431 520H495.931V513.8H476.131V504.6H493.131V498.7H476.131V490.6H494.631V484.4H469.431V520ZM530.047 494.7C528.347 487.25 522.897 483.5 515.747 483.5C505.097 483.5 498.697 492.15 498.697 502.2C498.697 512.25 504.347 520.9 515.747 520.9C522.847 520.9 527.597 517.45 530.447 510.3L524.347 507.5C523.047 511.65 520.397 514.7 515.747 514.7C508.647 514.7 505.697 508.4 505.697 502.2C505.697 496 508.647 489.7 515.747 489.7C519.797 489.7 523.047 492.4 523.597 496.35L530.047 494.7ZM541.076 520H547.776V490.6H557.526V484.4H531.326V490.6H541.076V520ZM557.88 513.4C561.28 518.35 567.38 520.9 573.28 520.9C580.68 520.9 588.88 517.9 588.88 509.2C588.88 502.45 583.88 500.3 578.58 499.15L574.23 498.2C570.23 497.3 566.88 496.6 566.88 493.65C566.88 491.15 569.78 489.7 573.63 489.7C577.98 489.7 581.28 491.6 582.98 494.85L588.53 490.65C584.83 485.75 579.78 483.5 573.68 483.5C567.03 483.5 559.88 487.1 559.88 494.6C559.88 501.15 564.88 503.25 570.58 504.55L574.53 505.45C579.28 506.55 581.88 507.35 581.88 510.15C581.88 513.6 577.58 514.7 574.33 514.7C569.98 514.7 566.08 513 563.58 509.3L557.88 513.4Z" fill="white"/>
<path d="M64.2676 468H85.4176V461.8H70.9676V432.4H64.2676V468ZM106.718 455.2H96.8176L101.718 438.9H101.818L106.718 455.2ZM85.9676 468H92.9676L95.0176 461.1H108.518L110.568 468H117.568L105.668 432.4H97.8676L85.9676 468ZM121.112 468H124.012V469.55C124.012 471.15 122.862 471.8 121.462 471.95V475C124.762 474.55 127.812 473.05 127.812 469.35V461.1H121.112V468ZM178.644 442.7C176.944 435.25 171.494 431.5 164.344 431.5C153.694 431.5 147.294 440.15 147.294 450.2C147.294 460.25 152.944 468.9 164.344 468.9C171.444 468.9 176.194 465.45 179.044 458.3L172.944 455.5C171.644 459.65 168.994 462.7 164.344 462.7C157.244 462.7 154.294 456.4 154.294 450.2C154.294 444 157.244 437.7 164.344 437.7C168.394 437.7 171.644 440.4 172.194 444.35L178.644 442.7ZM200.272 455.2H190.372L195.272 438.9H195.372L200.272 455.2ZM179.522 468H186.522L188.572 461.1H202.072L204.122 468H211.122L199.222 432.4H191.422L179.522 468ZM214.666 468H221.366V461.1H214.666V468Z" fill="white"/>
<path d="M34.624 260.52H37.84V254.76H41.632C45.016 254.76 47.392 252.576 47.392 249.192C47.392 245.88 45.424 243.432 41.416 243.432H34.624V260.52ZM37.84 246.12H40.912C42.76 246.12 44.032 246.816 44.032 249.192C44.032 250.872 43.048 252.072 41.032 252.072H37.84V246.12Z" fill="white"/>
<path d="M49.2959 260.52H52.5119V254.232H55.5839L58.8959 260.52H62.6159L58.7999 253.632C59.6159 253.32 62.1839 252.432 62.1839 248.592C62.1839 245.592 60.0479 243.432 56.4239 243.432H49.2959V260.52ZM52.5119 246.264H55.5359C57.7679 246.264 58.8239 247.272 58.8239 248.832C58.8239 250.44 57.6479 251.4 56.0159 251.4H52.5119V246.264Z" fill="white"/>
<path d="M71.9731 245.976C75.3811 245.976 76.7971 249 76.7971 251.976C76.7971 254.952 75.3811 257.976 71.9731 257.976C68.5651 257.976 67.1491 254.952 67.1491 251.976C67.1491 249 68.5651 245.976 71.9731 245.976ZM71.9731 243C66.8611 243 63.7891 247.152 63.7891 251.976C63.7891 256.8 66.8611 260.952 71.9731 260.952C77.0851 260.952 80.1571 256.8 80.1571 251.976C80.1571 247.152 77.0851 243 71.9731 243Z" fill="white"/>
<path d="M82.6474 260.52H89.2474C94.3354 260.52 97.0474 257.544 97.0474 251.976C97.0474 247.08 94.5514 243.432 88.6474 243.432H82.6474V260.52ZM85.8634 246.408H88.7194C92.2234 246.408 93.6874 248.616 93.6874 251.976C93.6874 256.392 91.9594 257.544 88.7914 257.544H85.8634V246.408Z" fill="white"/>
<path d="M113.322 243.432H110.106V254.424C110.106 256.512 109.218 257.832 106.434 257.832C103.65 257.832 102.762 256.512 102.762 254.424V243.432H99.5459V255.264C99.5459 258.744 102.306 260.952 106.434 260.952C110.562 260.952 113.322 258.744 113.322 255.264V243.432Z" fill="white"/>
<path d="M130.868 248.376C130.052 244.8 127.436 243 124.004 243C118.892 243 115.82 247.152 115.82 251.976C115.82 256.8 118.532 260.952 124.004 260.952C127.412 260.952 129.692 259.296 131.06 255.864L128.132 254.52C127.508 256.512 126.236 257.976 124.004 257.976C120.596 257.976 119.18 254.952 119.18 251.976C119.18 249 120.596 245.976 124.004 245.976C125.948 245.976 127.508 247.272 127.772 249.168L130.868 248.376Z" fill="white"/>
<path d="M136.162 260.52H139.378V246.408H144.058V243.432H131.482V246.408H136.162V260.52Z" fill="white"/>
<path d="M42.184 271.976C45.592 271.976 47.008 275 47.008 277.976C47.008 280.952 45.592 283.976 42.184 283.976C38.776 283.976 37.36 280.952 37.36 277.976C37.36 275 38.776 271.976 42.184 271.976ZM42.184 269C37.072 269 34 273.152 34 277.976C34 282.8 37.072 286.952 42.184 286.952C47.296 286.952 50.368 282.8 50.368 277.976C50.368 273.152 47.296 269 42.184 269Z" fill="white"/>
<path d="M52.8584 286.52H56.0744V279.32H63.0824V276.488H56.0744V272.408H64.0904V269.432H52.8584V286.52Z" fill="white"/>
<path d="M86.2047 269.432H82.9887V280.424C82.9887 282.512 82.1007 283.832 79.3167 283.832C76.5327 283.832 75.6447 282.512 75.6447 280.424V269.432H72.4287V281.264C72.4287 284.744 75.1887 286.952 79.3167 286.952C83.4447 286.952 86.2047 284.744 86.2047 281.264V269.432Z" fill="white"/>
<path d="M87.7671 283.352C89.3991 285.728 92.3271 286.952 95.1591 286.952C98.7111 286.952 102.647 285.512 102.647 281.336C102.647 278.096 100.247 277.064 97.7031 276.512L95.6151 276.056C93.6951 275.624 92.0871 275.288 92.0871 273.872C92.0871 272.672 93.4791 271.976 95.3271 271.976C97.4151 271.976 98.9991 272.888 99.8151 274.448L102.479 272.432C100.703 270.08 98.2791 269 95.3511 269C92.1591 269 88.7271 270.728 88.7271 274.328C88.7271 277.472 91.1271 278.48 93.8631 279.104L95.7591 279.536C98.0391 280.064 99.2871 280.448 99.2871 281.792C99.2871 283.448 97.2231 283.976 95.6631 283.976C93.5751 283.976 91.7031 283.16 90.5031 281.384L87.7671 283.352Z" fill="white"/>
<path d="M113.266 280.376H108.514L110.866 272.552H110.914L113.266 280.376ZM103.306 286.52H106.666L107.65 283.208H114.13L115.114 286.52H118.474L112.762 269.432H109.018L103.306 286.52Z" fill="white"/>
</svg>
