<svg width="60" height="40" viewBox="0 0 60 40" fill="none" xmlns="http://www.w3.org/2000/svg">
<path d="M15.0185 27.84C15.7005 27.84 16.3605 27.73 16.7125 27.576L18.0765 26.212C19.4185 24.892 20.2325 23.704 20.2325 22.23C20.2325 20.36 19.0225 19.216 16.7345 18.446L15.0185 17.874C13.9185 17.5 13.5445 17.016 13.5445 16.334C13.5445 15.608 14.0945 15.036 15.0405 15.036C16.0525 15.036 16.7345 15.564 16.7565 16.862H20.0125C20.0785 13.364 17.3945 12 15.2385 12C14.4025 12 13.8525 12.154 13.5445 12.264L11.6305 14.222C10.6845 15.168 10.2445 16.202 10.2445 17.28C10.2445 18.886 11.1905 20.14 13.5225 20.932L15.3265 21.548C16.5365 21.966 16.9325 22.56 16.9325 23.264C16.9325 23.99 16.4045 24.804 15.1505 24.804C13.8745 24.804 13.3025 23.924 13.3025 22.648H10.0025C9.91446 26.102 12.2025 27.84 15.0185 27.84Z" fill="#00C19F"/>
<path d="M28.8711 27.84C29.7951 27.84 30.5651 27.598 30.8731 27.466L33.4251 24.87C34.7231 23.528 35.0971 22.516 35.0971 20.8V12.22H31.7971V21.68C31.7971 23.594 30.4551 24.716 28.9811 24.716C27.5071 24.716 26.1651 23.594 26.1651 21.68V12.22H22.8651V21.944C22.8651 25.816 25.5051 27.84 28.8711 27.84Z" fill="#00C19F"/>
<path d="M48.0368 19.128L48.4328 18.732C49.1588 18.006 49.8188 17.126 49.8188 15.828C49.8188 14.244 48.4548 12.22 45.2428 12.22H38.4448V27.62H46.4088L48.3888 25.64C49.8188 24.21 50.3248 23.374 50.3248 22.098C50.3248 20.778 49.3788 19.612 48.0368 19.128ZM41.7448 15.278H44.8688C45.9688 15.278 46.5408 15.938 46.5408 16.84C46.5408 17.698 45.9688 18.402 44.8688 18.402H41.7448V15.278ZM45.2648 24.562H41.7448V21.306H45.1548C46.3428 21.306 47.0028 22.01 47.0028 22.89C47.0028 23.814 46.3428 24.562 45.2648 24.562Z" fill="#00C19F"/>
<path d="M59 20C59 25.0845 55.9087 29.81 50.6585 33.3101C45.4153 36.8055 38.1144 39 30 39C21.8856 39 14.5847 36.8055 9.3415 33.3101C4.09135 29.81 1 25.0845 1 20C1 14.9155 4.09135 10.19 9.3415 6.68991C14.5847 3.19448 21.8856 1 30 1C38.1144 1 45.4153 3.19448 50.6585 6.68991C55.9087 10.19 59 14.9155 59 20Z" stroke="#00C19F" stroke-width="2"/>
</svg>
